<?xml version="1.0" standalone="no"?>
<!DOCTYPE svg PUBLIC "-//W3C//DTD SVG 1.1//EN" "http://www.w3.org/Graphics/SVG/1.1/DTD/svg11.dtd" >
<svg xmlns="http://www.w3.org/2000/svg" xmlns:xlink="http://www.w3.org/1999/xlink" version="1.1">
<metadata>
Created by FontForge 20160407 at Tue Jun 21 11:31:54 2016
 By Jimmy Wärting
Copyright 2013. beIN Corporation, All Rights Reserved.
</metadata>
<defs>
<font id="beINNormal" horiz-adv-x="621" >
  <font-face 
    font-family="beINNormal"
    font-weight="400"
    font-stretch="normal"
    units-per-em="2048"
    panose-1="2 0 0 0 0 0 0 0 0 0"
    ascent="1638"
    descent="-410"
    x-height="1022"
    cap-height="1409"
    bbox="-258 -1038 2837 2388.09"
    underline-thickness="100"
    underline-position="-800"
    unicode-range="U+0001-FEFF"
  />
<missing-glyph horiz-adv-x="0" 
 />
    <glyph glyph-name="shaddawithfathatanisolated" unicode="&#x651;&#x64b;" 
d="M542 1592q0 -69 -40.5 -86t-61.5 -17h-257q-42 0 -72 30t-30 73v126h72v-116q0 -17 12 -29t29 -12h84v157h72v-157h80q17 0 29 12t12 29v116h71v-126zM81 1807v71h461v-71h-461zM81 1951v71h461v-71h-461z" />
    <glyph glyph-name="fathaonhamza" unicode="&#x674;&#x64e;" horiz-adv-x="678" 
d="M144 1291v72h462v-72h-462zM144 1435v72h462v-72h-462zM606 1685q0 -43 -30 -73t-72 -30h-257q-43 0 -73 30t-30 73v127h72v-117q0 -17 12 -29t29 -12h85v158h71v-158h80q17 0 29 12t12 29v117h72v-127z" />
    <glyph glyph-name="fathatanonhamza" unicode="&#x674;&#x64b;" 
d="M218 1216q-74 0 -74 65q0 10 4 24q27 92 110 194q48 54 106 54t118 -65q-26 -30 -82 -84q-25 21 -70 21t-92 -52q11 -60 137 -73q104 39 179 45q-28 -60 -60 -144q-119 13 -384 -148q24 47 49 83t77 81q-8 -1 -18 -1zM170 1549h-100q106 49 235 108t177 59h101
q-31 -10 -199 -88t-214 -79z" />
    <glyph glyph-name="sukunonhamza" unicode="&#x674;&#x652;" 
d="M218 1203q-74 0 -74 65q0 10 4 24q27 92 110 194q48 54 106 54t118 -65q-26 -30 -82 -84q-25 21 -70 21t-92 -52q11 -60 137 -73q104 39 179 45q-28 -60 -60 -144q-119 13 -384 -148q24 48 49 84t77 80q-8 -1 -18 -1zM170 1519h-100q106 49 235 108t177 59h101
q-31 -10 -199 -88t-214 -79zM132 1630h-100q106 49 235 108t177 59h101q-31 -11 -199 -89t-214 -78z" />
    <glyph glyph-name="dammaonhamza" unicode="&#x674;&#x64f;" 
d="M216 1170q-74 0 -74 65q0 10 4 24q27 92 110 194q48 54 106 54t118 -65q-26 -30 -82 -84q-25 21 -70 21t-92 -52q11 -60 137 -73q104 39 179 45q-28 -60 -60 -144q-119 13 -384 -148q24 47 49 83t77 81q-8 -1 -18 -1zM297 1630q0 20 -22 45t-44 48q-19 -21 -38.5 -42.5
t-19.5 -43.5q0 -56 60 -56q22 0 43 14.5t21 34.5zM363 1632q0 -44 -38.5 -78t-90.5 -34t-89.5 32.5t-37.5 78.5t64 112l84 86q0 -45 54 -99t54 -98z" />
    <glyph glyph-name="dammatanonhamza" unicode="&#x674;&#x64c;" 
d="M329 2274q-9 0 -25 -14t-16 -25q0 -26 51 -26q16 0 24 4q-10 61 -34 61zM418 2213v-12q25 -11 43 -21l-29 -68q-13 9 -36 16q-87 -151 -178 -195t-202 -64q172 95 337 264q-17 -3 -49 0t-40 16t-6 37q8 100 65 148q24 27 50 0q45 -47 45 -121zM157 1496q-93 0 -93 82
q0 12 5 30q34 115 137 242q59 68 132 68t149 -82q-33 -37 -103 -105q-32 27 -88 27t-115 -65q14 -75 172 -92q130 49 224 57q-36 -76 -75 -180q-149 16 -481 -185q29 60 61 104t97 101q-10 -2 -22 -2z" />
    <glyph glyph-name="shaddawithdammatanisolated" unicode="&#x651;&#x64c;" arabic-form="isolated" 
d="M386 2078q7 -24 19.5 -34t28.5 -18q31 24 40 57t-20 47t-52 -7t-16 -45zM260 2071v-1l-7 -98q51 -7 112 11q-36 28 -47 78t19 98q31 46 75 48q76 4 111 -43t22 -92t-37 -72l35 -8l-14 -72q-56 13 -84 24q-11 -8 -22 -13t-19 -9q-83 -33 -176 -20q-5 2 -27 5.5t-22 57.5
l7 77l-73 -41l-34 63l101 56q26 22 53 5t27 -54zM545 1845v-126q0 -43 -30 -73t-73 -30h-257q-42 0 -72 30t-30 73v126h72v-116q0 -17 12 -29t29 -12h84v157h72v-157h80q17 0 29 12t12 29v116h72z" />
    <glyph glyph-name="shaddawithkasratanisolated" unicode="&#x651;&#x64d;" horiz-adv-x="678" arabic-form="isolated" 
d="M112 1666v72h462v-72h-462zM112 1810v72h462v-72h-462zM574 2060q0 -43 -30 -73t-72 -30h-257q-43 0 -73 30t-30 73v127h72v-117q0 -17 12 -29t29 -12h85v158h71v-158h80q17 0 29 12t12 29v117h72v-127z" />
    <glyph glyph-name="shaddawithfathaisolated" unicode="&#x651;&#x64e;" arabic-form="isolated" 
d="M539 1729q0 -69 -40.5 -86t-61.5 -17h-257q-42 0 -72 30t-30 73v126h72v-116q0 -17 12 -29t29 -12h84v157h72v-157h80q17 0 29 12t12 29v116h71v-126zM78 1944v71h461v-71h-461z" />
    <glyph glyph-name="shaddawithdammaisolated" unicode="&#x651;&#x64f;" arabic-form="isolated" 
d="M373 1804q36 28 47 58q11 29 -10 41q-34 20 -62 -1t-15.5 -51t40.5 -47zM454 1689q-58 20 -81 33q-106 -55 -255 -1l22 68q97 -31 159 -18q-55 55 -35 120.5t71.5 87t89 -1t51.5 -45.5q50 -85 -33 -162q4 -2 34 -12zM539 1628v-126q0 -43 -30 -73t-72 -30h-257
q-67 0 -84.5 41t-17.5 62v126h71v-116q0 -17 12 -29t29 -12h85v157h72v-157h79q17 0 29 12t12 29v116h72z" />
    <glyph glyph-name="shaddawithkasraisolated" unicode="&#x651;&#x650;" horiz-adv-x="640" arabic-form="isolated" 
d="M93 1369v72h462v-72h-462zM555 1619q0 -43 -30 -73t-72 -30h-257q-43 0 -73 30t-30 73v127h72v-117q0 -17 12 -29t29 -12h85v158h71v-158h80q17 0 29 12t12 29v117h72v-127z" />
    <glyph glyph-name="shaddawithfathamedial" unicode="&#x640;&#x651;&#x64e;" horiz-adv-x="1033" arabic-form="medial" 
d="M-42 189h1120v-189h-1120v189zM649 1330q0 -69 -40.5 -86t-61.5 -17h-257q-42 0 -72 30t-30 73v126h72v-116q0 -17 12 -29t29 -12h84v157h72v-157h80q17 0 29 12t12 29v116h71v-126zM188 1545v71h461v-71h-461z" />
    <glyph glyph-name="shaddawithdammamedial" unicode="&#x640;&#x651;&#x64f;" horiz-adv-x="1033" arabic-form="medial" 
d="M-42 0v189h1120v-189h-1120zM511 1633q36 28 47 58q11 29 -10 41q-34 20 -62 -1t-15.5 -51t40.5 -47zM592 1518q-58 20 -81 33q-106 -55 -255 -1l22 68q97 -31 159 -18q-55 55 -35 120.5t71.5 87t89 -1t51.5 -45.5q50 -85 -33 -162q4 -2 34 -12zM677 1457v-126
q0 -43 -30 -73t-72 -30h-257q-67 0 -84.5 41t-17.5 62v126h71v-116q0 -17 12 -29t29 -12h85v157h72v-157h79q17 0 29 12t12 29v116h72z" />
    <glyph glyph-name="shaddawithkasramedial" unicode="&#x640;&#x651;&#x650;" horiz-adv-x="1033" arabic-form="medial" 
d="M-42 189h1120v-189h-1120v189zM333 1293v72h462v-72h-462zM795 1543q0 -43 -30 -73t-72 -30h-257q-43 0 -73 30t-30 73v127h72v-117q0 -17 12 -29t29 -12h85v158h71v-158h80q17 0 29 12t12 29v117h72v-127z" />
    <glyph glyph-name="alefwithfathatanfinal" unicode="&#xfe8e;&#x64b;" horiz-adv-x="463" arabic-form="final" 
d="M417 1669h-462v72h462v-72zM417 1525h-462v72h462v-72zM295 1345v-1035q0 -50 35.5 -85.5t85.5 -35.5h89v-189h-89q-127 0 -219 90.5t-92 219.5v1035h190z" />
    <glyph glyph-name="alefwithfathatanisolated" unicode="&#xfe8d;&#x64b;" horiz-adv-x="399" arabic-form="isolated" 
d="M431 1669h-462v72h462v-72zM431 1525h-462v72h462v-72zM105 1345h189v-1345h-189v1345z" />
    <glyph glyph-name="allahisolated" unicode="&#xfedf;&#xfee0;&#xfeea;" horiz-adv-x="2140" arabic-form="isolated" 
d="M2035 1345v-1035q0 -128 -91 -219t-220 -91h-933v527q2 101 -72 176.5t-177 75.5t-175 -75.5t-72 -182.5v-213q0 -49 35 -84t84 -35h207v-189h-207q-128 0 -218.5 90.5t-90.5 217.5v213q0 186 129 317t309 131t309 -131t129 -311v-338h329v1156h189v-1156h225
q50 0 85.5 35.5t35.5 85.5v1035h190z" />
    <glyph glyph-name="tatweelwithfathatanabove" unicode="&#x640;&#x64b;" horiz-adv-x="1033" arabic-form="medial" 
d="M-42 0v189h1120v-189h-1120zM608 1419h-462v72h462v-72zM608 1275h-462v72h462v-72z" />
    <glyph glyph-name="fathamedial" unicode="&#x640;&#x64e;" horiz-adv-x="1033" arabic-form="medial" 
d="M-42 0v189h1120v-189h-1120zM756 1316h-462v72h462v-72z" />
    <glyph glyph-name="dammamedial" unicode="&#x640;&#x64f;" horiz-adv-x="1033" arabic-form="medial" 
d="M-42 0v189h1120v-189h-1120zM417 1494q-13 -34 14 -51.5t30 -17.5h29q26 64 7 83.5t-43 19.5t-37 -34zM568 1433l35 8l17 -70q-52 -13 -86 -16q-46 -73 -107.5 -99t-108.5 -37l-17 69q98 26 144 69q-45 11 -77 51t-25 81q18 109 80.5 110t86.5 -11q53 -28 62 -85
q6 -33 -4 -70z" />
    <glyph glyph-name="kasramedial" unicode="&#x640;&#x650;" horiz-adv-x="1033" arabic-form="medial" 
d="M-42 189h1120v-189h-1120v189zM715 -396h-462v72h462v-72z" />
    <glyph glyph-name="shaddamedial" unicode="&#x640;&#x651;" horiz-adv-x="1033" arabic-form="medial" 
d="M-42 0v189h1120v-189h-1120zM352 1294q-42 0 -72 30t-30 73v126h72v-116q0 -17 12 -29t29 -12h84v157h72v-157h80q17 0 29 12t12 29v116h71v-126q0 -42 -29 -72.5t-73 -30.5h-257z" />
    <glyph glyph-name="sukunmedial" unicode="&#x640;&#x652;" horiz-adv-x="1033" arabic-form="medial" 
d="M-42 0v189h1120v-189h-1120zM428 1531q-28 0 -53 -25.5t-25 -61.5t25 -61.5t53 -25.5t43.5 7t27 18.5t18.5 27.5t7 34t-7 34t-18.5 27.5t-27 18.5t-43.5 7zM438 1285q-33 0 -62 12.5t-50.5 34.5t-34 50.5t-12.5 61.5t12.5 62t34 50.5t50.5 34t62 12.5t61.5 -12.5t50 -34
t34 -50.5t12.5 -62t-12.5 -61.5t-34 -50.5t-50 -34.5t-61.5 -12.5z" />
    <glyph glyph-name="lamwithalefmaddaaboveisolatedd" unicode="&#xfedf;&#xfe82;" horiz-adv-x="1185" arabic-form="isolated" 
d="M438 1067q-37 0 -77.5 21t-66 20t-65.5 -46l-50 69q58 64 80.5 70.5t44.5 6.5t46 -13t63 -27t87 47l50 -69q-49 -79 -112 -79zM474 969v-780h296q50 0 85.5 35.5t35.5 86.5v1034h189v-1034q0 -129 -91 -220t-219 -91h-665v189h180v780h189z" />
    <glyph glyph-name="lamwithalefmaddaabovefinal" unicode="&#xfee0;&#xfe82;" horiz-adv-x="1233" arabic-form="final" 
d="M438 1067q-37 0 -77.5 21t-66 20t-65.5 -46l-50 69q58 64 80.5 70.5t44.5 6.5t46 -13t63 -27t87 47l50 -69q-49 -79 -112 -79zM474 969v-780h418v1156h190v-1156h193v-189h-1170v189h180v780h189z" />
    <glyph glyph-name="lamwithalefhamzaaboveisolatedd" unicode="&#xfedf;&#xfe84;" horiz-adv-x="1185" arabic-form="isolated" 
d="M355 1188.5q11 -25.5 28 -25.5h142v-94h-308v94h49q-16 40 -16 75q0 71 38 116t119 47h81v-95l-128 -20q-16 -20 -16 -46t11 -51.5zM474 969v-780h296q50 0 85.5 35.5t35.5 86.5v1034h189v-1034q0 -129 -91 -220t-219 -91h-665v189h180v780h189z" />
    <glyph glyph-name="lamwithalefhamzaabovefinal" unicode="&#xfee0;&#xfe84;" horiz-adv-x="1233" arabic-form="final" 
d="M355 1188.5q11 -25.5 28 -25.5h142v-94h-308v94h49q-16 40 -16 75q0 71 38 116t119 47h81v-95l-128 -20q-16 -20 -16 -46t11 -51.5zM474 969v-780h418v1156h190v-1156h193v-189h-1170v189h180v780h189z" />
    <glyph glyph-name="lamwithalefhamzabelowisolated" unicode="&#xfedf;&#xfe88;" horiz-adv-x="1185" arabic-form="isolated" 
d="M341 -312.5q11 -25.5 28 -25.5h142v-94h-308v94h49q-16 40 -16 75q0 71 38 116t119 47h81v-95l-128 -21q-16 -20 -16 -45q0 -26 11 -51.5zM474 969v-780h296q50 0 85.5 35.5t35.5 86.5v1034h189v-1034q0 -129 -91 -220t-219 -91h-665v189h180v780h189z" />
    <glyph glyph-name="lamwithalefhamzabelowfinal" unicode="&#xfee0;&#xfe88;" horiz-adv-x="1233" arabic-form="final" 
d="M341 -312.5q11 -25.5 28 -25.5h142v-94h-308v94h49q-16 40 -16 75q0 71 38 116t119 47h81v-95l-128 -21q-16 -20 -16 -45q0 -26 11 -51.5zM474 969v-780h418v1156h190v-1156h193v-189h-1170v189h180v780h189z" />
    <glyph glyph-name="lamwithalefisolated" unicode="&#xfedf;&#xfe8e;" horiz-adv-x="1185" arabic-form="isolated" 
d="M474 969v-780h296q50 0 85.5 35.5t35.5 86.5v1034h189v-1034q0 -129 -91 -220t-219 -91h-665v189h180v780h189z" />
    <glyph glyph-name="lamwithaleffinal" unicode="&#xfee0;&#xfe8e;" horiz-adv-x="1233" arabic-form="final" 
d="M474 969v-780h418v1156h190v-1156h193v-189h-1170v189h180v780h189z" />
    <glyph glyph-name="alefwaslaisolated" unicode="&#x671;" arabic-form="isolated" 
d="M350 2225q0 53 -15 73q-14 34 -42 6q-17 -12 -29 -49q-3 -25 18.5 -30.5t67.5 0.5zM221 2178q0 110 57 184q41 60 90 -18q29 -54 29 -123q40 -15 52 -24q-3 -7 -18 -34.5t-18 -38.5q-10 12 -35 18q-108 -196 -266 -225q4 13 10 24.5t12 31.5t0.5 37t-29.5 29t-77 -14
t-92 -87q53 97 103.5 141.5t109.5 24.5q23 -8 30 -32.5t-15 -66.5q81 36 110 62t67 82q-54 -13 -96 0q-24 3 -24 29zM157 1496q-93 0 -93 82q0 12 5 30q34 115 137 242q59 68 132 68t149 -82q-33 -37 -103 -105q-32 27 -88 27t-115 -65q14 -75 172 -92q130 49 224 57
q-36 -76 -75 -180q-149 16 -481 -185q29 60 61 104t97 101q-10 -2 -22 -2z" />
    <glyph glyph-name="alefwaslafinal" unicode="&#x671;" horiz-adv-x="463" arabic-form="final" 
d="M304 1606q-45 0 -140 -65q32 -2 86 -2t105 23q-6 44 -51 44zM434 1625q0 -17 -42 -74q-72 -95 -209 -95q-82 0 -182 34q-29 -26 -91 -74q0 17 -3 43q42 43 128 126q39 -30 93 -38q136 120 221 120t85 -42zM295 1345v-1035q0 -50 35.5 -85.5t85.5 -35.5h89v-189h-89
q-127 0 -219 90.5t-92 219.5v1035h190z" />
    <glyph glyph-name="pehisolated" unicode="&#x67e;" horiz-adv-x="1423" arabic-form="isolated" 
d="M877 -453q0 -30 -7.5 -47.5t-20.5 -31t-30.5 -21t-48.5 -7.5t-58.5 29t-27.5 68q0 40 28 68t68 28t68.5 -28t28.5 -58zM997 -268q0 -30 -7.5 -47.5t-20.5 -31t-30.5 -21t-37.5 -7.5t-37.5 7.5t-31 21t-21 31t-7.5 48t29 58t68 27.5q40 0 68 -28t28 -58zM757 -278
q0 -20 -7.5 -37.5t-21 -31t-31 -21t-48 -7.5t-58 29t-27.5 68q0 40 28 68t58 28t47.5 -7.5t31 -20.5t21 -30.5t7.5 -37.5zM1318 969v-658q0 -130 -90.5 -220.5t-218.5 -90.5h-463q-182 0 -311.5 128t-129.5 311v353h190v-353q0 -104 73 -177t178 -73h463q51 0 85.5 36
t34.5 86v658h189z" />
    <glyph glyph-name="pehfinal" unicode="&#x67e;" horiz-adv-x="1470" arabic-form="final" 
d="M1068 -276q0 -20 -7.5 -37.5t-21 -31t-31 -21t-37.5 -7.5t-37.5 7.5t-31 21t-21 31t-7.5 37.5t7.5 37.5t21 30.5t31 20.5t37.5 7.5t37.5 -7.5t31 -20.5t21 -30.5t7.5 -37.5zM785 -276q0 -20 -7.5 -37.5t-21 -31t-31 -21t-48 -7.5t-58 29t-27.5 68q0 40 28 68t58 28
t47.5 -7.5t31 -20.5t21 -30.5t7.5 -37.5zM926 -481q0 -20 -7.5 -37.5t-20.5 -31t-30.5 -21t-37.5 -7.5t-37.5 7.5t-31 21t-21 31t-7.5 37.5t7.5 37.5t21 31t31 21t37.5 7.5t37.5 -7.5t30.5 -21t20.5 -31t7.5 -37.5zM1319 969v-780h193v-189h-967q-181 0 -310.5 128
t-129.5 311v353h190v-353q0 -104 73 -177t177 -73h584v780h190z" />
    <glyph glyph-name="pehinitial" unicode="&#x67e;" horiz-adv-x="578" arabic-form="initial" 
d="M473 -276q0 -20 -7.5 -37.5t-21 -31t-31 -21t-37.5 -7.5t-37.5 7.5t-31 21t-21 31t-7.5 37.5t7.5 37.5t21 30.5t31 20.5t37.5 7.5t37.5 -7.5t31 -20.5t21 -30.5t7.5 -37.5zM190 -276q0 -20 -7.5 -37.5t-21 -31t-31 -21t-48 -7.5t-58 29t-27.5 68q0 40 28 68t58 28
t47.5 -7.5t31 -20.5t21 -30.5t7.5 -37.5zM331 -481q0 -20 -7.5 -37.5t-20.5 -31t-30.5 -21t-37.5 -7.5t-37.5 7.5t-31 21t-21 31t-7.5 37.5t7.5 37.5t21 31t31 21t37.5 7.5t37.5 -7.5t30.5 -21t20.5 -31t7.5 -37.5zM471 969v-658q0 -129 -91 -220t-219 -91h-203v189h203
q50 0 85.5 35.5t35.5 86.5v658h189z" />
    <glyph glyph-name="pehmedial" unicode="&#x67e;" horiz-adv-x="623" arabic-form="medial" 
d="M471 -276q0 -20 -7.5 -37.5t-21 -31t-31 -21t-37.5 -7.5t-37.5 7.5t-31 21t-21 31t-7.5 37.5t7.5 37.5t21 30.5t31 20.5t37.5 7.5t37.5 -7.5t31 -20.5t21 -30.5t7.5 -37.5zM188 -276q0 -20 -7.5 -37.5t-21 -31t-31 -21t-48 -7.5t-58 29t-27.5 68q0 40 28 68t58 28
t47.5 -7.5t31 -20.5t21 -30.5t7.5 -37.5zM329 -481q0 -20 -7.5 -37.5t-20.5 -31t-30.5 -21t-37.5 -7.5t-37.5 7.5t-31 21t-21 31t-7.5 37.5t7.5 37.5t21 31t31 21t37.5 7.5t37.5 -7.5t30.5 -21t20.5 -31t7.5 -37.5zM471 969v-780h194v-189h-707v189h324v780h189z" />
    <glyph glyph-name="vehisolated" unicode="&#x6a4;" horiz-adv-x="1874" arabic-form="isolated" 
d="M1098 1248q0 20 7.5 37.5t21 31t31 21t37.5 7.5t37.5 -7.5t31 -21t21 -31t7.5 -37.5t-7.5 -37.5t-21 -30.5t-31 -20.5t-37.5 -7.5t-37.5 7.5t-31 20.5t-21 30.5t-7.5 37.5zM1381 1248q0 20 7.5 37.5t21 31t31 21t48 7.5t58 -29t27.5 -68q0 -40 -28 -68t-58 -28t-47.5 7.5
t-31 20.5t-21 30.5t-7.5 37.5zM1240 1453q0 20 7.5 37.5t20.5 31t30.5 21t37.5 7.5t37.5 -7.5t31 -21t21 -31t7.5 -37.5t-7.5 -37.5t-21 -31t-31 -21t-37.5 -7.5t-37.5 7.5t-30.5 21t-20.5 31t-7.5 37.5zM1091 189h364q52 0 87.5 33.5t35.5 90.5v229q0 101 -72 169.5
t-173 68.5t-171.5 -70.5t-70.5 -173.5v-347zM295 443q0 -105 74.5 -179.5t179.5 -74.5h352v347q0 184 126.5 309t306.5 125t307 -125t127 -303v-229q0 -139 -90.5 -226t-222.5 -87h-906q-184 0 -314 130t-130 313v349h190v-349z" />
    <glyph glyph-name="vehfinal" unicode="&#x6a4;" horiz-adv-x="1917" arabic-form="final" 
d="M1095 1248q0 20 7.5 37.5t21 31t31 21t37.5 7.5t37.5 -7.5t31 -21t21 -31t7.5 -37.5t-7.5 -37.5t-21 -30.5t-31 -20.5t-37.5 -7.5t-37.5 7.5t-31 20.5t-21 30.5t-7.5 37.5zM1378 1248q0 20 7.5 37.5t21 31t31 21t48 7.5t58 -29t27.5 -68q0 -40 -28 -68t-58 -28t-47.5 7.5
t-31 20.5t-21 30.5t-7.5 37.5zM1237 1453q0 20 7.5 37.5t20.5 31t30.5 21t37.5 7.5t37.5 -7.5t31 -21t21 -31t7.5 -37.5t-7.5 -37.5t-21 -31t-31 -21t-37.5 -7.5t-37.5 7.5t-30.5 21t-20.5 31t-7.5 37.5zM1090 189h486v353q0 100 -71 169t-173 69q-101 0 -171.5 -70.5
t-70.5 -173.5v-347zM548 0q-183 0 -313 130t-130 313v349h189v-349q0 -105 74.5 -179.5t179.5 -74.5h352v347q0 183 125.5 308.5t305.5 125.5t307.5 -125t127.5 -303v-353h193v-189h-1411z" />
    <glyph glyph-name="vehinitial" unicode="&#x6a4;" horiz-adv-x="1123" arabic-form="initial" 
d="M345 1248q0 20 7.5 37.5t21 31t31 21t37.5 7.5t37.5 -7.5t31 -21t21 -31t7.5 -37.5t-7.5 -37.5t-21 -30.5t-31 -20.5t-37.5 -7.5t-37.5 7.5t-31 20.5t-21 30.5t-7.5 37.5zM628 1248q0 20 7.5 37.5t21 31t31 21t48 7.5t58 -29t27.5 -68q0 -40 -28 -68t-58 -28t-47.5 7.5
t-31 20.5t-21 30.5t-7.5 37.5zM487 1453q0 20 7.5 37.5t20.5 31t30.5 21t37.5 7.5t37.5 -7.5t31 -21t21 -31t7.5 -37.5t-7.5 -37.5t-21 -31t-31 -21t-37.5 -7.5t-37.5 7.5t-30.5 21t-20.5 31t-7.5 37.5zM341 189h365q51 0 86.5 34t35.5 90v229q2 100 -70.5 169t-173.5 69
q-102 0 -172.5 -70.5t-70.5 -173.5v-347zM-42 189h194v347q0 183 125.5 308.5t305.5 125.5t308 -125.5t126 -302.5v-229q0 -138 -89.5 -225.5t-221.5 -87.5h-748v189z" />
    <glyph glyph-name="vehmedial" unicode="&#x6a4;" horiz-adv-x="1170" arabic-form="medial" 
d="M343 1248q0 20 7.5 37.5t21 31t31 21t37.5 7.5t37.5 -7.5t31 -21t21 -31t7.5 -37.5t-7.5 -37.5t-21 -30.5t-31 -20.5t-37.5 -7.5t-37.5 7.5t-31 20.5t-21 30.5t-7.5 37.5zM626 1248q0 20 7.5 37.5t21 31t31 21t48 7.5t58 -29t27.5 -68q0 -40 -28 -68t-58 -28t-47.5 7.5
t-31 20.5t-21 30.5t-7.5 37.5zM485 1453q0 20 7.5 37.5t20.5 31t30.5 21t37.5 7.5t37.5 -7.5t31 -21t21 -31t7.5 -37.5t-7.5 -37.5t-21 -31t-31 -21t-37.5 -7.5t-37.5 7.5t-30.5 21t-20.5 31t-7.5 37.5zM341 189h488v353q0 99 -71.5 168.5t-173.5 69.5t-172.5 -70.5
t-70.5 -173.5v-347zM-42 0v189h194v347q0 183 125.5 308.5t305.5 125.5t308 -125.5t128 -302.5v-353h193v-189h-1254z" />
    <glyph glyph-name="tchehisolated" unicode="&#x686;" horiz-adv-x="1068" arabic-form="isolated" 
d="M963 -232q0 -20 -13.5 -32.5t-32.5 -12.5t-32.5 12.5t-13.5 32.5t13.5 33t32.5 13t32.5 -13t13.5 -33zM829 -232q0 -20 -12.5 -32.5t-32.5 -12.5t-33 12.5t-13 32.5t13 33t33 13t32.5 -13t12.5 -33zM896 -328q0 -20 -13 -33t-33 -13t-32.5 13t-12.5 33t12.5 33t32.5 13
t33 -13t13 -33zM522 971q56 0 109 -8.5t191 -66t138 -377.5v-212q0 -126 -90.5 -216.5t-221.5 -90.5h-273q-38 0 -59.5 -27t-21.5 -54q0 -48 21 -76.5t60 -28.5h265v-189h-265q-127 0 -198.5 84t-71.5 198.5t71 198t199 83.5h273q50 0 86 34.5t36 83.5v212q0 142 -70 202
t-196 60t-294 -76l-82 170q122 59 230 77.5t164 18.5z" />
    <glyph glyph-name="tchehfinal" unicode="&#x686;" horiz-adv-x="1113" arabic-form="final" 
d="M963 -232q0 -20 -13.5 -32.5t-32.5 -12.5t-32.5 12.5t-13.5 32.5t13.5 33t32.5 13t32.5 -13t13.5 -33zM829 -232q0 -20 -12.5 -32.5t-32.5 -12.5t-33 12.5t-13 32.5t13 33t33 13t32.5 -13t12.5 -33zM896 -328q0 -20 -13 -33t-33 -13t-32.5 13t-12.5 33t12.5 33t32.5 13
t33 -13t13 -33zM524 971q56 0 109 -8.5t191 -66t138 -377.5v-330h193v-189h-780q-37 0 -58.5 -27t-21.5 -54q0 -48 21 -76.5t59 -28.5h265v-189h-265q-127 0 -198.5 84t-71.5 198.5t71 198t199 83.5h397v330q0 142 -70 202t-197 60t-294 -76l-82 170q123 59 231 77.5
t164 18.5z" />
    <glyph glyph-name="tchehinitial" unicode="&#x686;" horiz-adv-x="1075" arabic-form="initial" 
d="M771 -276q0 -20 -7.5 -37.5t-21 -31t-31 -21t-37.5 -7.5t-37.5 7.5t-31 21t-21 31t-7.5 37.5t7.5 37.5t21 30.5t31 20.5t37.5 7.5t37.5 -7.5t31 -20.5t21 -30.5t7.5 -37.5zM488 -276q0 -20 -7.5 -37.5t-21 -31t-31 -21t-48 -7.5t-58 29t-27.5 68q0 40 28 68t58 28
t47.5 -7.5t31 -20.5t21 -30.5t7.5 -37.5zM629 -481q0 -20 -7.5 -37.5t-20.5 -31t-30.5 -21t-37.5 -7.5t-37.5 7.5t-31 21t-21 31t-7.5 37.5t7.5 37.5t21 31t31 21t37.5 7.5t37.5 -7.5t30.5 -21t20.5 -31t7.5 -37.5zM138 875q199 96 408 96q178 0 301 -102t123 -350v-212
q0 -127 -91.5 -217t-220.5 -90h-700v189h700q50 0 86.5 34.5t36.5 83.5v212q0 142 -70 202t-197 60t-295 -76z" />
    <glyph glyph-name="tchehmedial" unicode="&#x686;" horiz-adv-x="1125" arabic-form="medial" 
d="M773 -276q0 -20 -7.5 -37.5t-21 -31t-31 -21t-37.5 -7.5t-37.5 7.5t-31 21t-21 31t-7.5 37.5t7.5 37.5t21 30.5t31 20.5t37.5 7.5t37.5 -7.5t31 -20.5t21 -30.5t7.5 -37.5zM490 -276q0 -20 -7.5 -37.5t-21 -31t-31 -21t-48 -7.5t-58 29t-27.5 68q0 40 28 68t58 28
t47.5 -7.5t31 -20.5t21 -30.5t7.5 -37.5zM631 -481q0 -20 -7.5 -37.5t-20.5 -31t-30.5 -21t-37.5 -7.5t-37.5 7.5t-31 21t-21 31t-7.5 37.5t7.5 37.5t21 31t31 21t37.5 7.5t37.5 -7.5t30.5 -21t20.5 -31t7.5 -37.5zM141 875q199 96 408 96q178 0 301 -102t123 -350v-330h194
v-189h-1209v189h826v330q0 142 -70 202t-197 60t-295 -76z" />
    <glyph glyph-name="jehisolated" unicode="&#x698;" horiz-adv-x="714" arabic-form="isolated" 
d="M133 1248q0 20 7.5 37.5t21 31t31 21t37.5 7.5t37.5 -7.5t31 -21t21 -31t7.5 -37.5t-7.5 -37.5t-21 -30.5t-31 -20.5t-37.5 -7.5t-37.5 7.5t-31 20.5t-21 30.5t-7.5 37.5zM416 1248q0 20 7.5 37.5t21 31t31 21t48 7.5t58 -29t27.5 -68q0 -40 -28 -68t-58 -28t-47.5 7.5
t-31 20.5t-21 30.5t-7.5 37.5zM275 1453q0 20 7.5 37.5t20.5 31t30.5 21t37.5 7.5t37.5 -7.5t31 -21t21 -31t7.5 -37.5t-7.5 -37.5t-21 -31t-31 -21t-37.5 -7.5t-37.5 7.5t-30.5 21t-20.5 31t-7.5 37.5zM462 969v-864q-1 -134 -89 -271.5t-286 -220.5l-73 175
q166 68 230 197q27 55 28 112v872h190z" />
    <glyph glyph-name="jehfinal" unicode="&#x698;" horiz-adv-x="612" arabic-form="final" 
d="M133 1248q0 20 7.5 37.5t21 31t31 21t37.5 7.5t37.5 -7.5t31 -21t21 -31t7.5 -37.5t-7.5 -37.5t-21 -30.5t-31 -20.5t-37.5 -7.5t-37.5 7.5t-31 20.5t-21 30.5t-7.5 37.5zM416 1248q0 20 7.5 37.5t21 31t31 21t48 7.5t58 -29t27.5 -68q0 -40 -28 -68t-58 -28t-47.5 7.5
t-31 20.5t-21 30.5t-7.5 37.5zM275 1453q0 20 7.5 37.5t20.5 31t30.5 21t37.5 7.5t37.5 -7.5t31 -21t21 -31t7.5 -37.5t-7.5 -37.5t-21 -31t-31 -21t-37.5 -7.5t-37.5 7.5t-30.5 21t-20.5 31t-7.5 37.5zM461 969v-780h193v-189h-204q-39 -173 -152 -259.5t-211 -127.5
l-73 175q164 69 229 193q27 54 28 109v879h190z" />
    <glyph glyph-name="kehehisolated" unicode="&#x6a9;" horiz-adv-x="2278" arabic-form="isolated" 
d="M2138 129h-2098l560 549l44 -103q34 -80 127 -80h234l-66 -68q-44 -47 -68 -57t-73 -10h-143q-64 0 -93 16t-65 86l-70 -75q-30 -39 -30 -53t24 -34.5t52 -20.5h1468l-41 81h-723q-35 0 -65 26t-30 75q0 17 91 105l398 384q82 79 82 142q0 152 -144 152q-47 0 -105 -24
t-107 -46l296 294l100 -198q51 -101 51 -174q0 -100 -99 -194l-168 -160q-64 -61 -64 -91t10 -45l15 -38q23 -58 91 -58h463q26 0 61 -75l68 -144q33 -69 55 -94t74 -25q-46 -43 -112 -43z" />
    <glyph glyph-name="kehehfinal" unicode="&#x6a9;" horiz-adv-x="2185" arabic-form="final" 
d="M2255 129h-2215l560 549l44 -103q34 -80 127 -80h234l-66 -68q-44 -47 -68 -57t-73 -10h-143q-64 0 -93 16t-65 86l-70 -75q-30 -39 -30 -53t24 -34.5t52 -20.5h1468l-41 81h-723q-35 0 -65 26t-30 75q0 17 91 105l398 384q82 79 82 142q0 152 -144 152q-47 0 -105 -24
t-107 -46l296 294l100 -198q51 -101 51 -174q0 -100 -99 -194l-168 -160q-64 -61 -64 -91t10 -45l15 -38q23 -58 91 -58h463q26 0 61 -75l72 -156h130v-150z" />
    <glyph glyph-name="kehehinitial" unicode="&#x6a9;" horiz-adv-x="1246" arabic-form="initial" 
d="M1101 129h-1101v150h904l-41 81h-723q-36 0 -66 26t-29 75q0 17 91 105l398 384q82 79 82 142q0 152 -144 152q-48 0 -106 -24t-106 -46l296 294l100 -198q51 -101 51 -174q0 -100 -99 -194l-168 -160q-64 -61 -64 -91t10 -45l15 -38q23 -58 91 -58h463q26 0 61 -75
l68 -144q32 -71 54 -95t75 -24q-46 -43 -112 -43z" />
    <glyph glyph-name="kehehmedial" unicode="&#x6a9;" horiz-adv-x="1148" arabic-form="medial" 
d="M1218 129h-1218v150h904l-41 81h-723q-36 0 -66 26t-29 75q0 17 91 105l398 384q82 79 82 142q0 152 -144 152q-48 0 -106 -24t-106 -46l296 294l100 -198q51 -101 51 -174q0 -100 -99 -194l-168 -160q-64 -61 -64 -91t10 -45l15 -38q23 -58 91 -58h463q26 0 61 -75
l72 -156h130v-150z" />
    <glyph glyph-name="gafisolated" unicode="&#x6af;" horiz-adv-x="2278" arabic-form="isolated" 
d="M1650 1605l-577 -389l-26 39l522 470zM771 495h234l-66 -68q-44 -47 -68 -57t-73 -10h-143q-64 0 -93 16t-65 86l-70 -75q-30 -39 -30 -53t24 -34.5t52 -20.5h1468l-41 81h-723q-35 0 -65 26t-30 75q0 17 91 105l398 384q82 79 82 142q0 152 -144 152q-47 0 -105 -24
t-107 -46l296 294l100 -198q51 -101 51 -174q0 -100 -99 -194l-168 -160q-64 -61 -64 -91t10 -45l15 -38q23 -58 91 -58h463q26 0 61 -75l68 -144q33 -69 55 -94t74 -25q-26 -24 -112 -43h-2098l560 549l44 -103q34 -80 127 -80z" />
    <glyph glyph-name="gaffinal" unicode="&#x6af;" horiz-adv-x="2185" arabic-form="final" 
d="M1650 1605l-577 -389l-26 39l522 470zM2255 129h-2215l560 549l44 -103q34 -80 127 -80h234l-66 -68q-44 -47 -68 -57t-73 -10h-143q-64 0 -93 16t-65 86l-70 -75q-30 -39 -30 -53t24 -34.5t52 -20.5h1468l-41 81h-723q-35 0 -65 26t-30 75q0 17 91 105l398 384
q82 79 82 142q0 152 -144 152q-47 0 -105 -24t-107 -46l296 294l100 -198q51 -101 51 -174q0 -100 -99 -194l-168 -160q-64 -61 -64 -91t10 -45l15 -38q23 -58 91 -58h463q26 0 61 -75l72 -156h130v-150z" />
    <glyph glyph-name="gafinitial" unicode="&#x6af;" horiz-adv-x="1246" arabic-form="initial" 
d="M613 1605l-577 -389l-26 39l522 470zM1101 129h-1101v150h904l-41 81h-723q-36 0 -66 26t-29 75q0 17 91 105l398 384q82 79 82 142q0 152 -144 152q-48 0 -106 -24t-106 -46l296 294l100 -198q51 -101 51 -174q0 -100 -99 -194l-168 -160q-64 -61 -64 -91t10 -45l15 -38
q23 -58 91 -58h463q26 0 61 -75l68 -144q32 -71 54 -95t75 -24q-46 -43 -112 -43z" />
    <glyph glyph-name="gafmedial" unicode="&#x6af;" horiz-adv-x="1148" arabic-form="medial" 
d="M613 1605l-577 -389l-26 39l522 470zM1218 129h-1218v150h904l-41 81h-723q-36 0 -66 26t-29 75q0 17 91 105l398 384q82 79 82 142q0 152 -144 152q-48 0 -106 -24t-106 -46l296 294l100 -198q51 -101 51 -174q0 -100 -99 -194l-168 -160q-64 -61 -64 -91t10 -45l15 -38
q23 -58 91 -58h463q26 0 61 -75l72 -156h130v-150z" />
    <glyph glyph-name="farsiyehisolated" unicode="&#x6cc;" horiz-adv-x="1380" arabic-form="isolated" 
d="M1198 253q-88 0 -141 22q-71 28 -115 115l-46 92q-36 70 -58 70t-62 -38l-90 -86q-40 -38 -40 -67t11 -37t51 -28l162 -76q86 -40 86 -116q0 -52 -67 -116l-205 -197q-62 -60 -112 -60t-109 59l-329 329q-64 64 -64 88q0 42 50 90l188 182l-46 -82q-34 -63 -34 -89
t57 -83l271 -272q68 -68 86 -68t77 58l50 48q27 26 27 46q0 45 -49 69l-188 91q-45 22 -63 42t-18 63t100 140l431 418q-14 -46 -14 -80t43 -120l122 -244q60 -121 190 -139q-20 -7 -42 -15t-110 -9z" />
    <glyph glyph-name="farsiyehfinal" unicode="&#x6cc;" horiz-adv-x="1280" arabic-form="final" 
d="M1350 129h-167q-111 0 -165 109l-122 244q-36 70 -58 70t-62 -38l-90 -86q-40 -38 -40 -67t11 -37t51 -28l162 -76q86 -40 86 -116q0 -52 -67 -116l-205 -197q-62 -60 -112 -60t-109 59l-329 329q-64 64 -64 88q0 42 50 90l188 182l-46 -82q-34 -63 -34 -89t57 -83
l271 -272q68 -68 86 -68t77 58l50 48q27 26 27 46q0 45 -49 69l-188 91q-45 22 -63 42t-18 63t100 140l431 418q-14 -46 -14 -80t43 -120l152 -304q39 -77 113 -77h47v-150z" />
    <glyph glyph-name="fathatanisolated" unicode="&#xfe70;" horiz-adv-x="583" arabic-form="isolated" 
d="M518 1419h-462v72h462v-72zM518 1275h-462v72h462v-72z" />
    <glyph glyph-name="dammatanisolated" unicode="&#xfe72;" horiz-adv-x="576" arabic-form="isolated" 
d="M403 1572q-8 36 -40 36t-43 -29t9 -51q19 -23 62 -23q16 34 12 67zM232 1300q-25 0 -45 40l-27 73l-49 -69l-58 43l68 94q21 31 49 28q28 -4 44 -38v-1l36 -92q54 19 97 59q-46 11 -77 51t-25 81q10 71 63 98t105 0q51 -27 60 -84q6 -33 -4 -70q27 6 35 8l18 -70
q-56 -13 -86 -16q-11 -17 -28 -37q-71 -76 -119.5 -87t-56.5 -11z" />
    <glyph glyph-name="kasratanisolated" unicode="&#xfe74;" horiz-adv-x="583" arabic-form="isolated" 
d="M518 -297h-462v72h462v-72zM518 -441h-462v72h462v-72z" />
    <glyph glyph-name="fathaisolated" unicode="&#xfe76;" horiz-adv-x="583" arabic-form="isolated" 
d="M522 1250h-462v72h462v-72z" />
    <glyph glyph-name="dammaisolated" unicode="&#xfe78;" horiz-adv-x="511" arabic-form="isolated" 
d="M220 1484q-13 -34 14 -51.5t30 -17.5h29q26 64 6.5 83.5t-43.5 19.5q-23 0 -36 -34zM371 1423l35 8l17 -70q-52 -13 -86 -16q-46 -73 -107.5 -99t-108.5 -37l-17 69q98 26 144 69q-45 11 -77 51t-25 81q18 109 80.5 110t86.5 -11q53 -28 62 -85q6 -33 -4 -70z" />
    <glyph glyph-name="kasraisolated" unicode="&#xfe7a;" horiz-adv-x="583" arabic-form="isolated" 
d="M525 -306h-462v72h462v-72z" />
    <glyph glyph-name="shaddaisolated" unicode="&#xfe7c;" horiz-adv-x="551" arabic-form="isolated" 
d="M142 1324q-42 0 -72 30t-30 73v126h72v-116q0 -17 12 -29t29 -12h84v157h72v-157h80q17 0 29 12t12 29v116h71v-126q0 -42 -29 -72.5t-73 -30.5h-257z" />
    <glyph glyph-name="sukunisolated" unicode="&#xfe7e;" horiz-adv-x="326" arabic-form="isolated" 
d="M156 1531q-28 0 -53.5 -25.5t-25.5 -61.5t25.5 -61.5t53.5 -25.5t43 7t26.5 18.5t18.5 27.5t7 34t-7 34t-18.5 27.5t-26.5 18.5t-43 7zM165 1285q-33 0 -62 12.5t-50.5 34.5t-34 50.5t-12.5 61.5t12.5 62t34 50.5t50.5 34t62 12.5t61.5 -12.5t50 -34t34 -50.5t12.5 -62
t-12.5 -61.5t-34 -50.5t-50 -34.5t-61.5 -12.5z" />
    <glyph glyph-name="hamzaisolated" unicode="&#x621;" horiz-adv-x="1147" arabic-form="isolated" 
d="M323 189q-76 135 -76 301t103.5 288.5t316.5 126.5h202v-189h-197q-113 -8 -174 -77.5t-61 -169.5t47.5 -190t112.5 -90h445v-189h-937v189h218z" />
    <glyph glyph-name="alefwithmaddaaboveisolated" unicode="&#x622;" horiz-adv-x="399" arabic-form="isolated" 
d="M294 1345v-1345h-189v1345h189zM271 1443q-37 0 -77.5 21t-66 20t-65.5 -46l-50 69q58 64 80.5 70.5t44.5 6.5t46 -13t63 -27t87 47l50 -69q-49 -79 -112 -79z" />
    <glyph glyph-name="alefwithmaddaabovefinal" unicode="&#x622;" horiz-adv-x="463" arabic-form="final" 
d="M295 1345v-1035q0 -50 35.5 -85.5t85.5 -35.5h89v-189h-89q-129 0 -220 91t-91 219v1035h190zM270 1443q-37 0 -77.5 21t-66 20t-65.5 -46l-50 69q58 64 80.5 70.5t44.5 6.5t46 -13t63 -27t87 47l50 -69q-49 -79 -112 -79z" />
    <glyph glyph-name="alefwithhamzaaboveisolated" unicode="&#x623;" horiz-adv-x="399" arabic-form="isolated" 
d="M181 1564.5q11 -25.5 28 -25.5h142v-94h-308v94h49q-16 40 -16 75q0 71 38 116t119 47h81v-95l-128 -20q-16 -20 -16 -46t11 -51.5zM294 1345v-1345h-189v1345h189z" />
    <glyph glyph-name="alefwithhamzaabovefinal" unicode="&#x623;" horiz-adv-x="463" arabic-form="final" 
d="M187 1564.5q11 -25.5 28 -25.5h142v-94h-308v94h49q-16 40 -16 75q0 71 38 116t119 47h81v-95l-128 -20q-16 -20 -16 -46t11 -51.5zM295 1345v-1035q0 -50 35.5 -85.5t85.5 -35.5h89v-189h-89q-129 0 -220 91t-91 219v1035h190z" />
    <glyph glyph-name="wawwithhamzaaboveisolated" unicode="&#x624;" horiz-adv-x="1087" arabic-form="isolated" 
d="M493 1237.5q11 -25.5 28 -25.5h142v-94h-308v94h49q-16 40 -16 75q0 71 38 116t119 47h81v-95l-128 -21q-16 -20 -16 -45q0 -26 11 -51.5zM791 189v337q0 103 -73.5 178t-176 75t-174.5 -75.5t-72 -182.5v-214q0 -48 35 -83t83 -35h378zM246 -187h298q133 0 181.5 73
t58.5 114h-371q-126 0 -217 89.5t-91 217.5v214q0 185 128 316.5t308 131.5t310 -131.5t130 -311.5v-465q0 -181 -128 -309t-309 -128h-298v189z" />
    <glyph glyph-name="wawwithhamzaabovefinal" unicode="&#x624;" horiz-adv-x="1131" arabic-form="final" 
d="M493 1237.5q11 -25.5 28 -25.5h142v-94h-308v94h49q-16 40 -16 75q0 71 38 116t119 47h81v-95l-128 -21q-16 -20 -16 -45q0 -26 11 -51.5zM790 189v337q0 103 -73 178t-176 75t-175 -75.5t-72 -182.5v-214q0 -48 35 -83t83 -35h378zM245 -187h298q133 0 181.5 73
t58.5 114h-371q-126 0 -216.5 89t-90.5 218v214q0 185 128 316.5t308 131.5q179 0 309 -131.5t130 -311.5v-337h193v-189h-197q-22 -160 -145 -268t-288 -108h-298v189z" />
    <glyph glyph-name="alefwithhamzabelowisolated" unicode="&#x625;" horiz-adv-x="399" arabic-form="isolated" 
d="M188 -312.5q11 -25.5 28 -25.5h142v-94h-308v94h49q-16 40 -16 75q0 71 38 116t119 47h81v-95l-129 -21q-16 -20 -15 -45q0 -26 11 -51.5zM294 1345v-1345h-189v1345h189z" />
    <glyph glyph-name="alefwithhamzabelowfinal" unicode="&#x625;" horiz-adv-x="463" arabic-form="final" 
d="M336 -100v-95l-128 -21q-16 -20 -16 -38q0 -33 11 -58.5t28 -25.5h142v-94h-308v94h49q-16 40 -16 75q0 71 38 116t119 47h81zM295 1345v-1035q0 -50 35.5 -85.5t85.5 -35.5h89v-189h-89q-129 0 -220 91t-91 219v1035h190z" />
    <glyph glyph-name="yehwithhamzaaboveisolated" unicode="&#x626;" horiz-adv-x="1267" arabic-form="isolated" 
d="M243 1011.5q11 -25.5 28 -25.5h142v-94h-308v94h49q-16 40 -16 75q0 71 38 116t119 47h81v-95l-128 -21q-16 -20 -16 -45q0 -26 11 -51.5zM1105 779h-246q-51 0 -86.5 -35.5t-35.5 -87.5v-246h118q149 0 228 -91.5t79 -225.5q0 -133 -43 -217t-113 -140t-159.5 -84
t-236 -28t-294.5 117t-148 328v723h189v-723q0 -121 91 -188.5t216 -67.5t217 69t92 189q0 66 -29.5 108t-88.5 42h-308v435q0 130 91.5 221.5t220.5 91.5h246v-190z" />
    <glyph glyph-name="yehwithhamzaabovefinal" unicode="&#x626;" horiz-adv-x="1207" arabic-form="final" 
d="M243 1011.5q11 -25.5 28 -25.5h142v-94h-308v94h49q-16 40 -16 75q0 71 38 116t119 47h81v-95l-128 -21q-16 -20 -16 -45q0 -26 11 -51.5zM1249 0h-92q-25 -179 -167 -278t-334 -99t-340 117t-148 328v724h190v-724q0 -121 91 -188.5t215 -67.5q165 0 225.5 70.5
t74.5 117.5h-337v189h622v-189z" />
    <glyph glyph-name="yehwithhamzaaboveinitial" unicode="&#x626;" horiz-adv-x="623" arabic-form="initial" 
d="M348 1238.5q11 -25.5 28 -25.5h142v-94h-308v94h49q-16 40 -16 75q0 71 38 116t119 47h81v-95l-129 -20q-16 -20 -15 -46q0 -26 11 -51.5zM471 969v-658q0 -130 -92 -220.5t-219 -90.5h-202v189h202q51 0 86.5 35.5t35.5 86.5v658h189z" />
    <glyph glyph-name="yehwithhamzaabovemedial" unicode="&#x626;" horiz-adv-x="623" arabic-form="medial" 
d="M348 1238.5q11 -25.5 28 -25.5h142v-94h-308v94h49q-16 40 -16 75q0 71 38 116t119 47h81v-95l-129 -20q-16 -20 -15 -46q0 -26 11 -51.5zM471 969v-780h194v-189h-707v189h324v780h189z" />
    <glyph glyph-name="alefisolated" unicode="&#x627;" horiz-adv-x="399" arabic-form="isolated" 
d="M294 1345v-1345h-189v1345h189z" />
    <glyph glyph-name="aleffinal" unicode="&#x627;" horiz-adv-x="463" arabic-form="final" 
d="M295 1345v-1035q0 -50 35.5 -85.5t85.5 -35.5h89v-189h-89q-127 0 -219 90.5t-92 219.5v1035h190z" />
    <glyph glyph-name="behisolated" unicode="&#x628;" horiz-adv-x="1423" arabic-form="isolated" 
d="M616 -268q0 30 28 58t58 28t47.5 -7.5t31 -20.5t21 -30.5t7.5 -37.5t-7.5 -37.5t-21 -31t-31 -21t-37.5 -7.5t-37.5 7.5t-30.5 21t-20.5 31t-7.5 47.5zM1318 969v-658q0 -130 -90.5 -220.5t-218.5 -90.5h-463q-182 0 -311.5 128t-129.5 311v353h190v-353q0 -104 73 -177
t178 -73h463q51 0 85.5 36t34.5 86v658h189z" />
    <glyph glyph-name="behfinal" unicode="&#x628;" horiz-adv-x="1470" arabic-form="final" 
d="M616 -268q0 30 28 58t58 28t47.5 -7.5t31 -20.5t21 -30.5t7.5 -37.5t-7.5 -37.5t-21 -31t-31 -21t-37.5 -7.5t-37.5 7.5t-30.5 21t-20.5 31t-7.5 47.5zM1319 969v-780h193v-189h-967q-181 0 -310.5 128t-129.5 311v353h190v-353q0 -104 73 -177t177 -73h584v780h190z" />
    <glyph glyph-name="behinitial" unicode="&#x628;" horiz-adv-x="576" arabic-form="initial" 
d="M471 969v-658q0 -129 -91 -220t-219 -91h-203v189h203q50 0 85.5 35.5t35.5 86.5v658h189zM306 -209.5q29 27.5 68 27.5q40 0 68 -28t28 -58t-7.5 -47.5t-20.5 -31t-30.5 -21t-37.5 -7.5t-37.5 7.5t-38.5 28.5t-21 61.5t29 68z" />
    <glyph glyph-name="behmedial" unicode="&#x628;" horiz-adv-x="623" arabic-form="medial" 
d="M471 969v-780h194v-189h-707v189h324v780h189zM237 -209.5q29 27.5 68 27.5q40 0 68 -28t28 -58t-7.5 -47.5t-20.5 -31t-30.5 -21t-37.5 -7.5t-37.5 7.5t-38.5 28.5t-21 61.5t29 68z" />
    <glyph glyph-name="tehmarbutaisolated" unicode="&#x629;" horiz-adv-x="1078" arabic-form="isolated" 
d="M300 1248q0 20 7.5 37.5t21 31t31 21t37.5 7.5t37.5 -7.5t31 -21t21 -31t7.5 -37.5t-7.5 -37.5t-21 -30.5t-31 -20.5t-37.5 -7.5t-37.5 7.5t-31 20.5t-21 30.5t-7.5 37.5zM583 1248q0 20 7.5 37.5t21 31t31 21t48 7.5t58 -29t27.5 -68q0 -40 -28 -68t-58 -28t-47.5 7.5
t-31 20.5t-21 30.5t-7.5 37.5zM105 526q0 184 127.5 313.5t305.5 129.5t306 -130t128 -309v-217q0 -138 -89.5 -225.5t-222.5 -87.5h-244q-135 0 -223 86t-88 223v217zM295 309q0 -54 35 -87t86 -33h244q52 0 87.5 34t35.5 90v217q0 102 -72 175.5t-173 73.5
q-100 0 -171.5 -73.5t-71.5 -179.5v-217z" />
    <glyph glyph-name="tehmarbutafinal" unicode="&#x629;" horiz-adv-x="1131" arabic-form="final" 
d="M309 1248q0 20 7.5 37.5t21 31t31 21t37.5 7.5t37.5 -7.5t31 -21t21 -31t7.5 -37.5t-7.5 -37.5t-21 -30.5t-31 -20.5t-37.5 -7.5t-37.5 7.5t-31 20.5t-21 30.5t-7.5 37.5zM592 1248q0 20 7.5 37.5t21 31t31 21t48 7.5t58 -29t27.5 -68q0 -40 -28 -68t-58 -28t-47.5 7.5
t-31 20.5t-21 30.5t-7.5 37.5zM1173 189v-189h-383v527q2 101 -72 176.5t-177 75.5t-175 -75.5t-72 -182.5v-213q0 -49 35 -84t84 -35h207v-189h-207q-128 0 -218 90t-90 218v213q0 185 128 316.5t308.5 131.5t310.5 -131.5t128 -310.5v-338h193z" />
    <glyph glyph-name="tehisolated" unicode="&#x62a;" horiz-adv-x="1423" arabic-form="isolated" 
d="M474 1248q0 20 7.5 37.5t21 31t31 21t37.5 7.5t37.5 -7.5t31 -21t21 -31t7.5 -37.5t-7.5 -37.5t-21 -30.5t-31 -20.5t-37.5 -7.5t-37.5 7.5t-31 20.5t-21 30.5t-7.5 37.5zM757 1248q0 20 7.5 37.5t21 31t31 21t48 7.5t58 -29t27.5 -68q0 -40 -28 -68t-58 -28t-47.5 7.5
t-31 20.5t-21 30.5t-7.5 37.5zM1318 969v-658q0 -130 -90.5 -220.5t-218.5 -90.5h-463q-182 0 -311.5 128t-129.5 311v353h190v-353q0 -104 73 -177t178 -73h463q51 0 85.5 36t34.5 86v658h189z" />
    <glyph glyph-name="tehfinal" unicode="&#x62a;" horiz-adv-x="1470" arabic-form="final" 
d="M475 1238q0 30 7.5 47.5t20.5 31t30.5 21t37.5 7.5t37.5 -7.5t31 -21t21 -31t7.5 -48t-29 -58t-68 -27.5q-40 0 -68 28t-28 58zM757 1248q0 20 7.5 37.5t21 31t31 21t48 7.5t58 -29t27.5 -68q0 -40 -28 -68t-58 -28t-47.5 7.5t-31 20.5t-21 30.5t-7.5 37.5zM1319 969
v-780h193v-189h-967q-181 0 -310.5 128t-129.5 311v353h190v-353q0 -104 73 -177t177 -73h584v780h190z" />
    <glyph glyph-name="tehinitial" unicode="&#x62a;" horiz-adv-x="579" arabic-form="initial" 
d="M-1 1238q0 30 7.5 47.5t20.5 31t30.5 21t37.5 7.5t37.5 -7.5t31 -21t21 -31t7.5 -48t-29 -58t-68 -27.5q-40 0 -68 28t-28 58zM281 1248q0 20 7.5 37.5t21 31t31 21t48 7.5t58 -29t27.5 -68q0 -40 -28 -68t-58 -28t-47.5 7.5t-31 20.5t-21 30.5t-7.5 37.5zM471 969v-658
q0 -129 -91 -220t-219 -91h-203v189h203q50 0 85.5 35.5t35.5 86.5v658h189z" />
    <glyph glyph-name="tehmedial" unicode="&#x62a;" horiz-adv-x="624" arabic-form="medial" 
d="M-2 1238q0 30 7.5 47.5t20.5 31t30.5 21t37.5 7.5t37.5 -7.5t31 -21t21 -31t7.5 -48t-29 -58t-68 -27.5q-40 0 -68 28t-28 58zM280 1248q0 20 7.5 37.5t21 31t31 21t48 7.5t58 -29t27.5 -68q0 -40 -28 -68t-58 -28t-47.5 7.5t-31 20.5t-21 30.5t-7.5 37.5zM472 969v-780
h194v-189h-707v189h324v780h189z" />
    <glyph glyph-name="thehisolated" unicode="&#x62b;" horiz-adv-x="1423" arabic-form="isolated" 
d="M474 1248q0 20 7.5 37.5t21 31t31 21t37.5 7.5t37.5 -7.5t31 -21t21 -31t7.5 -37.5t-7.5 -37.5t-21 -30.5t-31 -20.5t-37.5 -7.5t-37.5 7.5t-31 20.5t-21 30.5t-7.5 37.5zM757 1248q0 20 7.5 37.5t21 31t31 21t48 7.5t58 -29t27.5 -68q0 -40 -28 -68t-58 -28t-47.5 7.5
t-31 20.5t-21 30.5t-7.5 37.5zM616 1453q0 20 7.5 37.5t20.5 31t30.5 21t37.5 7.5t37.5 -7.5t31 -21t21 -31t7.5 -37.5t-7.5 -37.5t-21 -31t-31 -21t-37.5 -7.5t-37.5 7.5t-30.5 21t-20.5 31t-7.5 37.5zM1318 969v-658q0 -130 -90.5 -220.5t-218.5 -90.5h-463
q-182 0 -311.5 128t-129.5 311v353h190v-353q0 -104 73 -177t178 -73h463q51 0 85.5 36t34.5 86v658h189z" />
    <glyph glyph-name="thehfinal" unicode="&#x62b;" horiz-adv-x="1470" arabic-form="final" 
d="M472 1248q0 20 7.5 37.5t21 31t31 21t37.5 7.5t37.5 -7.5t31 -21t21 -31t7.5 -37.5t-7.5 -37.5t-21 -30.5t-31 -20.5t-37.5 -7.5t-37.5 7.5t-31 20.5t-21 30.5t-7.5 37.5zM755 1248q0 20 7.5 37.5t21 31t31 21t48 7.5t58 -29t27.5 -68q0 -40 -28 -68t-58 -28t-47.5 7.5
t-31 20.5t-21 30.5t-7.5 37.5zM614 1453q0 20 7.5 37.5t20.5 31t30.5 21t37.5 7.5t37.5 -7.5t31 -21t21 -31t7.5 -37.5t-7.5 -37.5t-21 -31t-31 -21t-37.5 -7.5t-37.5 7.5t-30.5 21t-20.5 31t-7.5 37.5zM1319 969v-780h193v-189h-967q-181 0 -310.5 128t-129.5 311v353h190
v-353q0 -104 73 -177t177 -73h584v780h190z" />
    <glyph glyph-name="thehinitial" unicode="&#x62b;" horiz-adv-x="579" arabic-form="initial" 
d="M-2 1248q0 20 7.5 37.5t21 31t31 21t37.5 7.5t37.5 -7.5t31 -21t21 -31t7.5 -37.5t-7.5 -37.5t-21 -30.5t-31 -20.5t-37.5 -7.5t-37.5 7.5t-31 20.5t-21 30.5t-7.5 37.5zM281 1248q0 20 7.5 37.5t21 31t31 21t48 7.5t58 -29t27.5 -68q0 -40 -28 -68t-58 -28t-47.5 7.5
t-31 20.5t-21 30.5t-7.5 37.5zM140 1453q0 20 7.5 37.5t20.5 31t30.5 21t37.5 7.5t37.5 -7.5t31 -21t21 -31t7.5 -37.5t-7.5 -37.5t-21 -31t-31 -21t-37.5 -7.5t-37.5 7.5t-30.5 21t-20.5 31t-7.5 37.5zM471 969v-658q0 -129 -91 -220t-219 -91h-203v189h203q50 0 85.5 35.5
t35.5 86.5v658h189z" />
    <glyph glyph-name="thehmedial" unicode="&#x62b;" horiz-adv-x="623" arabic-form="medial" 
d="M-4 1248q0 20 7.5 37.5t21 31t31 21t37.5 7.5t37.5 -7.5t31 -21t21 -31t7.5 -37.5t-7.5 -37.5t-21 -30.5t-31 -20.5t-37.5 -7.5t-37.5 7.5t-31 20.5t-21 30.5t-7.5 37.5zM279 1248q0 20 7.5 37.5t21 31t31 21t48 7.5t58 -29t27.5 -68q0 -40 -28 -68t-58 -28t-47.5 7.5
t-31 20.5t-21 30.5t-7.5 37.5zM138 1453q0 20 7.5 37.5t20.5 31t30.5 21t37.5 7.5t37.5 -7.5t31 -21t21 -31t7.5 -37.5t-7.5 -37.5t-21 -31t-31 -21t-37.5 -7.5t-37.5 7.5t-30.5 21t-20.5 31t-7.5 37.5zM471 969v-780h194v-189h-707v189h324v780h189z" />
    <glyph glyph-name="jeemisolated" unicode="&#x62c;" horiz-adv-x="1065" arabic-form="isolated" 
d="M796 -209.5q29 27.5 68 27.5q40 0 68 -28t28 -58t-7.5 -47.5t-20.5 -31t-30.5 -21t-37.5 -7.5t-37.5 7.5t-38.5 28.5t-21 61.5t29 68zM129 875q199 96 407 96q178 0 301 -102t123 -350v-212q0 -126 -90.5 -216.5t-220.5 -90.5h-274q-37 0 -58.5 -27t-21.5 -54
q0 -48 21 -76.5t59 -28.5h265v-189h-265q-127 0 -198.5 84t-71.5 198.5t71 198t199 83.5h274q50 0 86 34.5t36 83.5v212q0 142 -70 202t-197 60t-294 -76z" />
    <glyph glyph-name="jeemfinal" unicode="&#x62c;" horiz-adv-x="1113" arabic-form="final" 
d="M767 -278q0 20 7.5 37.5t21 30.5t31 20.5t37.5 7.5t37.5 -7.5t31 -20.5t21 -30.5t7.5 -37.5t-7.5 -37.5t-21 -31t-31 -21t-37.5 -7.5t-37.5 7.5t-31 21t-21 31t-7.5 37.5zM524 971q56 0 109 -8.5t191 -66t138 -377.5v-330h193v-189h-780q-37 0 -58.5 -27t-21.5 -54
q0 -48 21 -76.5t59 -28.5h265v-189h-265q-127 0 -198.5 84t-71.5 198.5t71 198t199 83.5h397v330q0 142 -70 202t-197 60t-294 -76l-82 170q123 59 231 77.5t164 18.5z" />
    <glyph glyph-name="jeeminitial" unicode="&#x62c;" horiz-adv-x="1075" arabic-form="initial" 
d="M441 -268q0 30 28.5 58t68.5 28t68 -28t28 -58t-7.5 -47.5t-20.5 -31t-30.5 -21t-37.5 -7.5t-38 7.5t-31 21t-20.5 31t-7.5 47.5zM138 875q199 96 408 96q178 0 301 -102t123 -350v-212q0 -127 -91.5 -217t-220.5 -90h-700v189h700q50 0 86.5 34.5t36.5 83.5v212
q0 142 -70 202t-197 60t-295 -76z" />
    <glyph glyph-name="jeemmedial" unicode="&#x62c;" horiz-adv-x="1125" arabic-form="medial" 
d="M469 -209.5q29 27.5 68 27.5q40 0 68 -28t28 -58t-7.5 -47.5t-20.5 -31t-30.5 -21t-37.5 -7.5t-37.5 7.5t-38.5 28.5t-21 61.5t29 68zM141 875q199 96 408 96q178 0 301 -102t123 -350v-330h194v-189h-1209v189h826v330q0 142 -70 202t-197 60t-295 -76z" />
    <glyph glyph-name="hahisolated" unicode="&#x62d;" horiz-adv-x="1065" arabic-form="isolated" 
d="M129 875q199 96 407 96q178 0 301 -102t123 -350v-212q0 -126 -90.5 -216.5t-220.5 -90.5h-274q-37 0 -58.5 -27t-21.5 -54q0 -48 21 -76.5t59 -28.5h396v-189h-396q-127 0 -198.5 84t-71.5 198.5t71 198t199 83.5h274q50 0 86 34.5t36 83.5v212q0 142 -70 202t-197 60
t-294 -76z" />
    <glyph glyph-name="hahfinal" unicode="&#x62d;" horiz-adv-x="1113" arabic-form="final" 
d="M524 971q56 0 109 -8.5t191 -66t138 -377.5v-330h193v-189h-780q-37 0 -58.5 -27t-21.5 -54q0 -48 21 -76.5t59 -28.5h396v-189h-396q-127 0 -198.5 84t-71.5 198.5t71 198t199 83.5h397v330q0 142 -70 202t-197 60t-294 -76l-82 170q123 59 231 77.5t164 18.5z" />
    <glyph glyph-name="hahinitial" unicode="&#x62d;" horiz-adv-x="1075" arabic-form="initial" 
d="M138 875q199 96 408 96q178 0 301 -102t123 -350v-212q0 -127 -91.5 -217t-220.5 -90h-700v189h700q50 0 86.5 34.5t36.5 83.5v212q0 142 -70 202t-197 60t-295 -76z" />
    <glyph glyph-name="hahmedial" unicode="&#x62d;" horiz-adv-x="1125" arabic-form="medial" 
d="M141 875q199 96 408 96q178 0 301 -102t123 -350v-330h194v-189h-1209v189h826v330q0 142 -70 202t-197 60t-295 -76z" />
    <glyph glyph-name="khahisolated" unicode="&#x62e;" horiz-adv-x="1065" arabic-form="isolated" 
d="M427 1248q0 20 7.5 37.5t21 31t31 21t48 7.5t58 -29t27.5 -68q0 -40 -28 -68t-58 -28t-47.5 7.5t-31 20.5t-21 30.5t-7.5 37.5zM129 875q199 96 407 96q178 0 301 -102t123 -350v-212q0 -126 -90.5 -216.5t-220.5 -90.5h-274q-37 0 -58.5 -27t-21.5 -54q0 -48 21 -76.5
t59 -28.5h397v-189h-397q-127 0 -198.5 84t-71.5 198.5t71 198t199 83.5h274q50 0 86 34.5t36 83.5v212q0 142 -70 202t-197 60t-294 -76z" />
    <glyph glyph-name="khahfinal" unicode="&#x62e;" horiz-adv-x="1113" arabic-form="final" 
d="M427 1248q0 20 7.5 37.5t21 31t31 21t37.5 7.5t37.5 -7.5t31 -21t21 -31t7.5 -37.5t-7.5 -37.5t-21 -30.5t-31 -20.5t-37.5 -7.5t-37.5 7.5t-31 20.5t-21 30.5t-7.5 37.5zM524 971q56 0 109 -8.5t191 -66t138 -377.5v-330h193v-189h-780q-37 0 -58.5 -27t-21.5 -54
q0 -48 21 -76.5t59 -28.5h396v-189h-396q-127 0 -198.5 84t-71.5 198.5t71 198t199 83.5h397v330q0 142 -70 202t-197 60t-294 -76l-82 170q123 59 231 77.5t164 18.5z" />
    <glyph glyph-name="khahinitial" unicode="&#x62e;" horiz-adv-x="1075" arabic-form="initial" 
d="M436 1248q0 20 7.5 37.5t21 31t31 21t48 7.5t58 -29t27.5 -68q0 -40 -28 -68t-58 -28t-47.5 7.5t-31 20.5t-21 30.5t-7.5 37.5zM138 875q199 96 408 96q178 0 301 -102t123 -350v-212q0 -127 -91.5 -217t-220.5 -90h-700v189h700q50 0 86.5 34.5t36.5 83.5v212
q0 142 -70 202t-197 60t-295 -76z" />
    <glyph glyph-name="khahmedial" unicode="&#x62e;" horiz-adv-x="1125" arabic-form="medial" 
d="M438 1248q0 20 7.5 37.5t21 31t31 21t48 7.5t58 -29t27.5 -68q0 -40 -28 -68t-58 -28t-47.5 7.5t-31 20.5t-21 30.5t-7.5 37.5zM141 875q199 96 408 96q178 0 301 -102t123 -350v-330h194v-189h-1209v189h826v330q0 142 -70 202t-197 60t-295 -76z" />
    <glyph glyph-name="dalisolated" unicode="&#x62f;" horiz-adv-x="913" arabic-form="isolated" 
d="M159 970q500 0 574.5 -171t74.5 -280v-212q0 -128 -91.5 -217.5t-221.5 -89.5h-390v189h390q50 0 86.5 34.5t36.5 83.5v212q0 261 -459 261v190z" />
    <glyph glyph-name="dalfinal" unicode="&#x62f;" horiz-adv-x="959" arabic-form="final" 
d="M159 970q500 0 574.5 -171t74.5 -280v-330h193v-189h-896v189h514v330q0 261 -460 261v190z" />
    <glyph glyph-name="thalisolated" unicode="&#x630;" horiz-adv-x="913" arabic-form="isolated" 
d="M392 1248q0 20 7.5 37.5t21 31t31 21t48 7.5t58 -29t27.5 -68q0 -40 -28 -68t-58 -28t-47.5 7.5t-31 20.5t-21 30.5t-7.5 37.5zM159 970q500 0 574.5 -171t74.5 -280v-212q0 -128 -91.5 -217.5t-221.5 -89.5h-390v189h390q50 0 86.5 34.5t36.5 83.5v212q0 261 -459 261
v190z" />
    <glyph glyph-name="thalfinal" unicode="&#x630;" horiz-adv-x="959" arabic-form="final" 
d="M392 1248q0 20 7.5 37.5t21 31t31 21t48 7.5t58 -29t27.5 -68q0 -40 -28 -68t-58 -28t-47.5 7.5t-31 20.5t-21 30.5t-7.5 37.5zM159 970q500 0 574.5 -171t74.5 -280v-330h193v-189h-896v189h514v330q0 261 -460 261v190z" />
    <glyph glyph-name="rehisolated" unicode="&#x631;" horiz-adv-x="568" arabic-form="isolated" 
d="M462 969v-864q-1 -134 -89 -271.5t-286 -220.5l-73 175q166 68 230 197q27 55 28 112v872h190z" />
    <glyph glyph-name="rehfinal" unicode="&#x631;" horiz-adv-x="612" arabic-form="final" 
d="M461 969v-780h193v-189h-204q-39 -173 -152 -259.5t-211 -127.5l-73 175q164 69 229 193q27 54 28 109v879h190z" />
    <glyph glyph-name="zainisolated" unicode="&#x632;" horiz-adv-x="568" arabic-form="isolated" 
d="M462 969v-864q-1 -134 -89 -271.5t-286 -220.5l-73 175q166 68 230 197q27 55 28 112v872h190zM268 1248q0 20 7.5 37.5t21 31t31 21t37.5 7.5t37.5 -7.5t31 -21t21 -31t7.5 -37.5t-7.5 -37.5t-21 -30.5t-31 -20.5t-37.5 -7.5t-37.5 7.5t-31 20.5t-21 30.5t-7.5 37.5z
" />
    <glyph glyph-name="zainfinal" unicode="&#x632;" horiz-adv-x="612" arabic-form="final" 
d="M461 969v-780h193v-189h-204q-39 -173 -152 -259.5t-211 -127.5l-73 175q164 69 229 193q27 54 28 109v879h190zM268 1238q0 30 7.5 47.5t20.5 31t30.5 21t37.5 7.5t37.5 -7.5t31 -21t21 -31t7.5 -48t-29 -58t-68 -27.5q-40 0 -68 28t-28 58z" />
    <glyph glyph-name="seenisolated" unicode="&#x633;" horiz-adv-x="2068" arabic-form="isolated" 
d="M1532 969v-780h119q49 0 86 33.5t37 83.5v663h189v-663q0 -127 -91.5 -216.5t-220.5 -89.5h-557q-23 -177 -165 -276t-337 -99q-194 0 -340.5 116t-146.5 321v730h190v-730q0 -117 91 -182.5t216 -65.5t216 65.5t91 182.5v907h191v-780h242v780h190z" />
    <glyph glyph-name="seenfinal" unicode="&#x633;" horiz-adv-x="2114" arabic-form="final" 
d="M1532 969v-780h242v780h189v-780h193v-189h-1061q-23 -177 -165 -276t-337 -99q-194 0 -341 115.5t-147 321.5v730h190v-730q0 -117 90.5 -182.5t216.5 -65.5t217 65.5t91 182.5v907h190v-780h242v780h190z" />
    <glyph glyph-name="seeninitial" unicode="&#x633;" horiz-adv-x="1471" arabic-form="initial" 
d="M933 969v-780h120q50 0 86.5 34.5t36.5 83.5v662h190v-662q0 -128 -91.5 -217.5t-221.5 -89.5h-1095v189h354v780h189v-780h243v780h189z" />
    <glyph glyph-name="seenmedial" unicode="&#x633;" horiz-adv-x="1517" arabic-form="medial" 
d="M1366 969v-780h193v-189h-1601v189h353v780h189v-780h243v780h189v-780h245v780h189z" />
    <glyph glyph-name="sheenisolated" unicode="&#x634;" horiz-adv-x="2068" arabic-form="isolated" 
d="M1202 1248q0 20 7.5 37.5t21 31t31 21t37.5 7.5t37.5 -7.5t31 -21t21 -31t7.5 -37.5t-7.5 -37.5t-21 -30.5t-31 -20.5t-37.5 -7.5t-37.5 7.5t-31 20.5t-21 30.5t-7.5 37.5zM1485 1248q0 20 7.5 37.5t21 31t31 21t48 7.5t58 -29t27.5 -68q0 -40 -28 -68t-58 -28t-47.5 7.5
t-31 20.5t-21 30.5t-7.5 37.5zM1344 1453q0 20 7.5 37.5t20.5 31t30.5 21t37.5 7.5t37.5 -7.5t31 -21t21 -31t7.5 -37.5t-7.5 -37.5t-21 -31t-31 -21t-37.5 -7.5t-37.5 7.5t-30.5 21t-20.5 31t-7.5 37.5zM1532 969v-780h119q49 0 86 33.5t37 83.5v663h189v-663
q0 -127 -91.5 -216.5t-220.5 -89.5h-557q-23 -177 -165 -276t-337 -99q-194 0 -340.5 116t-146.5 321v730h190v-730q0 -117 91 -182.5t216 -65.5t216 65.5t91 182.5v907h191v-780h242v780h190z" />
    <glyph glyph-name="sheenfinal" unicode="&#x634;" horiz-adv-x="2114" arabic-form="final" 
d="M1200 1248q0 20 7.5 37.5t21 31t31 21t37.5 7.5t37.5 -7.5t31 -21t21 -31t7.5 -37.5t-7.5 -37.5t-21 -30.5t-31 -20.5t-37.5 -7.5t-37.5 7.5t-31 20.5t-21 30.5t-7.5 37.5zM1483 1248q0 20 7.5 37.5t21 31t31 21t48 7.5t58 -29t27.5 -68q0 -40 -28 -68t-58 -28t-47.5 7.5
t-31 20.5t-21 30.5t-7.5 37.5zM1342 1453q0 20 7.5 37.5t20.5 31t30.5 21t37.5 7.5t37.5 -7.5t31 -21t21 -31t7.5 -37.5t-7.5 -37.5t-21 -31t-31 -21t-37.5 -7.5t-37.5 7.5t-30.5 21t-20.5 31t-7.5 37.5zM1532 969v-780h242v780h189v-780h193v-189h-1061q-23 -177 -165 -276
t-337 -99q-194 0 -341 115.5t-147 321.5v730h190v-730q0 -117 91 -182.5t216 -65.5t216 65.5t91 182.5v907h191v-780h242v780h190z" />
    <glyph glyph-name="sheeninitial" unicode="&#x634;" horiz-adv-x="1471" arabic-form="initial" 
d="M599 1248q0 20 7.5 37.5t21 31t31 21t37.5 7.5t37.5 -7.5t31 -21t21 -31t7.5 -37.5t-7.5 -37.5t-21 -30.5t-31 -20.5t-37.5 -7.5t-37.5 7.5t-31 20.5t-21 30.5t-7.5 37.5zM882 1248q0 20 7.5 37.5t21 31t31 21t48 7.5t58 -29t27.5 -68q0 -40 -28 -68t-58 -28t-47.5 7.5
t-31 20.5t-21 30.5t-7.5 37.5zM741 1453q0 20 7.5 37.5t20.5 31t30.5 21t37.5 7.5t37.5 -7.5t31 -21t21 -31t7.5 -37.5t-7.5 -37.5t-21 -31t-31 -21t-37.5 -7.5t-37.5 7.5t-30.5 21t-20.5 31t-7.5 37.5zM933 969v-780h120q50 0 86.5 34.5t36.5 83.5v662h190v-662
q0 -128 -91.5 -217.5t-221.5 -89.5h-1095v189h354v780h189v-780h243v780h189z" />
    <glyph glyph-name="sheenmedial" unicode="&#x634;" horiz-adv-x="1517" arabic-form="medial" 
d="M597 1248q0 20 7.5 37.5t21 31t31 21t37.5 7.5t37.5 -7.5t31 -21t21 -31t7.5 -37.5t-7.5 -37.5t-21 -30.5t-31 -20.5t-37.5 -7.5t-37.5 7.5t-31 20.5t-21 30.5t-7.5 37.5zM880 1248q0 20 7.5 37.5t21 31t31 21t48 7.5t58 -29t27.5 -68q0 -40 -28 -68t-58 -28t-47.5 7.5
t-31 20.5t-21 30.5t-7.5 37.5zM739 1453q0 20 7.5 37.5t20.5 31t30.5 21t37.5 7.5t37.5 -7.5t31 -21t21 -31t7.5 -37.5t-7.5 -37.5t-21 -31t-31 -21t-37.5 -7.5t-37.5 7.5t-30.5 21t-20.5 31t-7.5 37.5zM1366 969v-780h193v-189h-1601v189h353v780h189v-780h243v780h189
v-780h245v780h189z" />
    <glyph glyph-name="sadisolated" unicode="&#x635;" horiz-adv-x="2068" arabic-form="isolated" 
d="M1100 189h550q49 0 86 33.5t37 83.5v212q0 200 -87.5 230.5t-135.5 30.5t-101 -12t-130 -43t-148 -101t-71 -140v-294zM1100 799q220 170 466 170q169 0 283 -108.5t114 -342.5v-212q0 -128 -92.5 -217t-220.5 -89h-555q-23 -177 -165 -276t-337 -99q-194 0 -341 115.5
t-147 321.5v730h190v-730q0 -117 91 -182.5t215.5 -65.5t216.5 65.5t92 182.5v907h190v-170z" />
    <glyph glyph-name="sadfinal" unicode="&#x635;" horiz-adv-x="2113" arabic-form="final" 
d="M1099 189h673v329q0 200 -87 230.5t-135 30.5t-101.5 -12t-130.5 -43t-148 -101t-71 -140v-294zM1099 799q221 170 467 170q169 0 282.5 -108.5t113.5 -342.5v-329h193v-189h-1061q-23 -177 -165 -276t-336 -99q-193 0 -340.5 116t-147.5 321v730h190v-730
q0 -117 91.5 -182.5t216.5 -65.5q124 0 215 65.5t91 182.5v907h190v-170z" />
    <glyph glyph-name="sadinitial" unicode="&#x635;" horiz-adv-x="1310" arabic-form="initial" 
d="M792 779q-48 0 -101.5 -12t-130.5 -43t-148 -101t-71 -140v-294h551q49 0 86 33.5t37 83.5v212q0 200 -87.5 230.5t-135.5 30.5zM341 799q221 170 467 170q170 0 283.5 -108.5t113.5 -342.5v-212q0 -128 -92.5 -217t-220.5 -89h-934v189h193v780h190v-170z" />
    <glyph glyph-name="sadmedial" unicode="&#x635;" horiz-adv-x="1356" arabic-form="medial" 
d="M792 779q-48 0 -101 -12t-130 -43t-148 -101t-71 -140v-294h673v329q0 200 -87.5 230.5t-135.5 30.5zM342 799q220 170 466 170q169 0 283 -108.5t114 -342.5v-329h193v-189h-1440v189h194v780h190v-170z" />
    <glyph glyph-name="dadisolated" unicode="&#x636;" horiz-adv-x="2068" arabic-form="isolated" 
d="M1339 1248q0 20 7.5 37.5t21 31t31 21t37.5 7.5t37.5 -7.5t31 -21t21 -31t7.5 -37.5t-7.5 -37.5t-21 -30.5t-31 -20.5t-37.5 -7.5t-37.5 7.5t-31 20.5t-21 30.5t-7.5 37.5zM1100 189h550q49 0 86 33.5t37 83.5v212q0 200 -87.5 230.5t-135.5 30.5t-101 -12t-130 -43
t-148 -101t-71 -140v-294zM1100 799q220 170 466 170q169 0 283 -108.5t114 -342.5v-212q0 -128 -92.5 -217t-220.5 -89h-555q-23 -177 -165 -276t-337 -99q-194 0 -341 115.5t-147 321.5v730h190v-730q0 -117 91 -182.5t215.5 -65.5t216.5 65.5t92 182.5v907h190v-170z" />
    <glyph glyph-name="dadfinal" unicode="&#x636;" horiz-adv-x="2113" arabic-form="final" 
d="M1339 1248q0 20 7.5 37.5t21 31t31 21t37.5 7.5t37.5 -7.5t31 -21t21 -31t7.5 -37.5t-7.5 -37.5t-21 -30.5t-31 -20.5t-37.5 -7.5t-37.5 7.5t-31 20.5t-21 30.5t-7.5 37.5zM1099 189h673v329q0 200 -87 230.5t-135 30.5t-101.5 -12t-130.5 -43t-148 -101t-71 -140v-294z
M1099 799q221 170 467 170q169 0 282.5 -108.5t113.5 -342.5v-329h193v-189h-1061q-23 -177 -165 -276t-336 -99q-193 0 -340.5 116t-147.5 321v730h190v-730q0 -117 91.5 -182.5t216.5 -65.5q124 0 215 65.5t91 182.5v907h190v-170z" />
    <glyph glyph-name="dadinitial" unicode="&#x636;" horiz-adv-x="1310" arabic-form="initial" 
d="M580 1248q0 20 7.5 37.5t21 31t31 21t37.5 7.5t37.5 -7.5t31 -21t21 -31t7.5 -37.5t-7.5 -37.5t-21 -30.5t-31 -20.5t-37.5 -7.5t-37.5 7.5t-31 20.5t-21 30.5t-7.5 37.5zM792 779q-48 0 -101.5 -12t-130.5 -43t-148 -101t-71 -140v-294h551q49 0 86 33.5t37 83.5v212
q0 200 -87.5 230.5t-135.5 30.5zM341 799q221 170 467 170q170 0 283.5 -108.5t113.5 -342.5v-212q0 -128 -92.5 -217t-220.5 -89h-934v189h193v780h190v-170z" />
    <glyph glyph-name="dadmedial" unicode="&#x636;" horiz-adv-x="1356" arabic-form="medial" 
d="M582 1238q0 30 7.5 47.5t20.5 31t30.5 21t37.5 7.5t37.5 -7.5t31 -21t21 -31t7.5 -48t-29 -58t-68 -27.5q-40 0 -68 28t-28 58zM792 779q-48 0 -101 -12t-130 -43t-148 -101t-71 -140v-294h673v329q0 200 -87.5 230.5t-135.5 30.5zM342 799q220 170 466 170
q169 0 283 -108.5t114 -342.5v-329h193v-189h-1450v189h204v780h190v-170z" />
    <glyph glyph-name="tahisolated" unicode="&#x637;" horiz-adv-x="1415" arabic-form="isolated" 
d="M446 484v-295h551q50 0 86.5 34.5t36.5 83.5v211q0 134 -61 198t-162 64q-155 0 -303 -95t-148 -201zM446 800q214 170 466 170q170 0 284 -110t114 -342v-211q0 -129 -92.5 -218t-220.5 -89h-892v189h152v1156h189v-545z" />
    <glyph glyph-name="tahfinal" unicode="&#x637;" horiz-adv-x="1461" arabic-form="final" 
d="M446 484v-295h675v329q0 133 -61.5 197.5t-162.5 64.5q-155 0 -303 -95t-148 -201zM446 800q214 170 466 170q170 0 284 -110t114 -342v-329h193v-189h-1398v189h152v1156h189v-545z" />
    <glyph glyph-name="tahinitial" unicode="&#x637;" horiz-adv-x="1309" arabic-form="initial" 
d="M792 780q-48 0 -101 -12t-131.5 -44.5t-148.5 -101.5t-70 -139v-294h551q50 0 86 34.5t36 83.5v211q0 200 -87 231t-135 31zM341 799q216 171 467 171q169 0 282.5 -109.5t113.5 -342.5v-211q0 -128 -91.5 -217.5t-220.5 -89.5h-934v189h193v1156h190v-546z" />
    <glyph glyph-name="tahmedial" unicode="&#x637;" horiz-adv-x="1356" arabic-form="medial" 
d="M341 484v-295h674v329q0 134 -61 198t-162 64q-155 0 -303 -95t-148 -201zM341 800q215 170 467 170q170 0 283.5 -110t113.5 -342v-329h193v-189h-1440v189h194v1156h189v-545z" />
    <glyph glyph-name="zahisolated" unicode="&#x638;" horiz-adv-x="1415" arabic-form="isolated" 
d="M687 1238q0 30 7.5 47.5t20.5 31t30.5 21t37.5 7.5t37.5 -7.5t31 -21t21 -31t7.5 -48t-29 -58t-68 -27.5q-40 0 -68 28t-28 58zM446 484v-295h551q50 0 86.5 34.5t36.5 83.5v211q0 134 -61 198t-162 64q-155 0 -303 -95t-148 -201zM446 800q214 170 466 170
q170 0 284 -110t114 -342v-211q0 -129 -92.5 -218t-220.5 -89h-892v189h152v1156h189v-545z" />
    <glyph glyph-name="zahfinal" unicode="&#x638;" horiz-adv-x="1461" arabic-form="final" 
d="M688 1238q0 30 7.5 47.5t20.5 31t30.5 21t37.5 7.5t37.5 -7.5t31 -21t21 -31t7.5 -48t-29 -58t-68 -27.5q-40 0 -68 28t-28 58zM446 484v-295h675v329q0 133 -61.5 197.5t-162.5 64.5q-155 0 -303 -95t-148 -201zM446 800q214 170 466 170q170 0 284 -110t114 -342v-329
h193v-189h-1398v189h152v1156h189v-545z" />
    <glyph glyph-name="zahinitial" unicode="&#x638;" horiz-adv-x="1309" arabic-form="initial" 
d="M580 1248q0 20 7.5 37.5t21 31t31 21t37.5 7.5t37.5 -7.5t31 -21t21 -31t7.5 -37.5t-7.5 -37.5t-21 -30.5t-31 -20.5t-37.5 -7.5t-37.5 7.5t-31 20.5t-21 30.5t-7.5 37.5zM792 780q-48 0 -101 -12t-131.5 -44.5t-148.5 -101.5t-70 -139v-294h551q50 0 86 34.5t36 83.5
v211q0 200 -87 231t-135 31zM341 799q216 171 467 171q169 0 282.5 -109.5t113.5 -342.5v-211q0 -128 -91.5 -217.5t-220.5 -89.5h-934v189h193v1156h190v-546z" />
    <glyph glyph-name="zahmedial" unicode="&#x638;" horiz-adv-x="1356" arabic-form="medial" 
d="M582 1238q0 30 7.5 47.5t20.5 31t30.5 21t37.5 7.5t37.5 -7.5t31 -21t21 -31t7.5 -48t-29 -58t-68 -27.5q-40 0 -68 28t-28 58zM341 484v-295h674v329q0 134 -61 198t-162 64q-155 0 -303 -95t-148 -201zM341 800q215 170 467 170q170 0 283.5 -110t113.5 -342v-329h193
v-189h-1440v189h194v1156h189v-545z" />
    <glyph glyph-name="ainisolated" unicode="&#x639;" horiz-adv-x="1207" arabic-form="isolated" 
d="M538 533v-344h564v-189h-727q-37 0 -58.5 -27t-21.5 -54q0 -48 21 -76.5t59 -28.5h545v-189h-545q-127 0 -198.5 84t-71.5 199q0 171 90.5 222t153.5 58v345q0 183 125.5 308.5t306.5 125.5q98 2 217 -54l-78 -172q-88 39 -139 38q-103 -2 -173 -72t-70 -174z" />
    <glyph glyph-name="ainfinal" unicode="&#x639;" horiz-adv-x="1144" arabic-form="final" 
d="M502.5 780q-183.5 0 -183.5 -158q0 -208 246 -423q155 121 216 304q21 63 21 105q0 43 -12.5 72.5t-58 64.5t-229 35zM991 618q0 -215 -176 -429h371v-189h-811q-37 0 -59 -26.5t-22 -54.5q0 -49 21.5 -77t59.5 -28h545v-189h-545q-127 0 -198.5 84t-71.5 199
q0 154 78.5 208t133.5 66q-188 219 -188 440q0 244 154.5 296t329 52t276.5 -97t102 -255z" />
    <glyph glyph-name="aininitial" unicode="&#x639;" horiz-adv-x="1008" arabic-form="initial" 
d="M341 536v-347h562v-189h-945v189h193v347q0 183 125.5 308.5t307.5 125.5q99 2 216 -54l-76 -173q-88 39 -140 38q-103 -2 -173 -72t-70 -173z" />
    <glyph glyph-name="ainmedial" unicode="&#x639;" horiz-adv-x="1168" arabic-form="medial" 
d="M829 604q0 46 -12.5 75.5t-41 51.5t-75 35t-144 13t-154.5 -43.5t-57 -114.5q0 -146 90.5 -257t154.5 -164q161 134 219 300q20 58 20 104zM1019 617q0 -216 -178 -428h369v-189h-1252v189h380q-182 212 -182 432q0 244 154 296t276 52q229 0 331 -97t102 -255z" />
    <glyph glyph-name="ghainisolated" unicode="&#x63a;" horiz-adv-x="1207" arabic-form="isolated" 
d="M538 533v-344h564v-189h-727q-37 0 -58.5 -27t-21.5 -54q0 -48 21 -76.5t59 -28.5h545v-189h-545q-127 0 -198.5 84t-71.5 199q0 171 90.5 222t153.5 58v345q0 183 125.5 308.5t306.5 125.5q98 2 217 -54l-78 -172q-88 39 -139 38q-103 -2 -173 -72t-70 -174zM685 1238
q0 30 7.5 47.5t20.5 31t30.5 21t37.5 7.5t37.5 -7.5t31 -21t21 -31t7.5 -48t-29 -58t-68 -27.5q-40 0 -68 28t-28 58z" />
    <glyph glyph-name="ghainfinal" unicode="&#x63a;" horiz-adv-x="1144" arabic-form="final" 
d="M502.5 780q-183.5 0 -183.5 -158q0 -208 246 -423q155 121 216 304q21 63 21 105q0 43 -12.5 72.5t-58 64.5t-229 35zM991 618q0 -215 -176 -429h371v-189h-811q-37 0 -59 -26.5t-22 -54.5q0 -49 21.5 -77t59.5 -28h545v-189h-545q-127 0 -198.5 84t-71.5 199
q0 154 78.5 208t133.5 66q-188 219 -188 440q0 244 154.5 296t329 52t276.5 -97t102 -255zM463 1238q0 30 7.5 47.5t20.5 31t30.5 21t37.5 7.5t37.5 -7.5t31 -21t21 -31t7.5 -48t-29 -58t-68 -27.5q-40 0 -68 28t-28 58z" />
    <glyph glyph-name="ghaininitial" unicode="&#x63a;" horiz-adv-x="1008" arabic-form="initial" 
d="M341 536v-347h562v-189h-945v189h193v347q0 183 125.5 308.5t307.5 125.5q99 2 216 -54l-76 -173q-88 39 -140 38q-103 -2 -173 -72t-70 -173zM488 1248q0 20 7.5 37.5t21 31t31 21t37.5 7.5t37.5 -7.5t31 -21t21 -31t7.5 -37.5t-7.5 -37.5t-21 -30.5t-31 -20.5
t-37.5 -7.5t-37.5 7.5t-31 20.5t-21 30.5t-7.5 37.5z" />
    <glyph glyph-name="ghainmedial" unicode="&#x63a;" horiz-adv-x="1168" arabic-form="medial" 
d="M829 604q0 46 -12.5 75.5t-41 51.5t-75 35t-144 13t-154.5 -43.5t-57 -114.5q0 -146 90.5 -257t154.5 -164q161 134 219 300q20 58 20 104zM1019 617q0 -216 -178 -428h369v-189h-1252v189h380q-182 212 -182 432q0 244 154 296t276 52q229 0 331 -97t102 -255zM489 1248
q0 20 7.5 37.5t21 31t31 21t48 7.5t58 -29t27.5 -68q0 -40 -28 -68t-58 -28t-47.5 7.5t-31 20.5t-21 30.5t-7.5 37.5z" />
    <glyph glyph-name="fehisolated" unicode="&#x641;" horiz-adv-x="1874" arabic-form="isolated" 
d="M1237 1248q0 20 7.5 37.5t21 31t31 21t37.5 7.5t37.5 -7.5t31 -21t21 -31t7.5 -37.5t-7.5 -37.5t-21 -30.5t-31 -20.5t-37.5 -7.5t-37.5 7.5t-31 20.5t-21 30.5t-7.5 37.5zM1091 189h364q52 0 87.5 33.5t35.5 90.5v229q0 101 -72 169.5t-173 68.5t-171.5 -70.5
t-70.5 -173.5v-347zM295 443q0 -105 74.5 -179.5t179.5 -74.5h352v347q0 184 126.5 309t306.5 125t307 -125t127 -303v-229q0 -139 -90.5 -226t-222.5 -87h-906q-184 0 -314 130t-130 313v349h190v-349z" />
    <glyph glyph-name="fehfinal" unicode="&#x641;" horiz-adv-x="1917" arabic-form="final" 
d="M1235 1248q0 20 7.5 37.5t21 31t31 21t37.5 7.5t37.5 -7.5t31 -21t21 -31t7.5 -37.5t-7.5 -37.5t-21 -30.5t-31 -20.5t-37.5 -7.5t-37.5 7.5t-31 20.5t-21 30.5t-7.5 37.5zM1090 189h486v353q0 100 -71 169t-173 69q-101 0 -171.5 -70.5t-70.5 -173.5v-347zM548 0
q-183 0 -313 130t-130 313v349h189v-349q0 -105 74.5 -179.5t179.5 -74.5h352v347q0 183 125.5 308.5t305.5 125.5t307.5 -125t127.5 -303v-353h193v-189h-1411z" />
    <glyph glyph-name="fehinitial" unicode="&#x641;" horiz-adv-x="1123" arabic-form="initial" 
d="M487 1248q0 20 7.5 37.5t21 31t31 21t48 7.5t58 -29t27.5 -68q0 -40 -28 -68t-58 -28t-47.5 7.5t-31 20.5t-21 30.5t-7.5 37.5zM341 189h365q51 0 86.5 34t35.5 90v229q2 100 -70.5 169t-173.5 69q-102 0 -172.5 -70.5t-70.5 -173.5v-347zM-42 189h194v347
q0 183 125.5 308.5t305.5 125.5t308 -125.5t126 -302.5v-229q0 -138 -89.5 -225.5t-221.5 -87.5h-748v189z" />
    <glyph glyph-name="fehmedial" unicode="&#x641;" horiz-adv-x="1170" arabic-form="medial" 
d="M487 1248q0 20 7.5 37.5t21 31t31 21t48 7.5t58 -29t27.5 -68q0 -40 -28 -68t-58 -28t-47.5 7.5t-31 20.5t-21 30.5t-7.5 37.5zM341 189h488v353q0 99 -71.5 168.5t-173.5 69.5t-172.5 -70.5t-70.5 -173.5v-347zM-42 0v189h194v347q0 183 125.5 308.5t305.5 125.5
t308 -125.5t128 -302.5v-353h193v-189h-1254z" />
    <glyph glyph-name="qafisolated" unicode="&#x642;" horiz-adv-x="1428" arabic-form="isolated" 
d="M644 1248q0 20 7.5 37.5t21 31t31 21t37.5 7.5t37.5 -7.5t31 -21t21 -31t7.5 -37.5t-7.5 -37.5t-21 -30.5t-31 -20.5t-37.5 -7.5t-37.5 7.5t-31 20.5t-21 30.5t-7.5 37.5zM927 1248q0 20 7.5 37.5t21 31t31 21t48 7.5t58 -29t27.5 -68q0 -40 -28 -68t-58 -28t-47.5 7.5
t-31 20.5t-21 30.5t-7.5 37.5zM1133 189v337q0 103 -73.5 178t-176.5 75t-174.5 -75t-71.5 -183v-213q0 -49 35 -84t83 -35h378zM295 791v-718q0 -109 76.5 -184t182.5 -75h332q132 0 180.5 73t58.5 113h-370q-128 0 -218 90t-90 218v213q0 187 128.5 317.5t308.5 130.5
t309 -132t129 -311v-464q0 -181 -128 -309t-308 -128h-332q-186 0 -317.5 131.5t-131.5 316.5v718h190z" />
    <glyph glyph-name="qaffinal" unicode="&#x642;" horiz-adv-x="1473" arabic-form="final" 
d="M642 1248q0 20 7.5 37.5t21 31t31 21t37.5 7.5t37.5 -7.5t31 -21t21 -31t7.5 -37.5t-7.5 -37.5t-21 -30.5t-31 -20.5t-37.5 -7.5t-37.5 7.5t-31 20.5t-21 30.5t-7.5 37.5zM925 1248q0 20 7.5 37.5t21 31t31 21t48 7.5t58 -29t27.5 -68q0 -40 -28 -68t-58 -28t-47.5 7.5
t-31 20.5t-21 30.5t-7.5 37.5zM1132 189v337q0 103 -73.5 178t-176.5 75t-175 -75.5t-72 -182.5v-213q0 -49 35 -84t84 -35h378zM295 791v-718q0 -108 75.5 -183.5t181.5 -75.5h333q85 0 152.5 52.5t87.5 133.5h-371q-128 0 -218.5 90.5t-90.5 217.5v213q0 186 129 317
t309 131t309.5 -131.5t129.5 -311.5v-337h193v-189h-198q-24 -162 -147 -268.5t-285 -106.5h-333q-183 0 -315 130.5t-132 317.5v718h190z" />
    <glyph glyph-name="qafinitial" unicode="&#x642;" horiz-adv-x="1123" arabic-form="initial" 
d="M348 1248q0 20 7.5 37.5t21 31t31 21t37.5 7.5t37.5 -7.5t31 -21t21 -31t7.5 -37.5t-7.5 -37.5t-21 -30.5t-31 -20.5t-37.5 -7.5t-37.5 7.5t-31 20.5t-21 30.5t-7.5 37.5zM631 1248q0 20 7.5 37.5t21 31t31 21t48 7.5t58 -29t27.5 -68q0 -40 -28 -68t-58 -28t-47.5 7.5
t-31 20.5t-21 30.5t-7.5 37.5zM341 189h365q51 0 86.5 34t35.5 90v229q2 100 -70.5 169t-173.5 69q-102 0 -172.5 -70.5t-70.5 -173.5v-347zM-42 189h194v347q0 183 125.5 308.5t305.5 125.5t308 -125.5t126 -302.5v-229q0 -138 -89.5 -225.5t-221.5 -87.5h-748v189z" />
    <glyph glyph-name="qafmedial" unicode="&#x642;" horiz-adv-x="1170" arabic-form="medial" 
d="M346 1248q0 20 7.5 37.5t21 31t31 21t37.5 7.5t37.5 -7.5t31 -21t21 -31t7.5 -37.5t-7.5 -37.5t-21 -30.5t-31 -20.5t-37.5 -7.5t-37.5 7.5t-31 20.5t-21 30.5t-7.5 37.5zM629 1248q0 20 7.5 37.5t21 31t31 21t48 7.5t58 -29t27.5 -68q0 -40 -28 -68t-58 -28t-47.5 7.5
t-31 20.5t-21 30.5t-7.5 37.5zM341 189h487v353q0 100 -71 169t-173 69t-172.5 -70.5t-70.5 -173.5v-347zM-42 0v189h194v347q0 183 125.5 308.5t305.5 125.5t308 -125.5t128 -302.5v-353h193v-189h-1254z" />
    <glyph glyph-name="kafisolated" unicode="&#x643;" horiz-adv-x="1424" arabic-form="isolated" 
d="M688 1062.5q11 -25.5 28 -25.5h142v-94h-308v94h49q-16 40 -16 75q0 71 38 116t119 47h81v-95l-129 -20q-16 -20 -15 -46q0 -26 11 -51.5zM1319 1345v-1034q0 -129 -91 -220t-219 -91h-464q-181 0 -310.5 128t-129.5 311v353h190v-353q0 -104 73 -177t177 -73h464
q50 0 85.5 35.5t35.5 86.5v1034h189z" />
    <glyph glyph-name="arabickaffinal" unicode="&#x643;" horiz-adv-x="1470" arabic-form="final" 
d="M688 1062.5q11 -25.5 28 -25.5h142v-94h-308v94h49q-16 40 -16 75q0 71 38 116t119 47h81v-95l-129 -20q-16 -20 -15 -46q0 -26 11 -51.5zM1319 1345v-1156h193v-189h-966q-182 0 -311.5 128t-129.5 311v353h190v-353q0 -104 73 -177t178 -73h583v1156h190z" />
    <glyph glyph-name="kafinitial" unicode="&#x643;" horiz-adv-x="1255" arabic-form="initial" 
d="M621 970q56 0 122 -8.5t236.5 -67t170.5 -375.5v-212q0 -128 -91.5 -217.5t-221.5 -89.5h-879v189h879q51 0 87 34.5t36 83.5v212q0 142 -100 201.5t-255 59.5t-256 -32.5t-123 -42.5l-86 157l536 497l136 -133l-293 -260q46 4 102 4z" />
    <glyph glyph-name="kafmedial" unicode="&#x643;" horiz-adv-x="1307" arabic-form="medial" 
d="M627 970q56 0 122 -8.5t236.5 -67t170.5 -375.5v-330h193v-189h-1391v189h1008v330q0 142 -100 201.5t-255 59.5t-256 -32.5t-123 -42.5l-86 157l537 497l136 -133l-293 -260q45 4 101 4z" />
    <glyph glyph-name="lamisolated" unicode="&#x644;" horiz-adv-x="1205" arabic-form="isolated" 
d="M1100 1345v-1280q0 -208 -147.5 -325t-350.5 -117t-350 116.5t-147 325.5v727h190v-727q0 -119 91.5 -186t215.5 -67t216 66.5t92 186.5v1280h190z" />
    <glyph glyph-name="lamfinal" unicode="&#x644;" horiz-adv-x="1249" arabic-form="final" 
d="M1291 0h-197q-25 -178 -167 -278t-335 -100t-340 116.5t-147 325.5v728h190v-728q0 -119 90.5 -185.5t216.5 -66.5q125 0 215.5 66.5t90.5 185.5v1281h190v-1156h193v-189z" />
    <glyph glyph-name="laminitial" unicode="&#x644;" horiz-adv-x="463" arabic-form="initial" 
d="M358 1345v-1035q0 -128 -91 -219t-220 -91h-89v189h89q51 0 86.5 35.5t35.5 85.5v1035h189z" />
    <glyph glyph-name="lammedial" unicode="&#x644;" horiz-adv-x="492" arabic-form="medial" 
d="M341 1345v-1156h193v-189h-576v189h193v1156h190z" />
    <glyph glyph-name="meemisolated" unicode="&#x645;" horiz-adv-x="1430" arabic-form="isolated" 
d="M1136 527q0 105 -71.5 178.5t-171.5 73.5t-172.5 -74.5t-72.5 -177.5v-218q0 -104 72 -178t173 -74t172 74.5t71 179.5v216zM295 153v-528h-190v528q0 243 129 301.5t225 63.5v9q0 178 128 310t305 132q178 0 305.5 -129.5t127.5 -312.5v-216q0 -185 -127.5 -314.5
t-304.5 -129.5t-305.5 131.5t-128.5 310.5v19q-164 -18 -164 -175z" />
    <glyph glyph-name="meemfinal" unicode="&#x645;" horiz-adv-x="1477" arabic-form="final" 
d="M1136 527q0 105 -71.5 178.5t-171.5 73.5t-172.5 -74.5t-72.5 -177.5v-218q0 -104 72 -178t173 -74t172 74.5t71 179.5v216zM295 153v-528h-190v528q0 243 129 301.5t225 63.5v9q0 178 128 310t306 132q179 0 305.5 -130t126.5 -312v-216q0 -65 -16 -122h210v-189h-317
q-125 -133 -306 -133t-309 131.5t-128 310.5v19q-164 -18 -164 -175z" />
    <glyph glyph-name="meeminitial" unicode="&#x645;" horiz-adv-x="1124" arabic-form="initial" 
d="M412.5 705.5q-71.5 -73.5 -71.5 -178.5v-216q0 -105 71 -179.5t172 -74.5t173 74t72 178v218q0 103 -72.5 177.5t-172.5 74.5t-171.5 -73.5zM-42 0v189h210q-16 58 -16 122v216q0 183 127.5 312.5t305.5 129.5t305.5 -132t127.5 -310v-218q0 -179 -128 -310.5
t-309 -131.5t-305 133h-318z" />
    <glyph glyph-name="meemmedial" unicode="&#x645;" horiz-adv-x="1169" arabic-form="medial" 
d="M341 527v-216q0 -105 71 -179.5t171.5 -74.5t172.5 74t72 178v218q0 103 -72.5 177.5t-172 74.5t-171 -73.5t-71.5 -178.5zM-42 0v189h210q-16 58 -16 122v216q0 182 126.5 312t304.5 130t306.5 -132t128.5 -310v-218q2 -55 -17 -120h210v-189h-318q-131 -133 -311 -133
t-306 133h-318z" />
    <glyph glyph-name="noonisolated" unicode="&#x646;" horiz-adv-x="1205" arabic-form="isolated" 
d="M506 1238q0 30 7.5 47.5t20.5 31t30.5 21t37.5 7.5t37.5 -7.5t31 -21t21 -31t7.5 -48t-29 -58t-68 -27.5q-40 0 -68 28t-28 58zM1100 969v-902q0 -209 -147.5 -326t-350.5 -117t-350 116.5t-147 326.5v725h190v-725q0 -119 91 -186.5t215.5 -67.5t216.5 67.5t92 186.5
v902h190z" />
    <glyph glyph-name="noonfinal" unicode="&#x646;" horiz-adv-x="1251" arabic-form="final" 
d="M506 1248q0 20 7.5 37.5t21 31t31 21t48 7.5t58 -29t27.5 -68q0 -40 -28 -68t-58 -28t-47.5 7.5t-31 20.5t-21 30.5t-7.5 37.5zM1100 969v-779h193v-190h-198q-25 -181 -166.5 -278.5t-335.5 -97.5t-341 116.5t-147 326.5v725h190v-725q0 -119 90.5 -186.5t216.5 -67.5
q125 0 216.5 67.5t91.5 186.5v902h190z" />
    <glyph glyph-name="nooninitial" unicode="&#x646;" horiz-adv-x="576" arabic-form="initial" 
d="M471 969v-658q0 -129 -91 -220t-219 -91h-203v189h203q50 0 85.5 35.5t35.5 86.5v658h189zM278 1248q0 20 7.5 37.5t21 31t31 21t48 7.5t58 -29t27.5 -68q0 -40 -28 -68t-58 -28t-47.5 7.5t-31 20.5t-21 30.5t-7.5 37.5z" />
    <glyph glyph-name="noonmedial" unicode="&#x646;" horiz-adv-x="623" arabic-form="medial" 
d="M471 969v-780h194v-189h-707v189h324v780h189zM204 1248q0 20 7.5 37.5t21 31t31 21t48 7.5t58 -29t27.5 -68q0 -40 -28 -68t-58 -28t-47.5 7.5t-31 20.5t-21 30.5t-7.5 37.5z" />
    <glyph glyph-name="hehisolated" unicode="&#x647;" horiz-adv-x="1078" arabic-form="isolated" 
d="M105 526q0 184 127.5 313.5t305.5 129.5t306 -130t128 -309v-217q0 -138 -89.5 -225.5t-222.5 -87.5h-244q-135 0 -223 86t-88 223v217zM295 309q0 -54 35 -87t86 -33h244q52 0 87.5 34t35.5 90v217q0 102 -72 175.5t-173 73.5q-100 0 -171.5 -73.5t-71.5 -179.5v-217z
" />
    <glyph glyph-name="hehfinal" unicode="&#x647;" horiz-adv-x="1131" arabic-form="final" 
d="M1173 189v-189h-383v527q2 101 -72 176.5t-177 75.5t-175 -75.5t-72 -182.5v-213q0 -49 35 -84t84 -35h207v-189h-207q-128 0 -218 90t-90 218v213q0 185 128 316.5t308.5 131.5t310.5 -131.5t128 -310.5v-338h193z" />
    <glyph glyph-name="hehinitial" unicode="&#x647;" horiz-adv-x="1441" arabic-form="initial" 
d="M341 190h240v206q0 56 -25.5 83t-47.5 37t-60 10t-72.5 -38.5t-34.5 -94.5v-203zM771 189h253q50 0 86.5 34.5t36.5 83.5v211q0 131 -76 196.5t-194 65.5t-183.5 -38t-89.5 -62q118 -64 142.5 -151t24.5 -133v-207zM151 393q0 115 67.5 201.5t171.5 112.5
q59 118 199.5 190.5t313.5 72.5t303 -112.5t130 -339.5v-211q0 -128 -91.5 -217.5t-220.5 -89.5h-1066v189h193v204z" />
    <glyph glyph-name="hehmedial" unicode="&#x647;" horiz-adv-x="1490" arabic-form="medial" 
d="M341 189h240v207q2 52 -24.5 81t-48.5 39t-59.5 10t-72.5 -39t-35 -95v-203zM771 189h376v329q0 131 -76 196.5t-189 65.5q-175 0 -280 -101q121 -63 145 -150t24 -133v-207zM-42 0v189h193v203q0 113 67 200t172 114q59 118 198.5 191t313.5 73t304 -112.5t130 -339.5
v-329h196v-189h-1574z" />
    <glyph glyph-name="wawisolated" unicode="&#x648;" horiz-adv-x="1087" arabic-form="isolated" 
d="M791 189v337q0 103 -73.5 178t-176 75t-174.5 -75.5t-72 -182.5v-214q0 -48 35 -83t83 -35h378zM246 -187h298q133 0 181.5 73t58.5 114h-371q-126 0 -217 89.5t-91 217.5v214q0 185 128 316.5t308 131.5t310 -131.5t130 -311.5v-465q0 -181 -128 -309t-309 -128h-298
v189z" />
    <glyph glyph-name="wawfinal" unicode="&#x648;" horiz-adv-x="1131" arabic-form="final" 
d="M790 189v337q0 103 -73 178t-176 75t-175 -75.5t-72 -182.5v-214q0 -48 35 -83t83 -35h378zM245 -187h298q133 0 181.5 73t58.5 114h-371q-126 0 -216.5 89t-90.5 218v214q0 185 128 316.5t308 131.5q179 0 309 -131.5t130 -311.5v-337h193v-189h-197q-22 -160 -145 -268
t-288 -108h-298v189z" />
    <glyph glyph-name="alefmaksuraisolated" unicode="&#x649;" horiz-adv-x="1205" arabic-form="isolated" 
d="M1043 779h-246q-51 0 -86.5 -35.5t-35.5 -87.5v-246h118q149 0 228 -91.5t79 -225.5q0 -133 -43 -217t-113 -140t-159.5 -84t-237 -28t-295 118t-147.5 327v723h190v-723q0 -121 91 -188.5t215.5 -67.5t216.5 69t92 189q0 66 -29 108t-88 42h-308v435q0 130 91.5 221.5
t220.5 91.5h246v-190z" />
    <glyph glyph-name="alefmaksurafinal" unicode="&#x649;" horiz-adv-x="1144" arabic-form="final" 
d="M1186 0h-92q-25 -179 -167 -278t-334 -99t-340 117t-148 328v724h189v-724q0 -121 91 -188.5t216 -67.5q166 0 225.5 70.5t73.5 117.5h-337v189h623v-189z" />
    <glyph glyph-name="yehisolated" unicode="&#x64a;" horiz-adv-x="1205" arabic-form="isolated" 
d="M360 -657q0 20 7.5 37.5t21 31t31 21t37.5 7.5t37.5 -7.5t31 -21t21 -31t7.5 -37.5t-7.5 -37.5t-21 -30.5t-31 -20.5t-37.5 -7.5t-37.5 7.5t-31 20.5t-21 30.5t-7.5 37.5zM643 -657q0 20 7.5 37.5t21 31t31 21t48 7.5t58 -29t27.5 -68q0 -40 -28 -68t-58 -28t-47.5 7.5
t-31 20.5t-21 30.5t-7.5 37.5zM1043 779h-246q-50 0 -86.5 -35t-36.5 -88v-246h119q149 0 228 -91.5t79 -225.5q0 -233 -148 -351t-350 -118t-349.5 117t-147.5 328v723h190v-723q0 -121 91 -188.5t215 -67.5t216.5 69t92.5 189q0 66 -29.5 108t-87.5 42h-308v435
q0 130 91.5 221.5t220.5 91.5h246v-190z" />
    <glyph glyph-name="yehfinal" unicode="&#x64a;" horiz-adv-x="1144" arabic-form="final" 
d="M361 -657q0 20 7.5 37.5t21 31t31 21t37.5 7.5t37.5 -7.5t31 -21t21 -31t7.5 -37.5t-7.5 -37.5t-21 -30.5t-31 -20.5t-37.5 -7.5t-37.5 7.5t-31 20.5t-21 30.5t-7.5 37.5zM644 -657q0 20 7.5 37.5t21 31t31 21t48 7.5t58 -29t27.5 -68q0 -40 -28 -68t-58 -28t-47.5 7.5
t-31 20.5t-21 30.5t-7.5 37.5zM1186 0h-92q-25 -179 -167 -278t-334 -99t-340 117t-148 328v724h189v-724q0 -121 91 -188.5t216 -67.5q166 0 225.5 70.5t73.5 117.5h-337v189h623v-189z" />
    <glyph glyph-name="yehinitial" unicode="&#x64a;" horiz-adv-x="577" arabic-form="initial" 
d="M-4 -281q0 20 7.5 37.5t21 31t31 21t37.5 7.5t37.5 -7.5t31 -21t21 -31t7.5 -37.5t-7.5 -37.5t-21 -30.5t-31 -20.5t-37.5 -7.5t-37.5 7.5t-31 20.5t-21 30.5t-7.5 37.5zM279 -281q0 20 7.5 37.5t21 31t31 21t48 7.5t58 -29t27.5 -68q0 -40 -28 -68t-58 -28t-47.5 7.5
t-31 20.5t-21 30.5t-7.5 37.5zM472 969v-658q0 -129 -91 -220t-219 -91h-203v189h203q50 0 85.5 35.5t35.5 86.5v658h189z" />
    <glyph glyph-name="yehmedial" unicode="&#x64a;" horiz-adv-x="623" arabic-form="medial" 
d="M-7 -281q0 20 7.5 37.5t21 31t31 21t37.5 7.5t37.5 -7.5t31 -21t21 -31t7.5 -37.5t-7.5 -37.5t-21 -30.5t-31 -20.5t-37.5 -7.5t-37.5 7.5t-31 20.5t-21 30.5t-7.5 37.5zM276 -281q0 20 7.5 37.5t21 31t31 21t48 7.5t58 -29t27.5 -68q0 -40 -28 -68t-58 -28t-47.5 7.5
t-31 20.5t-21 30.5t-7.5 37.5zM471 969v-780h194v-189h-707v189h324v780h189z" />
    <glyph glyph-name=".notdef" horiz-adv-x="0" 
 />
    <glyph glyph-name=".null" horiz-adv-x="0" 
 />
    <glyph glyph-name="nonmarkingreturn" horiz-adv-x="500" 
 />
    <glyph glyph-name="endash" horiz-adv-x="1024" 
d="M1036 618h-1048v61h1048v-61z" />
    <glyph glyph-name="guilsinglright" horiz-adv-x="512" 
d="M457 586l-393 -457v75l231 382l-222 381v77z" />
    <glyph glyph-name="ordmasculine" horiz-adv-x="661" 
d="M548 1089q0 101 -68 199t-165 98q-98 0 -146 -64t-48 -168q1 -102 71 -202t166 -99q96 0 144 68q46 68 46 168zM638 1145q0 -135 -97 -242t-229 -107t-206 79t-74 212t96 241t230 109q134 0 207 -78.5t73 -213.5z" />
    <glyph glyph-name="paragraph" horiz-adv-x="896" 
d="M764 1197v-1525h-58v1682h-187v-1682h-59v1011q-467 -10 -467 348q0 120 70 221q71 100 177 128t279 28h380v-36q-95 -4 -115 -36t-20 -139z" />
    <glyph glyph-name="multiply" horiz-adv-x="1319" 
d="M1227 881l-427 -448l415 -431h-276l-275 290l-275 -290h-278l415 431l-424 448h275l287 -301l288 301h275z" />
    <glyph glyph-name="space" unicode=" " horiz-adv-x="325" 
 />
    <glyph glyph-name="exclam" unicode="!" horiz-adv-x="419" 
d="M299 1345v-1047h-189v1047h189zM283 31.5q-31 -30.5 -63 -30.5t-51 8t-33.5 22t-22.5 33t-8 52.5t31 62.5t74 29t73.5 -29t30.5 -73t-31 -74.5z" />
    <glyph glyph-name="quotedbl" unicode="&#x22;" horiz-adv-x="709" 
d="M214 843h-81l-28 566h138zM575 843h-81l-28 566h138z" />
    <glyph glyph-name="numbersign" unicode="#" horiz-adv-x="1238" 
d="M747 806h-235l-32 -223h236zM811 475l-56 -400h-111l56 400h-235l-56 -400h-111l56 400h-249l15 108h250l31 223h-249l15 109h249l52 367h111l-52 -367h235l52 367h111l-52 -367h260l-16 -109h-259l-31 -223h259l-15 -108h-260z" />
    <glyph glyph-name="dollar" unicode="$" horiz-adv-x="1161" 
d="M293 1049q0 -120 93 -183q48 -32 148 -50v458q-92 -3 -146 -40q-95 -65 -95 -185zM640 122q102 0 178 66t76 180q0 144 -105 210q-57 37 -149 54v-510zM131 1032q0 139 85 240q107 126 318 137v172h106v-172q184 -15 282 -111t96 -261h-162q-10 118 -62 174t-154 62v-482
q85 -22 123 -34q293 -88 293 -374q0 -220 -179 -334q-86 -55 -237 -64v-212h-106v212q-105 8 -177 34q-163 57 -224 234q-28 81 -27 177h163q5 -253 193 -298q26 -6 72 -10v533q-403 69 -403 377z" />
    <glyph glyph-name="percent" unicode="%" horiz-adv-x="1797" 
d="M595 1022q-1 270 -171 270t-170 -282t169 -283q69 0 105 40q67 74 67 255zM434 1406q308 0 308 -390q0 -192 -82 -296q-82 -106 -237 -106q-318 0 -318 399q1 197 89 295t240 98zM1377 651q-96 0 -139 -87q-32 -66 -32 -200q0 -281 168 -281t168 284t-165 284zM1371 -28
q-316 0 -316 391q-1 185 81 293t250 108q102 0 178 -53q128 -88 128 -324q0 -415 -321 -415zM1361 1446l-790 -1514h-134l793 1514h131z" />
    <glyph glyph-name="ampersand" unicode="&#x26;" horiz-adv-x="1418" 
d="M279 374q1 -100 77 -180t202 -80t228 100q25 25 64 79l-324 391q-80 -46 -120 -78q-127 -101 -127 -232zM769 1104q0 76 -45 126q-46 50 -116 49q-70 0 -118 -44q-48 -43 -47 -111q0 -68 62 -155q20 -28 78 -102q77 47 131 105q54 56 55 132zM281 1106q0 130 73 209
q94 102 244 102q150 -1 242 -81t92 -212q0 -222 -259 -366l256 -311q42 115 46 221h161q-4 -80 -32 -186t-65 -164l274 -318h-219l-149 177q-26 -44 -94 -101q-125 -106 -323 -106t-310 116q-113 116 -113 294t159 303q95 75 170 109q-153 184 -153 314z" />
    <glyph glyph-name="quotesingle" unicode="'" horiz-adv-x="348" 
d="M214 843h-81l-28 566h138z" />
    <glyph glyph-name="parenleft" unicode="(" horiz-adv-x="646" 
d="M280 501q0 -484 261 -898h-128l-9 15q-120 192 -161 280q-138 296 -138 594t112 567q82 199 196 350h128q-113 -174 -187 -406t-74 -502z" />
    <glyph glyph-name="parenright" unicode=")" horiz-adv-x="647" 
d="M367 513q0 478 -262 896h129l9 -15q122 -195 161 -280q138 -297 138 -594t-112 -567q-84 -202 -196 -350h-129q114 175 188 409t74 501z" />
    <glyph glyph-name="asterisk" unicode="*" horiz-adv-x="2943" 
d="M2832 237q0 -19 -18 -19t-19 20q1 20 -7 36q-19 39 -72 39q-52 0 -74 -35q-20 -33 1 -58q21 -24 77 -24q57 0 87 -27t30 -55q0 -52 -30.5 -84.5t-74.5 -32.5q-70 0 -103.5 32.5t-29.5 78.5q0 19 17 19t17 -19q0 -44 27.5 -59t58.5 -15q53 0 67 24.5t14 62.5t-87 38
t-100.5 35.5t-13.5 49.5q0 38 25.5 72t74.5 33q133 -1 133 -112zM2232 147q35 0 59.5 24.5t24.5 50.5q0 44 -25 68.5t-61 24.5t-59 -23.5t-23 -60.5v-84h84zM2148 15q0 -19 -18 -19t-19 19v216q0 52 32.5 86.5t72.5 34.5q66 0 101.5 -36t35.5 -80q0 -91 -82 -119l56 -92
q11 -17 -6 -24q-18 -11 -27 6l-64 103h-82v-95zM1455 238q0 -17 -18 -17t-18 19q-1 18 -9 34q-22 41 -73.5 41t-70.5 -35q-18 -36 2 -58q20 -23 76 -23t85.5 -27.5t29.5 -55.5q0 -52 -29 -83t-73 -31q-70 0 -102.5 31t-32.5 78q0 18 18 18t19 -18q0 -43 26 -57.5t54 -14.5
q83 0 83 68q-3 55 -87 55t-98.5 35t-14.5 49q0 38 27 71t74 33t71 -12q61 -30 61 -100zM2364 311q-21 0 -21 19.5t21 19.5h204q19 0 19 -19.5t-19 -19.5h-82v-294q0 -20 -20 -20t-19 20v294h-83zM2011 75.5q41 39.5 41 83.5q0 72 -40 112t-83 40q-73 0 -112.5 -41t-39.5 -83
t11 -67t40.5 -54.5t85.5 -29.5t97 39.5zM1914 352q74 0 126 -52t52 -125t-52 -126t-126 -53t-125.5 53t-51.5 126t51.5 125t125.5 52zM1609 147q55 0 69.5 33t14.5 59t-24.5 51t-60.5 25t-58 -24.5t-22 -59.5v-84h81zM1528 16q0 -19 -18 -19t-19 19l-1 215q0 52 32 85.5
t72 33.5q66 0 101 -35t35 -72q0 -61 -34.5 -97t-86.5 -36h-81v-94zM2711 603v466q2 20 19.5 37t43.5 17t44 -17t19 -37v-466q0 -79 -39.5 -128t-92.5 -71q-92 -37 -169 -4t-108 80q-5 8 -20 31.5t-36 57.5t-46.5 74.5t-69.5 108.5t-84 135q-42 67 -64 89t-73 17t-72 -50
q-11 -20 -10 -46v-454q0 -22 -18.5 -39.5t-44.5 -17.5t-44 16t-20 34v474q6 79 46 127t92 68q92 36 169 1.5t107 -89.5l289 -455q27 -42 63 -48t60 6q60 30 59 83zM1703 1124q26 0 44 -17t19 -37v-630q-1 -20 -19 -37t-44 -17t-44 17t-20 37v630q2 20 20 37t44 17zM948 524
q-78 79 -78 231t107 259t258.5 107t259.5 -106.5t108 -260.5q0 -8 -6 -16.5t-22 -8.5h-391q-11 0 -19.5 7.5t-8.5 19.5t8.5 20t19.5 8h362q-12 119 -100 201t-214 82t-216 -91.5t-90 -220.5t90 -220.5t218 -91.5t188 58t77 87t41 12t7 -38q-108 -175 -324 -175
q-63 0 -130 29t-145 108zM470 443q129 0 219.5 92.5t90.5 220.5q0 129 -90 220.5t-220 91.5q-129 0 -220 -92t-91 -220q0 -129 91 -221t220 -92zM490 1120q62 0 129.5 -30.5t141.5 -109t74 -223.5t-104 -258t-260 -113t-261 108t-105 249v587q0 11 8 18.5t19 7.5t18.5 -7.5
t7.5 -18.5v-383q108 173 332 173z" />
    <glyph glyph-name="plus" unicode="+" horiz-adv-x="1126" 
d="M105 758h392v390h134v-390h390v-134h-390v-391h-134v391h-392v134z" />
    <glyph glyph-name="comma" unicode="," horiz-adv-x="456" 
d="M266 20q0 24 -21 24q-23 -2 -38 -3q-102 0 -102 90q0 45 31 69t66 24q70 0 109.5 -44t39.5 -128t-64.5 -143t-161.5 -58l-10 59q88 5 131 60q20 26 20 50z" />
    <glyph glyph-name="hyphenminus" unicode="-" horiz-adv-x="689" 
d="M584 610v-169h-479v169h479z" />
    <glyph glyph-name="period" unicode="." horiz-adv-x="403" 
d="M105 107q0 30 28 58t58 28t47.5 -7.5t31 -20.5t21 -30.5t7.5 -37.5t-7.5 -37.5t-21 -31t-31 -21t-37.5 -7.5t-37.5 7.5t-30.5 21t-20.5 31t-7.5 47.5z" />
    <glyph glyph-name="slash" unicode="/" horiz-adv-x="911" 
d="M806 1409l-559 -1412h-142l564 1412h137z" />
    <glyph glyph-name="zero" unicode="0" horiz-adv-x="1079" 
d="M539 1155q-104 0 -177 -73t-73 -176v-472q0 -104 72.5 -177t176.5 -73t177 73t73 177v472q0 104 -72.5 176.5t-176.5 72.5zM105 434v472q0 181 125 308q129 127 309 127q180 -1 308 -129q127 -128 127 -306v-472q0 -179 -127 -307q-127 -127 -308 -127q-180 0 -309 127
q-125 129 -125 307z" />
    <glyph glyph-name="one" unicode="1" horiz-adv-x="705" 
d="M400 1v1130h-295l82 212h255q115 0 136.5 -80t21.5 -122v-1140h-200z" />
    <glyph glyph-name="two" unicode="2" horiz-adv-x="1123" 
d="M122 920q0 186 138 305q138 118 324 118t310 -120q124 -124 124 -289t-86 -277q-59 -78 -216 -202l-352 -277h648v-178h-725q-80 0 -131 36t-51 98q0 61 27.5 94t92.5 81l462 360q62 53 100 118q39 63 39 125q0 118 -74 186t-184 69q-111 0 -181.5 -73.5t-70.5 -186.5
q0 -114 54 -159t79 -58l-158 -113q-169 117 -169 343z" />
    <glyph glyph-name="three" unicode="3" horiz-adv-x="1082" 
d="M793 440q0 165 -91.5 199.5t-125.5 44.5q-76 23 -104.5 42.5t-28.5 63.5q0 60 175 260q18 21 33.5 39t25.5 32l25 35h-465l-45 186h597q77 0 129 -35q51 -35 51 -105t-75.5 -159t-109.5 -128t-47 -55l-17 -19l24 -13q233 -127 233 -402q0 -74 -33.5 -154t-129.5 -176
t-270 -96t-294 108t-145 264h187q24 -82 92 -135t137 -53q123 0 197.5 74.5t74.5 181.5z" />
    <glyph glyph-name="four" unicode="4" horiz-adv-x="1245" 
d="M731 0v221h-477q-58 0 -103.5 39t-45.5 100q0 36 18 67l564 915h257l-576 -931h363v153h217v-153h192v-190h-192v-221h-217z" />
    <glyph glyph-name="five" unicode="5" horiz-adv-x="1032" 
d="M105 864v321q-1 77 51 115t137 39h570l-52 -185h-510v-307h212q170 0 292 -124t122 -298.5t-121 -298.5q-121 -125 -285 -125q-163 0 -273 97q-111 97 -141 232h179q25 -68 88 -111t127 -43q114 0 185 72.5t71 174.5q0 103 -71 176q-73 73 -173 73l-182 -6
q-112 0 -161 34q-65 44 -65 164z" />
    <glyph glyph-name="six" unicode="6" horiz-adv-x="1200" 
d="M318 458q0 -116 86 -195q86 -78 201 -78q116 0 202 79q87 80 87 194t-86 193q-86 80 -203 80t-202 -79q-85 -78 -85 -194zM105 457q0 111 57 213l395 674h250l-256 -428h37q204 0 353 -126q154 -135 154 -331t-148 -328q-149 -131 -347 -131q-199 0 -347 131t-148 326z
" />
    <glyph glyph-name="seven" unicode="7" horiz-adv-x="1038" 
d="M933 1175q0 -94 -385 -1175h-241l406 1129h-559l-49 211h660q69 0 118.5 -48t49.5 -117z" />
    <glyph glyph-name="eight" unicode="8" horiz-adv-x="1068" 
d="M534 1163q-75 0 -128 -53t-53 -127t52.5 -127.5t128.5 -53.5t128.5 54t52.5 127q0 74 -53 127t-128 53zM699 571q-71 67 -167 67t-165 -68t-69 -164t70 -163q70 -66 166 -66q97 0 166.5 66.5t69.5 163.5q0 96 -71 164zM105 400q0 94 43.5 176.5t121.5 139.5l20 15l-18 17
q-106 104 -106 248t109 243t259 99t259 -99t109 -243t-106 -248l-18 -17l21 -15q78 -57 121 -139.5t43 -170.5q0 -176 -128 -291t-302 -115q-173 0 -301 115q-127 115 -127 285z" />
    <glyph glyph-name="nine" unicode="9" horiz-adv-x="1124" 
d="M826 887q0 113 -78 193t-189 79q-111 0 -190.5 -79.5t-79.5 -193.5t77 -194t191 -80q113 0 191 81t78 194zM576 430q-199 0 -335 131t-136 322t133.5 326t322.5 135q188 0 323 -134t135 -323q0 -117 -50 -213l-368 -674h-228l238 430h-35z" />
    <glyph glyph-name="colon" unicode=":" horiz-adv-x="403" 
d="M105 761q0 30 28 58t58 28t47.5 -7.5t31 -20.5t21 -30.5t7.5 -37.5t-7.5 -37.5t-21 -31t-31 -21t-37.5 -7.5t-37.5 7.5t-30.5 21t-20.5 31t-7.5 47.5zM105 108q0 30 28 58t58 28t47.5 -7.5t31 -20.5t21 -30.5t7.5 -37.5t-7.5 -37.5t-21 -31t-31 -21t-37.5 -7.5t-37.5 7.5
t-30.5 21t-20.5 31t-7.5 47.5z" />
    <glyph glyph-name="semicolon" unicode=";" horiz-adv-x="456" 
d="M151 771q0 30 28 58t58 28t47.5 -7.5t31 -20.5t21 -30.5t7.5 -37.5t-7.5 -37.5t-21 -31t-31 -21t-37.5 -7.5t-37.5 7.5t-30.5 21t-20.5 31t-7.5 47.5zM266 18q0 24 -21 25q-23 -2 -38 -3q-102 0 -102 90q0 46 31 70t66 23q70 0 109.5 -44t39.5 -128t-64.5 -143
t-161.5 -58l-10 59q88 5 131 60q20 25 20 49z" />
    <glyph glyph-name="less" unicode="&#x3c;" horiz-adv-x="1126" 
d="M1021 1226v-183l-721 -335l720 -335v-181l-915 438v158z" />
    <glyph glyph-name="equal" unicode="=" horiz-adv-x="1126" 
d="M105 916h916v-134h-916v134zM105 599h916v-134h-916v134z" />
    <glyph glyph-name="greater" unicode="&#x3e;" horiz-adv-x="1125" 
d="M105 192v183l719 334l-719 335v182l915 -439v-157z" />
    <glyph glyph-name="question" unicode="?" horiz-adv-x="1089" 
d="M444 106q0 44 30 73t74 29t74 -29t30 -73t-30 -74.5t-74 -30.5t-74 30.5t-30 74.5zM557 1344q199 0 313 -112t114 -263q0 -152 -82 -258v1q-31 -41 -122 -129q-92 -89 -107 -115v1q-23 -43 -27 -84.5t-4 -86.5h-188q0 121 11 152t26 70q15 40 84 115l104 104v-1
q108 106 108 204q-1 98 -59 160t-173 62q-152 0 -218 -117q-35 -58 -45 -221h-187q4 212 70 319q128 199 382 199z" />
    <glyph glyph-name="at" unicode="@" horiz-adv-x="1798" 
d="M1085 874q0 42 -35 76t-84 34q-98 0 -190 -120q-54 -70 -82 -158t-27 -151q0 -65 30 -103t87 -38q150 0 226 211l49 136q26 71 26 113zM937 -43q-325 0 -509 104q-323 182 -323 597q0 269 126 451q125 183 323 263t413 80q357 0 557 -195q169 -165 169 -393t-120 -377
q-86 -106 -240 -157q-92 -30 -174 -30q-130 0 -167 110q-108 -110 -226 -110t-186 82q-66 82 -66 205q0 169 107 318q138 191 328 191q133 0 192 -102l28 69h143l-177 -509q-19 -54 -19 -85q0 -55 72 -55t146 36q107 52 157 158t50 226q0 194 -119 318q-158 164 -462 164
t-504 -172q-199 -172 -199 -490q0 -252 144 -394q105 -103 239 -135t287 -32q278 0 461 55q73 23 162 66l53 -118q-236 -139 -666 -139z" />
    <glyph glyph-name="A" unicode="A" horiz-adv-x="1342" 
d="M908 584l-139 374q-71 192 -100 285q-34 -97 -102 -277l-142 -382h483zM776 1415l551 -1415h-207l-157 433h-592l-161 -433h-196l553 1415h209z" />
    <glyph glyph-name="B" unicode="B" horiz-adv-x="1369" 
d="M350 658v-496h372q193 0 258 34q114 57 114 219t-152 220q-60 23 -251 23h-341zM350 1247v-438h335q137 1 209 21t112 92q26 47 26 108q0 153 -128 199q-51 18 -200 18h-354zM164 1409h567q206 0 300 -47t141 -132t47 -174q0 -135 -97 -230q-45 -45 -111 -70
q78 -21 122 -51q148 -101 148 -283t-93 -281t-213 -127q-63 -14 -156 -14h-655v1409z" />
    <glyph glyph-name="C" unicode="C" horiz-adv-x="1431" 
d="M738 -32q-317 0 -494 231q-150 195 -150 515t185 523q185 204 479 204t460 -180q114 -123 128 -275h-188q-24 109 -96 181q-115 116 -304 116q-253 0 -380 -206q-97 -156 -97 -380t101 -378q126 -193 374 -193q211 0 324 147q73 95 92 258h185q-19 -215 -136 -359
q-166 -204 -483 -204z" />
    <glyph glyph-name="D" unicode="D" horiz-adv-x="1420" 
d="M350 1247v-1085h305q147 0 220 25q142 48 213 223q49 121 49 315q0 275 -138 409q-75 75 -159 94t-166 19h-324zM164 1409h506q176 0 288 -39t204 -143q163 -180 163 -493q0 -376 -198 -578q-111 -112 -255 -142q-68 -14 -181 -14h-527v1409z" />
    <glyph glyph-name="E" unicode="E" horiz-adv-x="1238" 
d="M1140 1409v-162h-790v-447h738v-151h-738v-487h800v-162h-986v1409h976z" />
    <glyph glyph-name="F" unicode="F" horiz-adv-x="1136" 
d="M1090 1409v-162h-740v-445h651v-151h-651v-651h-186v1409h926z" />
    <glyph glyph-name="G" unicode="G" horiz-adv-x="1519" 
d="M1386 744v-744h-118l-29 107q-11 43 -19 69q-171 -208 -453 -208q-339 0 -524 244q-149 196 -149 478q0 332 188 542t486 209q298 0 463 -169q121 -124 139 -296h-182q-14 95 -80 172q-114 135 -341 135q-227 1 -357 -163t-129 -412q0 -248 112 -399q136 -183 385 -183
q194 0 316 120t126 347h-451v151h617z" />
    <glyph glyph-name="H" unicode="H" horiz-adv-x="1444" 
d="M1280 1409v-1409h-186v660h-744v-660h-186v1409h186v-587h744v587h186z" />
    <glyph glyph-name="I" unicode="I" horiz-adv-x="514" 
d="M350 1409v-1409h-186v1409h186z" />
    <glyph glyph-name="J" unicode="J" horiz-adv-x="995" 
d="M851 1409v-955q0 -128 -12 -199q-23 -135 -127 -211t-266 -76q-286 0 -378 193q-43 92 -43 250q0 25 1 54h181v-51q0 -140 39 -200q58 -88 194 -88t187 85q38 63 38 242v956h186z" />
    <glyph glyph-name="K" unicode="K" horiz-adv-x="1319" 
d="M350 0h-186v1409h186v-555q-1 -99 -1 -146q32 30 93 93l623 608h244l-595 -565l618 -844h-236l-512 716l-234 -222v-494z" />
    <glyph glyph-name="L" unicode="L" horiz-adv-x="1141" 
d="M1098 162v-162h-934v1409h186v-1247h748z" />
    <glyph glyph-name="M" unicode="M" horiz-adv-x="1737" 
d="M1573 1409v-1409h-179l3 632q1 352 22 626l-128 -356l-335 -902h-162l-352 891q-76 194 -122 354q19 -302 20 -607l3 -638h-179v1409h254l330 -859q88 -228 127 -357q47 144 123 354l317 862h258z" />
    <glyph glyph-name="N" unicode="N" horiz-adv-x="1455" 
d="M1291 1409v-1409h-205l-502 759q-191 289 -255 421q9 -105 12 -337l1 -131v-712h-178v1409h202l526 -802q160 -243 235 -385q-13 280 -13 482v705h177z" />
    <glyph glyph-name="O" unicode="O" horiz-adv-x="1538" 
d="M1256 692q0 275 -134 433t-350 158t-352 -152q-138 -153 -138 -415q0 -425 300 -552q90 -38 190 -38q199 0 327 131q157 160 157 435zM95 703q0 341 190 539q189 198 487 199q298 -1 484 -203t187 -513q0 -311 -145 -505q-188 -252 -530 -252t-530 254q-143 192 -143 481
z" />
    <glyph glyph-name="P" unicode="P" horiz-adv-x="1278" 
d="M350 1247v-517h359q153 0 223 51q95 70 95 215t-111 211q-49 29 -106 35t-128 5h-332zM164 1409h560q143 0 221 -23q125 -37 197 -140t72 -242q0 -241 -164 -352q-80 -55 -187 -68q-41 -5 -131 -5h-382v-579h-186v1409z" />
    <glyph glyph-name="Q" unicode="Q" horiz-adv-x="1514" 
d="M1255 692q0 271 -133 431q-132 160 -354 160q-222 -1 -354 -159t-133 -410q0 -252 109 -401q76 -105 182 -146t202 -41q98 0 192 39l-155 124l97 117l185 -154q162 169 162 440zM765 -32q-303 0 -487 205t-184 533t187 532q99 109 227 156t259 47q311 -1 493 -209
t182 -525q0 -228 -88 -397q-52 -98 -121 -164l186 -148l-96 -117l-215 171q-146 -84 -343 -84z" />
    <glyph glyph-name="R" unicode="R" horiz-adv-x="1416" 
d="M346 1247v-486h351q121 0 199 16q78 15 124 77t45 163t-57 155t-123 64t-139 11h-400zM160 1409h644q178 0 277 -62q171 -106 171 -321q0 -165 -104 -266q-55 -53 -137 -81q102 -20 155 -101q40 -59 50 -154q4 -29 18 -195t54 -209l18 -20h-213q-13 18 -23 55t-22 243
q-10 206 -105 269q-66 43 -226 43h-371v-610h-186v1409z" />
    <glyph glyph-name="S" unicode="S" horiz-adv-x="1273" 
d="M599 1283q-133 0 -212 -47q-105 -64 -105 -176t75 -156t271 -85q196 -42 263 -65q151 -52 223 -146t72 -212q0 -199 -158 -321q-137 -107 -368 -107t-379 82q-223 123 -226 415h180q3 -136 71 -213q110 -126 345 -126q173 0 261 72t87 172q1 100 -55 152t-185 90
q-35 10 -199 48t-203 52q-127 43 -191 121t-63 204q1 189 137 297t361 107q334 0 466 -209q59 -94 64 -236h-179q-16 130 -80 196q-89 91 -273 91z" />
    <glyph glyph-name="T" unicode="T" horiz-adv-x="1199" 
d="M1166 1409v-162h-474v-1247h-186v1247h-473v162h1133z" />
    <glyph glyph-name="U" unicode="U" horiz-adv-x="1420" 
d="M1277 1409v-822q0 -189 -23 -269q-99 -350 -538 -350q-236 0 -376 96t-179 279q-18 87 -18 247v819h186v-824q0 -131 10 -191q46 -268 379 -268q242 0 321 139q40 72 46 154t6 166v824h186z" />
    <glyph glyph-name="V" unicode="V" horiz-adv-x="1247" 
d="M1233 1409l-504 -1409h-212l-503 1409h207l296 -888l39 -125q42 -133 69 -239q38 141 113 363l298 889h197z" />
    <glyph glyph-name="W" unicode="W" horiz-adv-x="1835" 
d="M1812 1409l-375 -1409h-197l-238 862q-58 212 -86 370q-31 -147 -92 -359l-237 -873h-199l-365 1409h193l209 -864q51 -215 73 -353q21 129 83 357l235 860h205l240 -880q48 -176 77 -337q20 127 71 333l217 884h186z" />
    <glyph glyph-name="X" unicode="X" horiz-adv-x="1227" 
d="M1193 1409l-467 -683l495 -726h-226l-290 437q-48 74 -92 152q-36 -58 -96 -147l-297 -442h-213l497 726l-466 683h223l241 -369q77 -119 112 -188q58 97 119 188l250 369h210z" />
    <glyph glyph-name="Y" unicode="Y" horiz-adv-x="1240" 
d="M716 0h-186v577l-549 832h224l332 -526q59 -93 92 -153q35 66 87 148l330 531h213l-543 -832v-577z" />
    <glyph glyph-name="Z" unicode="Z" horiz-adv-x="1234" 
d="M1158 1409v-154l-801 -995q-8 -10 -32 -38t-55 -65q221 5 259 5h650v-162h-1124v158l809 1004q10 13 78 89q-129 -4 -250 -4h-568v162h1034z" />
    <glyph glyph-name="bracketleft" unicode="[" horiz-adv-x="636" 
d="M478 1409v-132h-212v-1540h212v-134h-373v1806h373z" />
    <glyph glyph-name="backslash" unicode="\" horiz-adv-x="911" 
d="M242 1409l564 -1412h-142l-559 1412h137z" />
    <glyph glyph-name="bracketright" unicode="]" horiz-adv-x="583" 
d="M105 -397v134h212v1540h-212v132h373v-1806h-373z" />
    <glyph glyph-name="asciicircum" unicode="^" horiz-adv-x="1142" 
d="M275 785h-170l362 628h208l362 -628h-171l-296 503z" />
    <glyph glyph-name="underscore" unicode="_" horiz-adv-x="1267" 
d="M105 -211h1057v-117h-1057v117z" />
    <glyph glyph-name="grave" unicode="`" horiz-adv-x="564" 
d="M105 1444h208l146 -282h-117z" />
    <glyph glyph-name="a" unicode="a" horiz-adv-x="1084" 
d="M244 286q0 -176 216 -177q111 1 194 63t99 123q7 27 7 83v136q-36 -25 -80 -35q-44 -11 -168 -25t-182 -42q-86 -42 -86 -126zM904 -17q-69 -1 -102 45t-34 107q-143 -165 -370 -165q-144 0 -236 76t-91 215q0 201 192 278q57 23 107 31t192 24q142 18 173 62
q21 29 21 77q0 178 -229 178q-143 0 -205 -73q-36 -43 -46 -136h-164q3 156 111 253t320 97t315 -101q50 -48 64 -134q3 -17 3 -118v-510q0 -65 62 -65q21 0 45 11v-131q-59 -21 -128 -21z" />
    <glyph glyph-name="b" unicode="b" horiz-adv-x="1211" 
d="M639 911q-137 1 -229 -99t-92 -296t86 -301q86 -104 230 -104t230 110q86 109 85 295t-87 290t-223 105zM324 1409v-528q106 171 324 171t346 -145t127 -396q1 -251 -131 -396t-339 -145q-237 0 -339 178v-148h-156v1409h168z" />
    <glyph glyph-name="c" unicode="c" horiz-adv-x="1090" 
d="M564 -30q-236 0 -367 174q-106 141 -106 352q0 276 143 416t362 140t336 -145q69 -86 85 -218h-174q-17 87 -63 139q-74 83 -199 83q-167 0 -251 -136q-67 -107 -67 -269t68 -267q84 -128 241 -128t235 128q33 55 45 133h171q-20 -147 -98 -245q-125 -157 -361 -157z" />
    <glyph glyph-name="d" unicode="d" horiz-adv-x="1211" 
d="M572 911q-136 -1 -222 -103q-88 -102 -88 -290t87 -297q87 -110 231 -110t227 106q84 105 84 301q1 196 -91 294t-228 99zM549 1052q244 0 338 -172v529h168v-1409h-158v150q-96 -180 -335 -180q-208 0 -340 144t-132 396q0 254 128 398t331 144z" />
    <glyph glyph-name="e" unicode="e" horiz-adv-x="1114" 
d="M567 911q-158 0 -237 -117q-49 -72 -64 -188h593q-8 105 -52 175q-82 130 -240 130zM574 -30q-247 0 -375 168q-108 144 -108 374q-1 230 133 386q134 154 345 154q172 0 299 -108q168 -143 164 -468h-768q12 -365 322 -365q151 0 222 108q27 43 48 108h165
q-80 -357 -447 -357z" />
    <glyph glyph-name="f" unicode="f" horiz-adv-x="607" 
d="M466 1281q-62 0 -84 -30t-23 -112v-117h195v-138h-195v-884h-168v884h-172v138h172v67q0 100 6 141q15 94 85 143t183 49q49 0 116 -8v-144q-53 11 -115 11z" />
    <glyph glyph-name="g" unicode="g" horiz-adv-x="1184" 
d="M565 911q-155 1 -229 -111t-75 -274q0 -227 110 -326q79 -71 187 -71q150 1 226 117t75 304q0 188 -104 287q-77 74 -190 74zM1028 1022v-911q0 -133 -17 -210q-69 -319 -469 -319q-200 0 -316 97q-85 72 -102 205h173q31 -171 263 -171q178 0 240 93t62 244v124
q-32 -56 -62 -86q-99 -101 -265 -101q-199 0 -323 142q-124 141 -123 385q-1 244 129 391t328 147q135 0 229 -70q50 -37 97 -108v148h156z" />
    <glyph glyph-name="h" unicode="h" horiz-adv-x="1168" 
d="M324 1409v-412q0 -19 -4 -122q118 177 347 177t312 -153q40 -74 40 -235v-664h-168v643q0 135 -34 185q-58 83 -190 83q-132 -1 -204 -69t-90 -165q-9 -52 -9 -194v-483h-168v1409h168z" />
    <glyph glyph-name="i" unicode="i" horiz-adv-x="479" 
d="M140 1248q0 20 7.5 37.5t21 31t31 21t48 7.5t58 -29t27.5 -68q0 -40 -28 -68t-58 -28t-47.5 7.5t-31 20.5t-21 30.5t-7.5 37.5zM324 1022v-1022h-168v1022h168z" />
    <glyph glyph-name="j" unicode="j" horiz-adv-x="479" 
d="M140 1248q0 20 7.5 37.5t21 31t31 21t48 7.5t58 -29t27.5 -68q0 -40 -28 -68t-58 -28t-47.5 7.5t-31 20.5t-21 30.5t-7.5 37.5zM323 1022v-1048q0 -138 -6 -193q-21 -192 -253 -192q-35 0 -76 7v142q33 -7 80 -7q47 -1 67 27t20 215v1049h168z" />
    <glyph glyph-name="k" unicode="k" horiz-adv-x="1068" 
d="M324 0h-168v1409h168v-838q48 51 69 71l402 380h224l-405 -370l435 -652h-214l-350 534l-161 -147v-387z" />
    <glyph glyph-name="l" unicode="l" horiz-adv-x="480" 
d="M324 1409v-1409h-168v1409h168z" />
    <glyph glyph-name="m" unicode="m" horiz-adv-x="1738" 
d="M312 1022v-148q64 82 140 130t207 48t211 -81q33 -35 60 -99q128 180 326 180t283 -127q50 -75 50 -220v-705h-168v644q0 123 -19 168q-42 99 -184 99q-100 0 -172 -60t-84 -169q-5 -44 -5 -141v-541h-168v656q0 147 -46 201q-47 54 -147 54t-174 -62t-91 -174
q-7 -49 -7 -134v-541h-168v1022h156z" />
    <glyph glyph-name="n" unicode="n" horiz-adv-x="1168" 
d="M312 1022v-159q48 66 86 97q110 92 264 92t243 -68t107 -190q7 -43 7 -134v-660h-168v601q0 107 -11 165q-12 58 -64 101q-52 44 -169 44t-199 -84q-58 -61 -71 -139t-13 -193v-495h-168v1022h156z" />
    <glyph glyph-name="o" unicode="o" horiz-adv-x="1169" 
d="M908 505q0 202 -90 304t-229 102q-139 1 -233 -101t-93 -299q0 -197 91 -299q90 -102 228 -101q138 0 218 81q108 111 108 313zM578 1052q238 0 370 -146t132 -406t-152 -408q-126 -122 -352 -122t-356 152t-129 384q0 230 113 374q136 172 374 172z" />
    <glyph glyph-name="p" unicode="p" horiz-adv-x="1213" 
d="M634 911q-142 0 -230 -104t-88 -300t93 -296t231 -100q138 -1 225 105q86 106 86 293t-88 295q-87 108 -229 107zM312 1022v-146q41 57 76 87q104 89 265 89q200 0 335 -141t135 -394q1 -253 -127 -400t-342 -147t-330 170v-537h-168v1419h156z" />
    <glyph glyph-name="q" unicode="q" horiz-adv-x="1211" 
d="M578 911q-140 0 -227 -107t-87 -296t86 -293t224 -104q137 -1 229 99t92 298q-1 198 -89 300q-88 103 -228 103zM1057 1022v-1419h-168v539q-118 -172 -331 -172q-214 0 -340 143t-126 401t134 398t336 140q168 0 272 -92q32 -28 67 -85v147h156z" />
    <glyph glyph-name="r" unicode="r" horiz-adv-x="700" 
d="M696 1052v-175q-37 3 -53 3q-135 0 -215 -82t-96 -216q-8 -66 -8 -185v-397h-168v1022h156v-213q76 163 208 215q71 28 176 28z" />
    <glyph glyph-name="s" unicode="s" horiz-adv-x="997" 
d="M458 911q-95 0 -152 -36q-57 -37 -57 -95t29 -87q30 -29 88 -47t155 -39q213 -47 304 -113t91 -189q0 -122 -76 -208q-112 -127 -350 -127t-351 123q-79 86 -85 230h165q10 -85 46 -129q70 -83 221 -83t218 72q39 42 39 98q0 97 -136 138q-55 17 -179 47t-159 42
q-192 66 -192 236t143 252q97 56 246 56q384 0 409 -328h-169q-9 69 -36 105q-60 82 -212 82z" />
    <glyph glyph-name="t" unicode="t" horiz-adv-x="612" 
d="M543 1022v-138h-202v-603q0 -97 18 -127t78 -31q60 0 106 13v-145q-64 -8 -128 -8q-163 0 -212 80q-22 35 -26 91t-4 221v509h-172v138h172v303h168v-303h202z" />
    <glyph glyph-name="u" unicode="u" horiz-adv-x="1140" 
d="M984 1022v-1022h-156v160q-127 -190 -346 -190q-178 0 -267 112q-66 83 -66 277v663h168v-602q0 -170 32 -223q52 -86 181 -86q168 0 247 152q39 74 39 265v494h168z" />
    <glyph glyph-name="v" unicode="v" horiz-adv-x="951" 
d="M942 1022l-373 -1022h-180l-380 1022h186l183 -518q56 -156 108 -336q30 115 109 348l171 506h176z" />
    <glyph glyph-name="w" unicode="w" horiz-adv-x="1468" 
d="M1450 1022l-326 -1022h-179l-152 558q-30 111 -60 255q-30 -138 -60 -253l-146 -560h-182l-327 1022h186l141 -489q46 -156 92 -347q52 242 80 352l126 484h186l147 -543q26 -96 67 -293q39 178 72 289l159 547h176z" />
    <glyph glyph-name="x" unicode="x" horiz-adv-x="991" 
d="M948 1022l-353 -470l395 -552h-216l-220 322q-37 55 -65 102q-24 -39 -67 -102l-217 -322h-204l384 538l-356 484h216l163 -231q16 -23 81 -126q70 102 88 127l167 230h204z" />
    <glyph glyph-name="y" unicode="y" horiz-adv-x="974" 
d="M230 -411q-48 0 -98 11l-26 6v151q73 -22 108 -22q77 0 121 86q25 47 78 186l-404 1015h188l224 -598q25 -65 78 -237q51 159 83 252l205 583h177l-375 -988q-101 -266 -141 -329q-72 -116 -218 -116z" />
    <glyph glyph-name="z" unicode="z" horiz-adv-x="948" 
d="M894 1022v-111l-549 -684q-12 -15 -77 -90q80 1 127 1h524v-138h-862v125l535 665q15 19 85 95q-76 -1 -96 -1h-485v138h798z" />
    <glyph glyph-name="braceleft" unicode="{" horiz-adv-x="693" 
d="M387 259v-300q0 -105 21 -145t60 -59t120 -20v-132h-14q-149 0 -202 19q-100 36 -130 147q-16 57 -16 148v320q0 105 -32 145t-89 56v141q57 17 89 57t32 136v350q0 152 69 219q49 49 116 59t164 9h13v-132q-102 -3 -142 -34t-50 -79t-9 -111v-308q0 -107 -27 -157
t-90 -84q71 -38 94 -96t23 -149z" />
    <glyph glyph-name="bar" unicode="|" horiz-adv-x="394" 
d="M105 1409h184v-1761h-184v1761z" />
    <glyph glyph-name="braceright" unicode="}" horiz-adv-x="693" 
d="M307 753v300q0 105 -21 145q-20 40 -60 59t-121 20v132h14q150 0 203 -19q100 -36 130 -147q16 -57 16 -148v-320q0 -106 32 -145t88 -56v-141q-56 -17 -88 -57t-32 -136v-350q0 -151 -69 -219q-49 -49 -116 -59t-165 -9h-13v132q103 3 143 35t50 79q10 48 9 110v308
q-1 107 27 157t90 83q-71 39 -94 97t-23 149z" />
    <glyph glyph-name="asciitilde" unicode="~" horiz-adv-x="1203" 
d="M385 856q76 0 209 -66q132 -66 166 -74q34 -10 61 -10q108 0 193 150l84 -66q-50 -110 -124 -171t-163 -61q-33 0 -77 13t-170 75t-187 61q-102 0 -188 -150l-84 66q28 62 79 128q81 105 201 105z" />
    <glyph glyph-name="delete" horiz-adv-x="1600" 
d="M492 427q0 167 -104 207q-31 12 -100 12h-124v-448h126q102 0 143 41q59 59 59 188zM572 402q0 -102 -51 -174q-51 -70 -128 -89q-41 -10 -95 -10h-211v586h202q68 0 104 -8q179 -41 179 -305zM1080 129h-438v586h424v-69h-346v-179h324v-69h-324v-200h360v-69zM1520 129
h-366v586h78v-517h288v-69z" />
    <glyph glyph-name="exclamdown.001" unicode="&#xa1;" horiz-adv-x="682" 
d="M499 -407h-304v344l73 741h158l73 -741v-344zM488 1062v-281h-282v281h282z" />
    <glyph glyph-name="cent" unicode="&#xa2;" horiz-adv-x="1139" 
d="M603 865q-106 0 -168.5 -73t-62.5 -255t76 -268l179 595q-13 1 -24 1zM84 535q0 259 139 405t375 146q45 0 94 -6l113 376l123 -35l-112 -371q189 -72 256 -302l-277 -50q-12 72 -51 113l-182 -602q22 -4 45 -4q79 0 130.5 45.5t72.5 156.5l276 -47q-87 -384 -491 -384
q-50 0 -101 7l-117 -386l-122 34l116 385q-138 60 -212.5 196.5t-74.5 322.5z" />
    <glyph glyph-name="sterling" unicode="&#xa3;" horiz-adv-x="1139" 
d="M369 62q-122 0 -249 -87l-107 242q113 81 162.5 172.5t49.5 174.5q0 27 -4 57h-208v221h157q-41 118 -41 233t59.5 214t168.5 150.5t238 51.5q197 0 314 -99.5t143 -285.5l-271 -40q-36 201 -194 201q-80 0 -133 -53.5t-53 -144.5t50 -227h312v-221h-266q3 -23 3 -73
t-30 -117t-123 -176q55 28 114 28t80 -3t115 -27t156 -24q61 0 187 56l108 -238q-129 -70 -276 -70q-90 0 -240 42.5t-222 42.5z" />
    <glyph glyph-name="currency" unicode="&#xa4;" horiz-adv-x="1139" 
d="M364 728q0 -84 59 -143t143 -59t143 59t59 143t-59 143t-143 59t-143 -59t-59 -143zM566 1171q115 0 218 -57l134 134l167 -169l-132 -133q56 -102 56 -217t-56 -219l134 -133l-167 -171l-136 136q-102 -57 -216 -57t-218 56l-130 -131l-170 168l130 132
q-57 106 -57 219.5t54 211.5l-132 131l166 178l136 -136q104 57 219 57z" />
    <glyph glyph-name="idieresis" unicode="&#xa5;" horiz-adv-x="1139" 
d="M422 273h-371v221h371v120h-371v221h261l-311 631h308l200 -426q38 -80 54 -141q19 66 54 141l204 426h308l-315 -631h265v-221h-376v-120h376v-221h-376v-273h-281v273z" />
    <glyph glyph-name="brokenbar" unicode="&#xa6;" horiz-adv-x="573" 
d="M176 -431v791h223v-791h-223zM176 701v790h223v-790h-223z" />
    <glyph glyph-name="section" unicode="&#xa7;" horiz-adv-x="1139" 
d="M822 440q0 33 -23 68t-126 110l-273 198q-34 -20 -60 -57t-26 -79q0 -101 135 -192l286 -195q87 79 87 147zM143 1179q0 125 105.5 218.5t299.5 93.5t306 -93.5t132 -243.5l-275 -29q-4 74 -43.5 113t-107.5 39t-101.5 -28.5t-33.5 -70.5q1 -42 39 -80t212 -150t246 -172
q146 -124 146 -301q0 -176 -182 -304q121 -111 121 -257q0 -145 -111 -245t-315 -100t-324 99t-142 264l274 33q36 -181 196 -181q66 0 105 34.5t39 82.5t-37 85q-38 37 -266.5 182.5t-297.5 241.5t-69 215q0 215 185 320q-101 109 -101 234z" />
    <glyph glyph-name="dieresis.001" unicode="&#xa8;" horiz-adv-x="682" 
d="M435 1250v241h242v-241h-242zM5 1250v241h241v-241h-241z" />
    <glyph glyph-name="copyright" unicode="&#xa9;" horiz-adv-x="1681" 
d="M849 1338q-265 0 -449 -184q-88 -88 -136 -206t-48 -245q0 -177 92 -329t238 -228q146 -75 295 -75q258 -1 441 185t183 449q-1 177 -91 329t-236 228t-289 76zM826 -32q-192 0 -368 108t-265 280q-88 172 -88 364t107 368t280 265q172 88 364 88t369 -109t264 -280
t87 -363t-108 -368.5t-279 -264.5t-363 -88zM826 282q-194 0 -295 123t-101 306t114 300t294 117t283 -104q72 -73 81 -171h-132q-14 64 -57 105q-65 62 -176 62q-145 0 -219 -111q-56 -85 -56 -208t59 -207q72 -104 217 -104q212 0 240 227h131q-13 -134 -86 -217
q-103 -118 -297 -118z" />
    <glyph glyph-name="ocircumflex" unicode="&#xaa;" horiz-adv-x="758" 
d="M244 978q0 -36 27 -60.5t77 -24.5t88 41.5t38 120.5v40q-22 -13 -96 -29t-104 -34t-30 -54zM371 1491q144 0 219 -39q48 -25 68 -77t20 -166v-239q0 -104 6.5 -139.5t23.5 -69.5h-190q-13 26 -23 71q-88 -89 -209 -89t-185 60.5t-64 142.5t31.5 128.5t84.5 69.5t164 45
t157 39q0 14 -1 42q-2 64 -101 64q-52 0 -74 -15t-44 -67l-189 38q23 99 92.5 150t213.5 51z" />
    <glyph glyph-name="yen" unicode="&#xab;" horiz-adv-x="1139" 
d="M1025 983l-259 -451l259 -462h-221l-316 462l316 451h221zM633 983l-260 -451l260 -462h-221l-316 462l316 451h221z" />
    <glyph glyph-name="registered" unicode="&#xac;" horiz-adv-x="1196" 
d="M853 376v441h-768v257h1025v-698h-257z" />
    <glyph glyph-name="hyphen" unicode="&#xad;" horiz-adv-x="682" 
d="M115 391v281h552v-281h-552z" />
    <glyph glyph-name="registered.003" unicode="&#xae;" horiz-adv-x="1096" 
d="M171 1165q0 -157 125 -268q108 -97 264 -97t260 116t105 271q0 156 -116 261q-115 105 -271 105q-156 1 -262 -115t-105 -273zM560 1619q184 0 317 -147q114 -125 114 -309q-1 -185 -137 -307t-320 -122t-306 136t-123 318q0 182 136 307q135 124 319 124zM440 1341v-138
h111q64 0 91 15t27 59t-41 57q-20 7 -60 7h-128zM360 1409h227q63 0 99 -21q63 -36 63 -109t-65 -109q30 -18 40 -38t15 -77q5 -55 11 -73t28 -38h-97q-15 22 -18 84t-21 86t-84 24h-118v-194h-80v465z" />
    <glyph glyph-name="ydieresis" unicode="&#xaf;" horiz-adv-x="1131" 
d="M-19 1552v183h1168v-183h-1168z" />
    <glyph glyph-name="degree.001" unicode="&#xb0;" horiz-adv-x="819" 
d="M252 1172q0 -63 45 -108t108 -45t108 45t45 108t-45 108t-108 45t-108 -45t-45 -108zM86 1172q0 132 93.5 225.5t225.5 93.5t225.5 -93.5t93.5 -225.5t-93.5 -225.5t-225.5 -93.5t-225.5 93.5t-93.5 225.5z" />
    <glyph glyph-name="plusminus" unicode="&#xb1;" horiz-adv-x="1124" 
d="M50 0v263h1025v-263h-1025zM434 356v381h-384v263h384v381h256v-381h385v-263h-385v-381h-256z" />
    <glyph glyph-name="twosuperior" unicode="&#xb2;" horiz-adv-x="682" 
d="M442 1259q0 82 -76 82t-101 -24.5t-31 -90.5l-189 16q15 117 75 171q80 71 222 71t216 -64t74 -159t-96 -195q-26 -26 -110 -92t-108 -89h314v-158h-607q11 85 55 152t176 171t159 138t27 71z" />
    <glyph glyph-name="threesuperior.001" unicode="&#xb3;" horiz-adv-x="682" 
d="M275 1196q136 -4 136 82q0 26 -21 44.5t-83.5 18.5t-77.5 -98l-178 26q25 103 74 147q76 68 204 68t200.5 -62t72.5 -145t-97 -141q136 -49 136 -179q0 -95 -84.5 -168.5t-216.5 -73.5t-209 63t-91 168l184 20q16 -108 113 -108q49 0 79 30t30 76t-28.5 73.5t-66.5 27.5
t-99 -15z" />
    <glyph glyph-name="bullet" unicode="&#xb4;" horiz-adv-x="663" 
d="M105 1192l138 299h315l-275 -299h-178z" />
    <glyph glyph-name="micro" unicode="&#xb5;" horiz-adv-x="1180" 
d="M111 1062h279v-481q0 -208 42 -283q53 -97 157 -97q56 0 106 36t74 100t24 241v484h284v-1062h-262v128q-30 -56 -57 -84t-72.5 -49t-99.5 -21t-102 34q-47 34 -94 120v-535h-279v1469z" />
    <glyph glyph-name="paragraph.001" unicode="&#xb6;" horiz-adv-x="1153" 
d="M501 -397v1064q-19 -1 -31 -1q-112 0 -196 50t-126 133q-43 83 -43 197q1 114 67 212t192 132q72 19 184 19h500v-113h-92v-1693h-137v1693h-181v-1693h-137z" />
    <glyph glyph-name="glyph126" unicode="&#xb7;" horiz-adv-x="569" 
d="M147 573v281h281v-281h-281z" />
    <glyph glyph-name="cedilla" unicode="&#xb8;" horiz-adv-x="682" 
d="M228 -296q88 0 126 28t38 64t-31 61t-95 25t-132 -20l26 99q78 27 186 27t172.5 -55t64.5 -139t-72 -138q-97 -75 -252 -75t-221 16v118q102 -11 190 -11z" />
    <glyph glyph-name="onesuperior" unicode="&#xb9;" horiz-adv-x="682" 
d="M495 727h-190v513q-94 -65 -214 -98v155q95 27 161 78t89 109h154v-757z" />
    <glyph glyph-name="ordmasculine.001" unicode="&#xba;" horiz-adv-x="748" 
d="M237 1114q0 -110 37 -157t96 -47t96.5 46.5t37.5 156.5t-37.5 156.5t-96.5 46.5t-96 -46t-37 -156zM26 1115q0 178 94 277t252 99t253 -99.5t95 -276.5t-94.5 -276t-252.5 -99t-252.5 98.5t-94.5 276.5z" />
    <glyph glyph-name="trademark" unicode="&#xbb;" horiz-adv-x="1139" 
d="M106 70l260 452l-260 461h221l316 -461l-316 -452h-221zM498 70l260 452l-260 461h221l316 -461l-316 -452h-221z" />
    <glyph glyph-name="onequarter" unicode="&#xbc;" horiz-adv-x="1708" 
d="M1403 249v225l-183 -225h183zM1403 -42v146h-360v141l382 470h156v-466h107v-145h-107v-146h-178zM499 -54h-159l869 1538h159zM496 727h-190v513q-94 -65 -214 -98v155q94 27 160 78t90 109h154v-757z" />
    <glyph glyph-name="macron" unicode="&#xbf;" horiz-adv-x="683" 
d="M603 1297h-521v108h521v-108z" />
    <glyph glyph-name="degree" unicode="&#xc1;" horiz-adv-x="768" 
d="M649 1140q0 100 -70.5 170t-170.5 70t-170.5 -71t-70.5 -171t70.5 -170t170.5 -70t170.5 71t70.5 171zM713 1140q0 -127 -89.5 -216.5t-215.5 -89.5t-215.5 89t-89.5 216t88.5 216t216.5 89t216.5 -88.5t88.5 -215.5z" />
    <glyph glyph-name="dieresis" unicode="&#xc2;" horiz-adv-x="683" 
d="M262 1352q0 -42 -29.5 -72t-71.5 -30t-71 29t-29 71t29 71.5t71 29.5t71.5 -28.5t29.5 -70.5zM626 1350q0 -42 -29.5 -71.5t-71.5 -29.5t-71.5 29.5t-29.5 71.5t29 71.5t71 29.5t72 -29.5t30 -71.5z" />
    <glyph glyph-name="acute" unicode="&#xc7;" horiz-adv-x="564" 
d="M222 1162h-117l146 282h208z" />
    <glyph glyph-name="ordfeminine" unicode="&#xc8;" horiz-adv-x="640" 
d="M139 974q-1 -90 93 -90t143 108q36 81 38 191q-96 -20 -173 -67q-101 -62 -101 -142zM464 796q-57 0 -57 68v95q-154 -160 -245 -160q-53 0 -88.5 39.5t-35.5 93.5q0 138 369 310v68q-1 95 -79 95t-126 -69t-54 -153h-46v157q151 101 278 101t127 -93v-434q0 -38 24 -38
q33 0 97 58v-38q-100 -100 -164 -100z" />
    <glyph glyph-name="dagger" unicode="&#xca;" horiz-adv-x="896" 
d="M808 844h-45q-5 63 -118 94l-171 47q20 -162 95 -334q-79 -313 -95 -978h-53q-18 626 -95 978q72 164 95 334l-134 -36q-72 -19 -98 -32q-55 -27 -60 -73h-42v338h42q8 -70 149 -105l143 -36l-34 192q-20 113 -28 134q-28 78 -93 82v45h360v-45q-62 0 -91 -77
q-10 -28 -27 -128l-34 -203l121 30q161 40 168 111h45v-338z" />
    <glyph glyph-name="questiondown" unicode="&#xcb;" horiz-adv-x="917" 
d="M277 -331q-121 0 -204 55t-83 160t68 200q40 52 152 160t166 198t55 228h100q-2 -154 -41 -255q-38 -101 -160 -261t-122 -247q0 -88 49.5 -134.5t129.5 -46.5q143 0 233 122t96 274h66v-302q-273 -151 -505 -151zM603 886q0 -50 -35 -85t-85 -35t-84.5 35t-34.5 85
t34 84.5t84 34.5t85.5 -34.5t35.5 -84.5z" />
    <glyph glyph-name="quoteright" unicode="&#xcd;" horiz-adv-x="512" 
d="M114 792q-3 0 -3 2q-9 14 53 116t123 162q-63 56 -123 158t-52 119q8 16 241 -171q62 -50 57 -106q5 -60 -57 -109q-210 -171 -239 -171z" />
    <glyph glyph-name="icircumflex" unicode="&#xd3;" horiz-adv-x="555" 
d="M517 129h-458v48q85 2 119 37t34 119v547q0 63 -72 63q-26 0 -50 -10t-31 -12v51l256 101h49v-740q0 -84 34 -119t119 -37v-48zM545 1234h-66l-214 126l-211 -126h-68l279 242z" />
    <glyph glyph-name="edieresis" unicode="&#xd4;" horiz-adv-x="896" 
d="M567 911q-158 0 -237 -117q-49 -72 -64 -188h593q-8 105 -52 175q-82 130 -240 130zM574 -30q-247 0 -375 168q-108 144 -108 374q-1 230 133 386q134 154 345 154q172 0 299 -108q168 -143 164 -468h-768q12 -365 322 -365q151 0 222 108q27 43 48 108h165
q-80 -357 -447 -357zM402 1352q0 -42 -30 -72t-71 -30q-42 0 -71 30t-29 70q0 42 29 72t71 29q41 -1 71 -29t30 -70zM766 1350q0 -42 -30 -72t-71 -29q-41 -1 -71 29t-30 72t29 71q29 30 71 30t72 -29q30 -30 30 -72z" />
    <glyph glyph-name="caron" unicode="&#xd8;" horiz-adv-x="683" 
d="M617 1473l-280 -242l-281 242h68l213 -132l214 132h66z" />
    <glyph glyph-name="caron" unicode="&#x2c7;" horiz-adv-x="683" 
d="M617 1473l-280 -242l-281 242h68l213 -132l214 132h66z" />
    <glyph glyph-name="caron" unicode="&#xff;" horiz-adv-x="683" 
d="M617 1473l-280 -242l-281 242h68l213 -132l214 132h66z" />
    <glyph glyph-name="udieresis" unicode="&#xd9;" horiz-adv-x="1131" 
d="M984 1022v-1022h-156v160q-127 -190 -346 -190q-178 0 -267 112q-66 83 -66 277v663h168v-602q0 -170 32 -223q52 -86 181 -86q168 0 247 152q39 74 39 265v494h168zM453 1352q1 -42 -29 -72t-72 -30t-71 30t-29 70q0 42 29 72t71 29t72 -29t29 -70zM817 1350
q1 -42 -29 -72t-72 -29q-42 -1 -72 29t-29 72q0 42 29 71q29 30 71 30t72 -29q30 -30 30 -72z" />
    <glyph glyph-name="acircumflex" unicode="&#xe4;" horiz-adv-x="960" 
d="M244 286q0 -176 216 -177q111 1 194 63t99 123q7 27 7 83v136q-36 -25 -80 -35q-44 -11 -168 -25t-182 -42q-86 -42 -86 -126zM904 -17q-69 -1 -102 45t-34 107q-143 -165 -370 -165q-144 0 -236 76t-91 215q0 201 192 278q57 23 107 31t192 24q142 18 173 62
q21 29 21 77q0 178 -229 178q-143 0 -205 -73q-36 -43 -46 -136h-164q3 156 111 253t320 97t315 -101q50 -48 64 -134q3 -17 3 -118v-510q0 -65 62 -65q21 0 45 11v-131q-59 -21 -128 -21zM754 1234h-66l-214 126l-211 -126h-68l279 242z" />
    <glyph glyph-name="logicalnot" unicode="&#xe5;" horiz-adv-x="1365" 
d="M1222 490h-108v466h-972v108h1080v-574z" />
    <glyph glyph-name="nonbreakingspace" unicode="&#xe6;" horiz-adv-x="500" 
 />
    <glyph glyph-name="exclamdown" unicode="&#xe7;" horiz-adv-x="650" 
d="M323 348q0 -63 115 -267q-77 0 -220 -176v817l105 106v-480zM360 981q0 -36 -27 -63t-63 -27t-63 27t-27 63t27 63t63 27t63 -27t27 -63z" />
    <glyph glyph-name="Agrave" unicode="&#xe8;" horiz-adv-x="1237" 
d="M908 584l-139 374q-71 192 -100 285q-34 -97 -102 -277l-142 -382h483zM776 1415l551 -1415h-207l-157 433h-592l-161 -433h-196l553 1415h209zM567 1767h208l146 -282h-117z" />
    <glyph glyph-name="guillemotright" unicode="&#xe9;" horiz-adv-x="854" 
d="M483 529l-340 -400h-93l232 400l-226 393h87zM784 529l-338 -400h-89l226 400l-226 393h87z" />
    <glyph glyph-name="OE" unicode="&#xeb;" horiz-adv-x="1771" 
d="M703 1355q-211 0 -335 -139t-123 -339q-1 -199 87 -367t243.5 -255.5t314.5 -87.5q66 0 107 10v1077q-125 101 -294 101zM1565 1408q57 0 57 48h49v-383h-73q0 287 -313 287h-106q-12 -74 -12 -220q-1 -146 65 -228t226 -83h89v-70l-368 -8v-574h112q311 0 368 286h76
l-76 -381h-51l1 10q0 37 -44 37h-512q-33 -1 -158 -15t-184 -14q-352 0 -536 275q-96 143 -96 328q0 315 246 540q111 102 227 143t274 41l272 -19h467z" />
    <glyph glyph-name="oe" unicode="&#xec;" horiz-adv-x="1685" 
d="M550 192q132 0 200 98t69 251q1 152 -101 302t-262 150q-133 -1 -205 -99t-72 -250t106 -302t265 -150zM1201 1011q-95 -1 -163 -75t-87 -173h472q-6 101 -66 175t-156 73zM1186 100q-199 0 -330 223q-165 -223 -401 -223q-186 0 -297 124t-111 326t147 363t360 161
q240 0 354 -208q154 208 349 208q154 0 239 -101t92 -259h-644q-2 -34 -2 -49q0 -166 86 -296t250 -130q162 0 346 210v-70q-239 -279 -438 -279z" />
    <glyph glyph-name="quotedblright" unicode="&#xee;" horiz-adv-x="795" 
d="M418 792q-21 0 44 110t127 170q-63 56 -123 158t-52 118q8 17 241 -170q62 -50 58 -106q4 -60 -58 -109q-210 -171 -237 -171zM114 792q-3 0 -3 2q-9 14 53 116t123 162q-63 56 -123 158t-52 119q8 16 241 -171q62 -50 57 -106q5 -60 -57 -109q-210 -171 -239 -171z" />
    <glyph glyph-name="quoteleft" unicode="&#xef;" horiz-adv-x="498" 
d="M375 792q-27 0 -237 171q-63 49 -58 109q-5 56 58 106q231 187 240 170q8 -16 -52 -118t-121 -158q61 -60 126 -170t44 -110z" />
    <glyph glyph-name="quotedblleft.001" unicode="&#xf1;" horiz-adv-x="795" 
d="M375 792q-27 0 -237 171q-63 49 -58 109q-5 56 58 106q231 187 240 170q8 -16 -52 -118t-121 -158q61 -60 126 -170t44 -110zM679 792q-29 0 -239 171q-61 49 -58 109q-3 56 58 106q232 187 243 170q5 -16 -55 -118t-121 -158q61 -60 126 -170t46 -110z" />
    <glyph glyph-name="Ydieresis" unicode="&#xf4;" horiz-adv-x="1195" 
d="M716 0h-186v577l-549 832h224l332 -526q59 -93 92 -153q35 66 87 148l330 531h213l-543 -832v-577zM555 1676q1 -42 -29 -72t-72 -29q-42 -1 -71 29t-29 72t29 70q29 30 71 30t72 -28q30 -30 29 -72zM919 1676q1 -42 -29 -72t-72 -30t-72 30t-29 70q0 42 29 72t71 30
t72 -29t30 -71z" />
    <glyph glyph-name="agrave" unicode="&#xf6;" horiz-adv-x="960" 
d="M244 286q0 -176 216 -177q111 1 194 63t99 123q7 27 7 83v136q-36 -25 -80 -35q-44 -11 -168 -25t-182 -42q-86 -42 -86 -126zM904 -17q-69 -1 -102 45t-34 107q-143 -165 -370 -165q-144 0 -236 76t-91 215q0 201 192 278q57 23 107 31t192 24q142 18 173 62
q21 29 21 77q0 178 -229 178q-143 0 -205 -73q-36 -43 -46 -136h-164q3 156 111 253t320 97t315 -101q50 -48 64 -134q3 -17 3 -118v-510q0 -65 62 -65q21 0 45 11v-131q-59 -21 -128 -21zM437 1444h208l146 -282h-117z" />
    <glyph glyph-name="_214" unicode="&#xf7;" horiz-adv-x="1126" 
d="M105 758h916v-134h-916v134zM566 475q48 1 80 -35t32 -84t-36 -80t-83 -32q-48 0 -80 36t-32 82q-1 48 35 80t84 33zM566 1137q48 1 79 -35q32 -36 32 -84q1 -48 -35 -79q-36 -32 -84 -32q-48 -1 -79 35q-32 36 -32 84q-1 48 35 79q36 32 84 32z" />
    <glyph glyph-name="perthousand" unicode="&#x160;" horiz-adv-x="2048" 
d="M1752 97q59 0 78 62q19 63 19 167q1 104 -13 150q-23 78 -79 78t-78 -71q-15 -52 -15 -155q0 -104 6 -142t30 -63.5t52 -25.5zM1469 324q0 200 80.5 293t208.5 93t208.5 -92t80.5 -290t-80.5 -292.5t-210.5 -94.5t-208.5 91.5t-78.5 291.5zM992.5 326.5
q-0.5 -104.5 13.5 -150.5q23 -78 80 -78t77 70q16 54 16 158q1 104 -13 150q-23 78 -80 78t-77 -71q-16 -52 -16.5 -156.5zM799 324q0 200 80.5 293t208.5 93t208 -92t80 -290t-79.5 -292.5t-210.5 -94.5t-209 91.5t-78 291.5zM280 -52l613 1543h196l-612 -1543h-197z
M196 1107q0 -105 13 -151q22 -78 79 -77q56 -1 74 61q19 62 19.5 167t-13.5 151q-23 77 -79 77q-56 1 -74 -61q-19 -62 -19 -167zM1 1105q0 200 80.5 293t208.5 93t208.5 -92.5t80.5 -290.5t-80.5 -291.5t-210.5 -93.5t-208.5 91t-78.5 291z" />
    <glyph glyph-name="circumflex" unicode="&#x161;" horiz-adv-x="683" 
d="M620 1234h-66l-214 126l-211 -126h-68l279 242z" />
    <glyph glyph-name="cedilla.001" unicode="&#x178;" horiz-adv-x="683" 
d="M543 -91q-1 -66 -57 -104t-118 -38t-151 25v55q81 -29 128 -29q86 0 86 72q0 78 -99 78h-54v184h54v-135q25 2 37 2q174 0 174 -110z" />
    <glyph glyph-name="ellipsis" unicode="&#x192;" horiz-adv-x="2048" 
d="M462 220q0 -50 -35 -85t-85 -35t-85.5 35t-35.5 83t34.5 83.5t84.5 35.5t86 -33.5t36 -83.5zM1144 220q0 -50 -35 -85t-85 -35t-85 34t-35 84t34 84.5t84 34.5t86 -33.5t36 -83.5zM1827 220q0 -50 -35.5 -85t-85.5 -35t-85 34.5t-35 83.5t35 84t85 35t85.5 -33.5
t35.5 -83.5z" />
    <glyph glyph-name="daggerdbl" unicode="&#x2c6;" horiz-adv-x="896" 
d="M817 -21h-49q-6 51 -100 90l-190 54l49 -251q16 -82 26 -102q24 -49 82 -50v-46h-369v46q56 1 81 51q14 26 27 101l46 257l-196 -62q-84 -19 -90 -88h-51v346h51q7 -46 54 -72q19 -11 89 -32l143 -44q-20 150 -98 410q47 137 98 399l-170 -48q-119 -34 -123 -94h-44v341
h44q10 -43 41 -64q9 -5 74 -31l178 -49l-55 281q-13 61 -31 92t-68 34v45h363v-45q-64 -2 -91 -71q-8 -20 -28 -125l-40 -211l105 27q92 24 115 34q68 30 71 83h56v-341h-56q-5 32 -25 51t-101 43l-157 48q46 -250 97 -399q-64 -209 -97 -410l157 50l13 6l36 12q77 26 84 80
h49v-346z" />
    <glyph glyph-name="tilde" unicode="&#x2dc;" horiz-adv-x="682" 
d="M185 1292q-67 0 -69 -87h-128q-1 23 -1 36q0 105 51 161.5t131 56.5q35 0 65 -7.5t109.5 -43t124.5 -35.5q70 0 81 87h130q-1 -135 -50.5 -193t-127.5 -58q-34 1 -62 7t-120 41t-134 35z" />
    <glyph glyph-name="arabiccomma" unicode="&#x60c;" horiz-adv-x="456" 
d="M190 204q0 -24 21 -24q23 2 38 3q102 0 102 -90q0 -45 -31 -69t-66 -24q-70 0 -109.5 44t-39.5 128t64.5 143t161.5 58l10 -59q-88 -5 -131 -60q-20 -26 -20 -50z" />
    <glyph glyph-name="arabicsemicolon" unicode="&#x61b;" horiz-adv-x="456" 
d="M305 86q0 -30 -28 -58t-58 -28t-47.5 7.5t-31 20.5t-21 30.5t-7.5 37.5t7.5 37.5t21 31t31 21t37.5 7.5t37.5 -7.5t30.5 -21t20.5 -31t7.5 -47.5zM190 858q0 -24 21 -24q23 2 38 3q102 0 102 -90q0 -45 -31 -69t-66 -24q-70 0 -109.5 44t-39.5 128t64.5 143t161.5 58
l10 -59q-88 -5 -131 -60q-20 -26 -20 -50z" />
    <glyph glyph-name="arabicquestionmark" unicode="&#x61f;" horiz-adv-x="1089" 
d="M645 106q0 -44 -30 -74.5t-74 -30.5t-74 30.5t-30 74.5t30 73t74 29t74 -29t30 -73zM534 1164q-116 0 -174 -62t-58 -160t108 -204v1l104 -104q97 -106 109 -179.5t12 -157.5h-188q0 108 -12 133t-19 38v-1q-15 26 -107 115t-122 129v-1q-82 106 -82 258q-1 151 113 263
t314 112q254 0 382 -199q66 -107 70 -319h-187q-10 163 -45 221q-66 117 -218 117z" />
    <glyph glyph-name="hamza" unicode="&#x621;" horiz-adv-x="1147" 
d="M323 189q-76 135 -76 301t103.5 288.5t316.5 126.5h202v-189h-197q-113 -8 -174 -77.5t-61 -169.5t47.5 -190t112.5 -90h445v-189h-937v189h218z" />
    <glyph glyph-name="alefwithmaddaabove" unicode="&#x622;" horiz-adv-x="399" 
d="M271 1443q-37 0 -77.5 21t-66 20t-65.5 -46l-50 69q58 64 80.5 70.5t44.5 6.5t46 -13t63 -27t87 47l50 -69q-49 -79 -112 -79zM294 1345v-1345h-189v1345h189z" />
    <glyph glyph-name="alefwithhamzaabove" unicode="&#x623;" horiz-adv-x="399" 
d="M180 1564.5q11 -25.5 28 -25.5h142v-94h-308v94h49q-16 40 -16 75q0 71 38 116t119 47h81v-95l-129 -20q-16 -20 -15 -46q0 -26 11 -51.5zM294 1345v-1345h-189v1345h189z" />
    <glyph glyph-name="wawwithhamzaabove" unicode="&#x624;" horiz-adv-x="1087" 
d="M493 1237.5q11 -25.5 28 -25.5h142v-94h-308v94h49q-16 40 -16 75q0 71 38 116t119 47h81v-95l-128 -21q-16 -20 -16 -45q0 -26 11 -51.5zM791 189v337q0 103 -73.5 178t-176 75t-174.5 -75.5t-72 -182.5v-214q0 -48 35 -83t83 -35h378zM246 -187h298q133 0 181.5 73
t58.5 114h-371q-126 0 -217 89.5t-91 217.5v214q0 185 128 316.5t308 131.5t310 -131.5t130 -311.5v-465q0 -181 -128 -309t-309 -128h-298v189z" />
    <glyph glyph-name="alefwithhamzabelow" unicode="&#x625;" horiz-adv-x="399" 
d="M180 -312.5q11 -25.5 28 -25.5h142v-94h-308v94h49q-16 40 -16 75q0 71 38 116t119 47h81v-95l-129 -21q-16 -20 -15 -45q0 -26 11 -51.5zM294 1345v-1345h-189v1345h189z" />
    <glyph glyph-name="yehwithhamzaabove" unicode="&#x626;" horiz-adv-x="1267" 
d="M243 1011.5q11 -25.5 28 -25.5h142v-94h-308v94h49q-16 40 -16 75q0 71 38 116t119 47h81v-95l-128 -21q-16 -20 -16 -45q0 -26 11 -51.5zM1105 779h-246q-51 0 -86.5 -35.5t-35.5 -87.5v-246h118q149 0 228 -91.5t79 -225.5q0 -133 -43 -217t-113 -140t-159.5 -84
t-236 -28t-294.5 117t-148 328v723h189v-723q0 -121 91 -188.5t216 -67.5t217 69t92 189q0 66 -29.5 108t-88.5 42h-308v435q0 130 91.5 221.5t220.5 91.5h246v-190z" />
    <glyph glyph-name="arabicalef" unicode="&#x627;" horiz-adv-x="399" 
d="M294 1345v-1345h-189v1345h189z" />
    <glyph glyph-name="beh" unicode="&#x628;" horiz-adv-x="1423" 
d="M616 -268q0 30 28 58t58 28t47.5 -7.5t31 -20.5t21 -30.5t7.5 -37.5t-7.5 -37.5t-21 -31t-31 -21t-37.5 -7.5t-37.5 7.5t-30.5 21t-20.5 31t-7.5 47.5zM1318 969v-658q0 -130 -90.5 -220.5t-218.5 -90.5h-463q-182 0 -311.5 128t-129.5 311v353h190v-353q0 -104 73 -177
t178 -73h463q51 0 85.5 36t34.5 86v658h189z" />
    <glyph glyph-name="tehmarbuta" unicode="&#x629;" horiz-adv-x="1078" 
d="M300 1248q0 20 7.5 37.5t21 31t31 21t37.5 7.5t37.5 -7.5t31 -21t21 -31t7.5 -37.5t-7.5 -37.5t-21 -30.5t-31 -20.5t-37.5 -7.5t-37.5 7.5t-31 20.5t-21 30.5t-7.5 37.5zM583 1248q0 20 7.5 37.5t21 31t31 21t48 7.5t58 -29t27.5 -68q0 -40 -28 -68t-58 -28t-47.5 7.5
t-31 20.5t-21 30.5t-7.5 37.5zM105 526q0 184 127.5 313.5t305.5 129.5t306 -130t128 -309v-217q0 -138 -89.5 -225.5t-222.5 -87.5h-244q-135 0 -223 86t-88 223v217zM295 309q0 -54 35 -87t86 -33h244q52 0 87.5 34t35.5 90v217q0 102 -72 175.5t-173 73.5
q-100 0 -171.5 -73.5t-71.5 -179.5v-217z" />
    <glyph glyph-name="teh" unicode="&#x62a;" horiz-adv-x="1423" 
d="M474 1248q0 20 7.5 37.5t21 31t31 21t37.5 7.5t37.5 -7.5t31 -21t21 -31t7.5 -37.5t-7.5 -37.5t-21 -30.5t-31 -20.5t-37.5 -7.5t-37.5 7.5t-31 20.5t-21 30.5t-7.5 37.5zM757 1248q0 20 7.5 37.5t21 31t31 21t48 7.5t58 -29t27.5 -68q0 -40 -28 -68t-58 -28t-47.5 7.5
t-31 20.5t-21 30.5t-7.5 37.5zM1318 969v-658q0 -130 -90.5 -220.5t-218.5 -90.5h-463q-182 0 -311.5 128t-129.5 311v353h190v-353q0 -104 73 -177t178 -73h463q51 0 85.5 36t34.5 86v658h189z" />
    <glyph glyph-name="theh" unicode="&#x62b;" horiz-adv-x="1423" 
d="M474 1248q0 20 7.5 37.5t21 31t31 21t37.5 7.5t37.5 -7.5t31 -21t21 -31t7.5 -37.5t-7.5 -37.5t-21 -30.5t-31 -20.5t-37.5 -7.5t-37.5 7.5t-31 20.5t-21 30.5t-7.5 37.5zM757 1248q0 20 7.5 37.5t21 31t31 21t48 7.5t58 -29t27.5 -68q0 -40 -28 -68t-58 -28t-47.5 7.5
t-31 20.5t-21 30.5t-7.5 37.5zM616 1453q0 20 7.5 37.5t20.5 31t30.5 21t37.5 7.5t37.5 -7.5t31 -21t21 -31t7.5 -37.5t-7.5 -37.5t-21 -31t-31 -21t-37.5 -7.5t-37.5 7.5t-30.5 21t-20.5 31t-7.5 37.5zM1318 969v-658q0 -130 -90.5 -220.5t-218.5 -90.5h-463
q-182 0 -311.5 128t-129.5 311v353h190v-353q0 -104 73 -177t178 -73h463q51 0 85.5 36t34.5 86v658h189z" />
    <glyph glyph-name="jeem" unicode="&#x62c;" horiz-adv-x="1065" 
d="M796 -209.5q29 27.5 68 27.5q40 0 68 -28t28 -58t-7.5 -47.5t-20.5 -31t-30.5 -21t-37.5 -7.5t-37.5 7.5t-38.5 28.5t-21 61.5t29 68zM129 875q199 96 407 96q178 0 301 -102t123 -350v-212q0 -126 -90.5 -216.5t-220.5 -90.5h-274q-37 0 -58.5 -27t-21.5 -54
q0 -48 21 -76.5t59 -28.5h265v-189h-265q-127 0 -198.5 84t-71.5 198.5t71 198t199 83.5h274q50 0 86 34.5t36 83.5v212q0 142 -70 202t-197 60t-294 -76z" />
    <glyph glyph-name="hah" unicode="&#x62d;" horiz-adv-x="1065" 
d="M129 875q199 96 407 96q178 0 301 -102t123 -350v-212q0 -126 -90.5 -216.5t-220.5 -90.5h-274q-37 0 -58.5 -27t-21.5 -54q0 -48 21 -76.5t59 -28.5h396v-189h-396q-127 0 -198.5 84t-71.5 198.5t71 198t199 83.5h274q50 0 86 34.5t36 83.5v212q0 142 -70 202t-197 60
t-294 -76z" />
    <glyph glyph-name="khah" unicode="&#x62e;" horiz-adv-x="1065" 
d="M427 1248q0 20 7.5 37.5t21 31t31 21t48 7.5t58 -29t27.5 -68q0 -40 -28 -68t-58 -28t-47.5 7.5t-31 20.5t-21 30.5t-7.5 37.5zM129 875q199 96 407 96q178 0 301 -102t123 -350v-212q0 -126 -90.5 -216.5t-220.5 -90.5h-274q-37 0 -58.5 -27t-21.5 -54q0 -48 21 -76.5
t59 -28.5h397v-189h-397q-127 0 -198.5 84t-71.5 198.5t71 198t199 83.5h274q50 0 86 34.5t36 83.5v212q0 142 -70 202t-197 60t-294 -76z" />
    <glyph glyph-name="dal" unicode="&#x62f;" horiz-adv-x="913" 
d="M159 970q500 0 574.5 -171t74.5 -280v-212q0 -128 -91.5 -217.5t-221.5 -89.5h-390v189h390q50 0 86.5 34.5t36.5 83.5v212q0 261 -459 261v190z" />
    <glyph glyph-name="thal" unicode="&#x630;" horiz-adv-x="913" 
d="M392 1248q0 20 7.5 37.5t21 31t31 21t48 7.5t58 -29t27.5 -68q0 -40 -28 -68t-58 -28t-47.5 7.5t-31 20.5t-21 30.5t-7.5 37.5zM159 970q500 0 574.5 -171t74.5 -280v-212q0 -128 -91.5 -217.5t-221.5 -89.5h-390v189h390q50 0 86.5 34.5t36.5 83.5v212q0 261 -459 261
v190z" />
    <glyph glyph-name="reh" unicode="&#x631;" horiz-adv-x="568" 
d="M462 969v-864q-1 -134 -89 -271.5t-286 -220.5l-73 175q166 68 230 197q27 55 28 112v872h190z" />
    <glyph glyph-name="zain" unicode="&#x632;" horiz-adv-x="568" 
d="M462 969v-864q-1 -134 -89 -271.5t-286 -220.5l-73 175q166 68 230 197q27 55 28 112v872h190zM268 1248q0 20 7.5 37.5t21 31t31 21t37.5 7.5t37.5 -7.5t31 -21t21 -31t7.5 -37.5t-7.5 -37.5t-21 -30.5t-31 -20.5t-37.5 -7.5t-37.5 7.5t-31 20.5t-21 30.5t-7.5 37.5z
" />
    <glyph glyph-name="seen" unicode="&#x633;" horiz-adv-x="2068" 
d="M1532 969v-780h119q49 0 86 33.5t37 83.5v663h189v-663q0 -127 -91.5 -216.5t-220.5 -89.5h-557q-23 -177 -165 -276t-337 -99q-194 0 -340.5 116t-146.5 321v730h190v-730q0 -117 91 -182.5t216 -65.5t216 65.5t91 182.5v907h191v-780h242v780h190z" />
    <glyph glyph-name="sheen" unicode="&#x634;" horiz-adv-x="2068" 
d="M1202 1248q0 20 7.5 37.5t21 31t31 21t37.5 7.5t37.5 -7.5t31 -21t21 -31t7.5 -37.5t-7.5 -37.5t-21 -30.5t-31 -20.5t-37.5 -7.5t-37.5 7.5t-31 20.5t-21 30.5t-7.5 37.5zM1485 1248q0 20 7.5 37.5t21 31t31 21t48 7.5t58 -29t27.5 -68q0 -40 -28 -68t-58 -28t-47.5 7.5
t-31 20.5t-21 30.5t-7.5 37.5zM1344 1453q0 20 7.5 37.5t20.5 31t30.5 21t37.5 7.5t37.5 -7.5t31 -21t21 -31t7.5 -37.5t-7.5 -37.5t-21 -31t-31 -21t-37.5 -7.5t-37.5 7.5t-30.5 21t-20.5 31t-7.5 37.5zM1532 969v-780h119q49 0 86 33.5t37 83.5v663h189v-663
q0 -127 -91.5 -216.5t-220.5 -89.5h-557q-23 -177 -165 -276t-337 -99q-194 0 -340.5 116t-146.5 321v730h190v-730q0 -117 91 -182.5t216 -65.5t216 65.5t91 182.5v907h191v-780h242v780h190z" />
    <glyph glyph-name="sad" unicode="&#x635;" horiz-adv-x="2068" 
d="M1100 189h550q49 0 86 33.5t37 83.5v212q0 200 -87.5 230.5t-135.5 30.5t-101 -12t-130 -43t-148 -101t-71 -140v-294zM1100 799q220 170 466 170q169 0 283 -108.5t114 -342.5v-212q0 -128 -92.5 -217t-220.5 -89h-555q-23 -177 -165 -276t-337 -99q-194 0 -341 115.5
t-147 321.5v730h190v-730q0 -117 91 -182.5t215.5 -65.5t216.5 65.5t92 182.5v907h190v-170z" />
    <glyph glyph-name="dad" unicode="&#x636;" horiz-adv-x="2068" 
d="M1339 1248q0 20 7.5 37.5t21 31t31 21t37.5 7.5t37.5 -7.5t31 -21t21 -31t7.5 -37.5t-7.5 -37.5t-21 -30.5t-31 -20.5t-37.5 -7.5t-37.5 7.5t-31 20.5t-21 30.5t-7.5 37.5zM1100 189h550q49 0 86 33.5t37 83.5v212q0 200 -87.5 230.5t-135.5 30.5t-101 -12t-130 -43
t-148 -101t-71 -140v-294zM1100 799q220 170 466 170q169 0 283 -108.5t114 -342.5v-212q0 -128 -92.5 -217t-220.5 -89h-555q-23 -177 -165 -276t-337 -99q-194 0 -341 115.5t-147 321.5v730h190v-730q0 -117 91 -182.5t215.5 -65.5t216.5 65.5t92 182.5v907h190v-170z" />
    <glyph glyph-name="tah" unicode="&#x637;" horiz-adv-x="1415" 
d="M446 484v-295h551q50 0 86.5 34.5t36.5 83.5v211q0 134 -61 198t-162 64q-155 0 -303 -95t-148 -201zM446 800q214 170 466 170q170 0 284 -110t114 -342v-211q0 -129 -92.5 -218t-220.5 -89h-892v189h152v1156h189v-545z" />
    <glyph glyph-name="zah" unicode="&#x638;" horiz-adv-x="1415" 
d="M687 1238q0 30 7.5 47.5t20.5 31t30.5 21t37.5 7.5t37.5 -7.5t31 -21t21 -31t7.5 -48t-29 -58t-68 -27.5q-40 0 -68 28t-28 58zM446 484v-295h551q50 0 86.5 34.5t36.5 83.5v211q0 134 -61 198t-162 64q-155 0 -303 -95t-148 -201zM446 800q214 170 466 170
q170 0 284 -110t114 -342v-211q0 -129 -92.5 -218t-220.5 -89h-892v189h152v1156h189v-545z" />
    <glyph glyph-name="ain" unicode="&#x639;" horiz-adv-x="1207" 
d="M538 533v-344h564v-189h-727q-37 0 -58.5 -27t-21.5 -54q0 -48 21 -76.5t59 -28.5h545v-189h-545q-127 0 -198.5 84t-71.5 199q0 171 90.5 222t153.5 58v345q0 183 125.5 308.5t306.5 125.5q98 2 217 -54l-78 -172q-88 39 -139 38q-103 -2 -173 -72t-70 -174z" />
    <glyph glyph-name="ghain" unicode="&#x63a;" horiz-adv-x="1207" 
d="M538 533v-344h564v-189h-727q-37 0 -58.5 -27t-21.5 -54q0 -48 21 -76.5t59 -28.5h545v-189h-545q-127 0 -198.5 84t-71.5 199q0 171 90.5 222t153.5 58v345q0 183 125.5 308.5t306.5 125.5q98 2 217 -54l-78 -172q-88 39 -139 38q-103 -2 -173 -72t-70 -174zM685 1238
q0 30 7.5 47.5t20.5 31t30.5 21t37.5 7.5t37.5 -7.5t31 -21t21 -31t7.5 -48t-29 -58t-68 -27.5q-40 0 -68 28t-28 58z" />
    <glyph glyph-name="tatweel" unicode="&#x640;" horiz-adv-x="345" 
d="M-42 189h429v-189h-429v189z" />
    <glyph glyph-name="feh" unicode="&#x641;" horiz-adv-x="1874" 
d="M1237 1248q0 20 7.5 37.5t21 31t31 21t37.5 7.5t37.5 -7.5t31 -21t21 -31t7.5 -37.5t-7.5 -37.5t-21 -30.5t-31 -20.5t-37.5 -7.5t-37.5 7.5t-31 20.5t-21 30.5t-7.5 37.5zM1091 189h364q52 0 87.5 33.5t35.5 90.5v229q0 101 -72 169.5t-173 68.5t-171.5 -70.5
t-70.5 -173.5v-347zM295 443q0 -105 74.5 -179.5t179.5 -74.5h352v347q0 184 126.5 309t306.5 125t307 -125t127 -303v-229q0 -139 -90.5 -226t-222.5 -87h-906q-184 0 -314 130t-130 313v349h190v-349z" />
    <glyph glyph-name="qaf" unicode="&#x642;" horiz-adv-x="1428" 
d="M644 1248q0 20 7.5 37.5t21 31t31 21t37.5 7.5t37.5 -7.5t31 -21t21 -31t7.5 -37.5t-7.5 -37.5t-21 -30.5t-31 -20.5t-37.5 -7.5t-37.5 7.5t-31 20.5t-21 30.5t-7.5 37.5zM927 1248q0 20 7.5 37.5t21 31t31 21t48 7.5t58 -29t27.5 -68q0 -40 -28 -68t-58 -28t-47.5 7.5
t-31 20.5t-21 30.5t-7.5 37.5zM1133 189v337q0 103 -73.5 178t-176.5 75t-174.5 -75t-71.5 -183v-213q0 -49 35 -84t83 -35h378zM295 791v-718q0 -109 76.5 -184t182.5 -75h332q132 0 180.5 73t58.5 113h-370q-128 0 -218 90t-90 218v213q0 187 128.5 317.5t308.5 130.5
t309 -132t129 -311v-464q0 -181 -128 -309t-308 -128h-332q-186 0 -317.5 131.5t-131.5 316.5v718h190z" />
    <glyph glyph-name="arabickaf" unicode="&#x643;" horiz-adv-x="1424" 
d="M688 1062.5q11 -25.5 28 -25.5h142v-94h-308v94h49q-16 40 -16 75q0 71 38 116t119 47h81v-95l-129 -20q-16 -20 -15 -46q0 -26 11 -51.5zM1319 1345v-1034q0 -129 -91 -220t-219 -91h-464q-181 0 -310.5 128t-129.5 311v353h190v-353q0 -104 73 -177t177 -73h464
q50 0 85.5 35.5t35.5 86.5v1034h189z" />
    <glyph glyph-name="lam" unicode="&#x644;" horiz-adv-x="1205" 
d="M1100 1345v-1280q0 -208 -147.5 -325t-350.5 -117t-350 116.5t-147 325.5v727h190v-727q0 -119 91.5 -186t215.5 -67t216 66.5t92 186.5v1280h190z" />
    <glyph glyph-name="meem" unicode="&#x645;" horiz-adv-x="1430" 
d="M1136 527q0 105 -71.5 178.5t-171.5 73.5t-172.5 -74.5t-72.5 -177.5v-218q0 -104 72 -178t173 -74t172 74.5t71 179.5v216zM295 153v-528h-190v528q0 243 129 301.5t225 63.5v9q0 178 128 310t305 132q178 0 305.5 -129.5t127.5 -312.5v-216q0 -185 -127.5 -314.5
t-304.5 -129.5t-305.5 131.5t-128.5 310.5v19q-164 -18 -164 -175z" />
    <glyph glyph-name="noon" unicode="&#x646;" horiz-adv-x="1205" 
d="M506 1238q0 30 7.5 47.5t20.5 31t30.5 21t37.5 7.5t37.5 -7.5t31 -21t21 -31t7.5 -48t-29 -58t-68 -27.5q-40 0 -68 28t-28 58zM1100 969v-902q0 -209 -147.5 -326t-350.5 -117t-350 116.5t-147 326.5v725h190v-725q0 -119 91 -186.5t215.5 -67.5t216.5 67.5t92 186.5
v902h190z" />
    <glyph glyph-name="heh" unicode="&#x647;" horiz-adv-x="1078" 
d="M105 526q0 184 127.5 313.5t305.5 129.5t306 -130t128 -309v-217q0 -138 -89.5 -225.5t-222.5 -87.5h-244q-135 0 -223 86t-88 223v217zM295 309q0 -54 35 -87t86 -33h244q52 0 87.5 34t35.5 90v217q0 102 -72 175.5t-173 73.5q-100 0 -171.5 -73.5t-71.5 -179.5v-217z
" />
    <glyph glyph-name="waw" unicode="&#x648;" horiz-adv-x="1087" 
d="M791 189v337q0 103 -73.5 178t-176 75t-174.5 -75.5t-72 -182.5v-214q0 -48 35 -83t83 -35h378zM246 -187h298q133 0 181.5 73t58.5 114h-371q-126 0 -217 89.5t-91 217.5v214q0 185 128 316.5t308 131.5t310 -131.5t130 -311.5v-465q0 -181 -128 -309t-309 -128h-298
v189z" />
    <glyph glyph-name="alefmaksura" unicode="&#x649;" horiz-adv-x="1205" 
d="M1043 779h-246q-50 0 -86.5 -35t-36.5 -88v-246h119q149 0 228 -91.5t79 -225.5q0 -233 -148 -351t-350 -118t-349.5 117t-147.5 328v723h190v-723q0 -121 91 -188.5t215 -67.5t216.5 69t92.5 189q0 66 -29.5 108t-87.5 42h-308v435q0 130 91.5 221.5t220.5 91.5h246
v-190z" />
    <glyph glyph-name="yeh" unicode="&#x64a;" horiz-adv-x="1205" 
d="M360 -657q0 20 7.5 37.5t21 31t31 21t37.5 7.5t37.5 -7.5t31 -21t21 -31t7.5 -37.5t-7.5 -37.5t-21 -30.5t-31 -20.5t-37.5 -7.5t-37.5 7.5t-31 20.5t-21 30.5t-7.5 37.5zM643 -657q0 20 7.5 37.5t21 31t31 21t48 7.5t58 -29t27.5 -68q0 -40 -28 -68t-58 -28t-47.5 7.5
t-31 20.5t-21 30.5t-7.5 37.5zM1043 779h-246q-50 0 -86.5 -35t-36.5 -88v-246h119q149 0 228 -91.5t79 -225.5q0 -233 -148 -351t-350 -118t-349.5 117t-147.5 328v723h190v-723q0 -121 91 -188.5t215 -67.5t216.5 69t92.5 189q0 66 -29.5 108t-87.5 42h-308v435
q0 130 91.5 221.5t220.5 91.5h246v-190z" />
    <glyph glyph-name="fathatan" unicode="&#x64b;" horiz-adv-x="0" 
d="M359 1388h-462v72h462v-72zM359 1244h-462v72h462v-72z" />
    <glyph glyph-name="dammatan" unicode="&#x64c;" horiz-adv-x="0" 
d="M254 1558q-8 36 -40 36t-43 -29t9 -51q19 -23 62 -23q16 34 12 67zM83 1286q-25 0 -45 40l-27 73l-49 -69l-58 43l68 94q21 31 49 28q28 -4 44 -38v-1l36 -92q54 19 97 59q-46 11 -77 51t-25 81q10 71 63 98t105 0q51 -27 60 -84q6 -33 -4 -70q27 6 35 8l18 -70
q-56 -13 -86 -16q-11 -17 -28 -37q-71 -76 -119.5 -87t-56.5 -11z" />
    <glyph glyph-name="kasratan" unicode="&#x64d;" horiz-adv-x="0" 
d="M378 -894h-462v72h462v-72zM378 -1038h-462v72h462v-72z" />
    <glyph glyph-name="fatha" unicode="&#x64e;" horiz-adv-x="0" 
d="M392 1286h-462v72h462v-72z" />
    <glyph glyph-name="damma" unicode="&#x64f;" horiz-adv-x="0" 
d="M7 1454q-13 -34 14 -51.5t30 -17.5h29q26 64 6.5 83.5t-43.5 19.5q-23 0 -36 -34zM158 1393l35 8l17 -70q-52 -13 -86 -16q-46 -73 -107.5 -99t-108.5 -37l-17 69q98 26 144 69q-45 11 -77 51t-25 81q18 109 80.5 110t86.5 -11q53 -28 62 -85q6 -33 -4 -70z" />
    <glyph glyph-name="kasra" unicode="&#x650;" horiz-adv-x="0" 
d="M454 -910h-462v72h462v-72z" />
    <glyph glyph-name="shadda" unicode="&#x651;" horiz-adv-x="0" 
d="M-18 1294q-42 0 -72 30t-30 73v126h72v-116q0 -17 12 -29t29 -12h84v157h72v-157h80q17 0 29 12t12 29v116h71v-126q0 -42 -29 -72.5t-73 -30.5h-257z" />
    <glyph glyph-name="sukun" unicode="&#x652;" horiz-adv-x="0" 
d="M38 1531q-28 0 -53 -25.5t-25 -61.5t25 -61.5t53 -25.5t43.5 7t27 18.5t18.5 27.5t7 34t-7 34t-18.5 27.5t-27 18.5t-43.5 7zM48 1285q-33 0 -62 12.5t-50.5 34.5t-34 50.5t-12.5 61.5t12.5 62t34 50.5t50.5 34t62 12.5t61.5 -12.5t50 -34t34 -50.5t12.5 -62t-12.5 -61.5
t-34 -50.5t-50 -34.5t-61.5 -12.5z" />
    <glyph glyph-name="arabicindicdigitzero" unicode="&#x660;" horiz-adv-x="1079" 
d="M539 1155q-104 0 -177 -73t-73 -176v-472q0 -104 72.5 -177t176.5 -73t177 73t73 177v472q0 104 -72.5 176.5t-176.5 72.5zM105 434v472q0 181 125 308q129 127 309 127q180 -1 308 -129q127 -128 127 -306v-472q0 -179 -127 -307q-127 -127 -308 -127q-180 0 -309 127
q-125 129 -125 307z" />
    <glyph glyph-name="arabicindicdigitone" unicode="&#x661;" horiz-adv-x="705" 
d="M400 1v1130h-295l82 212h255q115 0 136.5 -80t21.5 -122v-1140h-200z" />
    <glyph glyph-name="arabicindicdigittwo" unicode="&#x662;" horiz-adv-x="1123" 
d="M122 920q0 186 138 305q138 118 324 118t310 -120q124 -124 124 -289t-86 -277q-59 -78 -216 -202l-352 -277h648v-178h-725q-80 0 -131 36t-51 98q0 61 27.5 94t92.5 81l462 360q62 53 100 118q39 63 39 125q0 118 -74 186t-184 69q-111 0 -181.5 -73.5t-70.5 -186.5
q0 -114 54 -159t79 -58l-158 -113q-169 117 -169 343z" />
    <glyph glyph-name="arabicindicdigitthree" unicode="&#x663;" horiz-adv-x="1082" 
d="M793 440q0 165 -91.5 199.5t-125.5 44.5q-76 23 -104.5 42.5t-28.5 63.5q0 60 175 260q18 21 33.5 39t25.5 32l25 35h-465l-45 186h597q77 0 129 -35q51 -35 51 -105t-75.5 -159t-109.5 -128t-47 -55l-17 -19l24 -13q233 -127 233 -402q0 -74 -33.5 -154t-129.5 -176
t-270 -96t-294 108t-145 264h187q24 -82 92 -135t137 -53q123 0 197.5 74.5t74.5 181.5z" />
    <glyph glyph-name="arabicindicdigitfour" unicode="&#x664;" horiz-adv-x="1245" 
d="M731 0v221h-477q-58 0 -103.5 39t-45.5 100q0 36 18 67l564 915h257l-576 -931h363v153h217v-153h192v-190h-192v-221h-217z" />
    <glyph glyph-name="arabicindicdigitfive" unicode="&#x665;" horiz-adv-x="1032" 
d="M105 864v321q-1 77 51 115t137 39h570l-52 -185h-510v-307h212q170 0 292 -124t122 -298.5t-121 -298.5q-121 -125 -285 -125q-163 0 -273 97q-111 97 -141 232h179q25 -68 88 -111t127 -43q114 0 185 72.5t71 174.5q0 103 -71 176q-73 73 -173 73l-182 -6
q-112 0 -161 34q-65 44 -65 164z" />
    <glyph glyph-name="arabicindicdigitsix" unicode="&#x666;" horiz-adv-x="1200" 
d="M318 458q0 -116 86 -195q86 -78 201 -78q116 0 202 79q87 80 87 194t-86 193q-86 80 -203 80t-202 -79q-85 -78 -85 -194zM105 457q0 111 57 213l395 674h250l-256 -428h37q204 0 353 -126q154 -135 154 -331t-148 -328q-149 -131 -347 -131q-199 0 -347 131t-148 326z
" />
    <glyph glyph-name="arabicindicdigitseven" unicode="&#x667;" horiz-adv-x="1038" 
d="M933 1175q0 -94 -385 -1175h-241l406 1129h-559l-49 211h660q69 0 118.5 -48t49.5 -117z" />
    <glyph glyph-name="arabicindicdigiteight" unicode="&#x668;" horiz-adv-x="1068" 
d="M534 1163q-75 0 -128 -53t-53 -127t52.5 -127.5t128.5 -53.5t128.5 54t52.5 127q0 74 -53 127t-128 53zM699 571q-71 67 -167 67t-165 -68t-69 -164t70 -163q70 -66 166 -66q97 0 166.5 66.5t69.5 163.5q0 96 -71 164zM105 400q0 94 43.5 176.5t121.5 139.5l20 15l-18 17
q-106 104 -106 248t109 243t259 99t259 -99t109 -243t-106 -248l-18 -17l21 -15q78 -57 121 -139.5t43 -170.5q0 -176 -128 -291t-302 -115q-173 0 -301 115q-127 115 -127 285z" />
    <glyph glyph-name="arabicindicdigitnine" unicode="&#x669;" horiz-adv-x="1124" 
d="M826 887q0 113 -78 193t-189 79q-111 0 -190.5 -79.5t-79.5 -193.5t77 -194t191 -80q113 0 191 81t78 194zM576 430q-199 0 -335 131t-136 322t133.5 326t322.5 135q188 0 323 -134t135 -323q0 -117 -50 -213l-368 -674h-228l238 430h-35z" />
    <glyph glyph-name="arabicpercentsign" unicode="&#x66a;" horiz-adv-x="1797" 
d="M595 1022q-1 270 -171 270t-170 -282t169 -283q69 0 105 40q67 74 67 255zM434 1406q308 0 308 -390q0 -192 -82 -296q-82 -106 -237 -106q-318 0 -318 399q1 197 89 295t240 98zM1377 651q-96 0 -139 -87q-32 -66 -32 -200q0 -281 168 -281t168 284t-165 284zM1371 -28
q-316 0 -316 391q-1 185 81 293t250 108q102 0 178 -53q128 -88 128 -324q0 -415 -321 -415zM1361 1446l-790 -1514h-134l793 1514h131z" />
    <glyph glyph-name="arabicfivepointedstar" unicode="&#x66d;" horiz-adv-x="2943" 
d="M2832 237q0 -19 -18 -19t-19 20q1 20 -7 36q-19 39 -72 39q-52 0 -74 -35q-20 -33 1 -58q21 -24 77 -24q57 0 87 -27t30 -55q0 -52 -30.5 -84.5t-74.5 -32.5q-70 0 -103.5 32.5t-29.5 78.5q0 19 17 19t17 -19q0 -44 27.5 -59t58.5 -15q53 0 67 24.5t14 62.5t-87 38
t-100.5 35.5t-13.5 49.5q0 38 25.5 72t74.5 33q133 -1 133 -112zM2232 147q35 0 59.5 24.5t24.5 50.5q0 44 -25 68.5t-61 24.5t-59 -23.5t-23 -60.5v-84h84zM2148 15q0 -19 -18 -19t-19 19v216q0 52 32.5 86.5t72.5 34.5q66 0 101.5 -36t35.5 -80q0 -91 -82 -119l56 -92
q11 -17 -6 -24q-18 -11 -27 6l-64 103h-82v-95zM1455 238q0 -17 -18 -17t-18 19q-1 18 -9 34q-22 41 -73.5 41t-70.5 -35q-18 -36 2 -58q20 -23 76 -23t85.5 -27.5t29.5 -55.5q0 -52 -29 -83t-73 -31q-70 0 -102.5 31t-32.5 78q0 18 18 18t19 -18q0 -43 26 -57.5t54 -14.5
q83 0 83 68q-3 55 -87 55t-98.5 35t-14.5 49q0 38 27 71t74 33t71 -12q61 -30 61 -100zM2364 311q-21 0 -21 19.5t21 19.5h204q19 0 19 -19.5t-19 -19.5h-82v-294q0 -20 -20 -20t-19 20v294h-83zM2011 75.5q41 39.5 41 83.5q0 72 -40 112t-83 40q-73 0 -112.5 -41t-39.5 -83
t11 -67t40.5 -54.5t85.5 -29.5t97 39.5zM1914 352q74 0 126 -52t52 -125t-52 -126t-126 -53t-125.5 53t-51.5 126t51.5 125t125.5 52zM1609 147q55 0 69.5 33t14.5 59t-24.5 51t-60.5 25t-58 -24.5t-22 -59.5v-84h81zM1528 16q0 -19 -18 -19t-19 19l-1 215q0 52 32 85.5
t72 33.5q66 0 101 -35t35 -72q0 -61 -34.5 -97t-86.5 -36h-81v-94zM2711 603v466q2 20 19.5 37t43.5 17t44 -17t19 -37v-466q0 -79 -39.5 -128t-92.5 -71q-92 -37 -169 -4t-108 80q-5 8 -20 31.5t-36 57.5t-46.5 74.5t-69.5 108.5t-84 135q-42 67 -64 89t-73 17t-72 -50
q-11 -20 -10 -46v-454q0 -22 -18.5 -39.5t-44.5 -17.5t-44 16t-20 34v474q6 79 46 127t92 68q92 36 169 1.5t107 -89.5l289 -455q27 -42 63 -48t60 6q60 30 59 83zM1703 1124q26 0 44 -17t19 -37v-630q-1 -20 -19 -37t-44 -17t-44 17t-20 37v630q2 20 20 37t44 17zM948 524
q-78 79 -78 231t107 259t258.5 107t259.5 -106.5t108 -260.5q0 -8 -6 -16.5t-22 -8.5h-391q-11 0 -19.5 7.5t-8.5 19.5t8.5 20t19.5 8h362q-12 119 -100 201t-214 82t-216 -91.5t-90 -220.5t90 -220.5t218 -91.5t188 58t77 87t41 12t7 -38q-108 -175 -324 -175
q-63 0 -130 29t-145 108zM470 443q129 0 219.5 92.5t90.5 220.5q0 129 -90 220.5t-220 91.5q-129 0 -220 -92t-91 -220q0 -129 91 -221t220 -92zM490 1120q62 0 129.5 -30.5t141.5 -109t74 -223.5t-104 -258t-260 -113t-261 108t-105 249v587q0 11 8 18.5t19 7.5t18.5 -7.5
t7.5 -18.5v-383q108 173 332 173z" />
    <glyph glyph-name="superscriptalef" unicode="&#x670;" horiz-adv-x="239" 
d="M217 1071q-67 0 -101 17t-33 76v305q0 30 -61 129q41 0 116 86v-466q0 -85 100 -119q20 -5 56 -15q-10 -13 -77 -13z" />
    <glyph glyph-name="alefwasla" unicode="&#x671;" horiz-adv-x="399" 
d="M304 1606q-45 0 -140 -65q32 -2 86 -2t105 23q-6 44 -51 44zM434 1625q0 -17 -42 -74q-72 -95 -209 -95q-82 0 -182 34q-29 -26 -91 -74q0 17 -3 43q42 43 128 126q39 -30 93 -38q136 120 221 120t85 -42zM105 1345h189v-1345h-189v1345z" />
    <glyph glyph-name="highhamza" unicode="&#x674;" horiz-adv-x="0" 
d="M247 1647q18 -41 44 -41h228v-150h-494v150h78q-25 64 -25 120q0 115 62 187.5t190 74.5h130v-152l-206 -32q-25 -30 -25 -74q0 -42 18 -83z" />
    <glyph glyph-name="peh" unicode="&#x67e;" horiz-adv-x="1423" 
d="M877 -453q0 -30 -7.5 -47.5t-20.5 -31t-30.5 -21t-48.5 -7.5t-58.5 29t-27.5 68q0 40 28 68t68 28t68.5 -28t28.5 -58zM997 -268q0 -30 -7.5 -47.5t-20.5 -31t-30.5 -21t-37.5 -7.5t-37.5 7.5t-31 21t-21 31t-7.5 48t29 58t68 27.5q40 0 68 -28t28 -58zM757 -278
q0 -20 -7.5 -37.5t-21 -31t-31 -21t-48 -7.5t-58 29t-27.5 68q0 40 28 68t58 28t47.5 -7.5t31 -20.5t21 -30.5t7.5 -37.5zM1318 969v-658q0 -130 -90.5 -220.5t-218.5 -90.5h-463q-182 0 -311.5 128t-129.5 311v353h190v-353q0 -104 73 -177t178 -73h463q51 0 85.5 36
t34.5 86v658h189z" />
    <glyph glyph-name="tcheh" unicode="&#x686;" horiz-adv-x="1068" 
d="M963 -232q0 -20 -13.5 -32.5t-32.5 -12.5t-32.5 12.5t-13.5 32.5t13.5 33t32.5 13t32.5 -13t13.5 -33zM829 -232q0 -20 -12.5 -32.5t-32.5 -12.5t-33 12.5t-13 32.5t13 33t33 13t32.5 -13t12.5 -33zM896 -328q0 -20 -13 -33t-33 -13t-32.5 13t-12.5 33t12.5 33t32.5 13
t33 -13t13 -33zM522 971q56 0 109 -8.5t191 -66t138 -377.5v-212q0 -126 -90.5 -216.5t-221.5 -90.5h-273q-38 0 -59.5 -27t-21.5 -54q0 -48 21 -76.5t60 -28.5h265v-189h-265q-127 0 -198.5 84t-71.5 198.5t71 198t199 83.5h273q50 0 86 34.5t36 83.5v212q0 142 -70 202
t-196 60t-294 -76l-82 170q122 59 230 77.5t164 18.5z" />
    <glyph glyph-name="jeh" unicode="&#x698;" horiz-adv-x="714" 
d="M133 1248q0 20 7.5 37.5t21 31t31 21t37.5 7.5t37.5 -7.5t31 -21t21 -31t7.5 -37.5t-7.5 -37.5t-21 -30.5t-31 -20.5t-37.5 -7.5t-37.5 7.5t-31 20.5t-21 30.5t-7.5 37.5zM416 1248q0 20 7.5 37.5t21 31t31 21t48 7.5t58 -29t27.5 -68q0 -40 -28 -68t-58 -28t-47.5 7.5
t-31 20.5t-21 30.5t-7.5 37.5zM275 1453q0 20 7.5 37.5t20.5 31t30.5 21t37.5 7.5t37.5 -7.5t31 -21t21 -31t7.5 -37.5t-7.5 -37.5t-21 -31t-31 -21t-37.5 -7.5t-37.5 7.5t-30.5 21t-20.5 31t-7.5 37.5zM462 969v-864q-1 -134 -89 -271.5t-286 -220.5l-73 175
q166 68 230 197q27 55 28 112v872h190z" />
    <glyph glyph-name="veh" unicode="&#x6a4;" horiz-adv-x="1874" 
d="M1098 1248q0 20 7.5 37.5t21 31t31 21t37.5 7.5t37.5 -7.5t31 -21t21 -31t7.5 -37.5t-7.5 -37.5t-21 -30.5t-31 -20.5t-37.5 -7.5t-37.5 7.5t-31 20.5t-21 30.5t-7.5 37.5zM1381 1248q0 20 7.5 37.5t21 31t31 21t48 7.5t58 -29t27.5 -68q0 -40 -28 -68t-58 -28t-47.5 7.5
t-31 20.5t-21 30.5t-7.5 37.5zM1240 1453q0 20 7.5 37.5t20.5 31t30.5 21t37.5 7.5t37.5 -7.5t31 -21t21 -31t7.5 -37.5t-7.5 -37.5t-21 -31t-31 -21t-37.5 -7.5t-37.5 7.5t-30.5 21t-20.5 31t-7.5 37.5zM1091 189h364q52 0 87.5 33.5t35.5 90.5v229q0 101 -72 169.5
t-173 68.5t-171.5 -70.5t-70.5 -173.5v-347zM295 443q0 -105 74.5 -179.5t179.5 -74.5h352v347q0 184 126.5 309t306.5 125t307 -125t127 -303v-229q0 -139 -90.5 -226t-222.5 -87h-906q-184 0 -314 130t-130 313v349h190v-349z" />
    <glyph glyph-name="keheh" unicode="&#x6a9;" horiz-adv-x="2278" 
d="M2138 129h-2098l560 549l44 -103q34 -80 127 -80h234l-66 -68q-44 -47 -68 -57t-73 -10h-143q-64 0 -93 16t-65 86l-70 -75q-30 -39 -30 -53t24 -34.5t52 -20.5h1468l-41 81h-723q-35 0 -65 26t-30 75q0 17 91 105l398 384q82 79 82 142q0 152 -144 152q-47 0 -105 -24
t-107 -46l296 294l100 -198q51 -101 51 -174q0 -100 -99 -194l-168 -160q-64 -61 -64 -91t10 -45l15 -38q23 -58 91 -58h463q26 0 61 -75l68 -144q33 -69 55 -94t74 -25q-46 -43 -112 -43z" />
    <glyph glyph-name="gaf" unicode="&#x6af;" horiz-adv-x="2278" 
d="M1650 1605l-577 -389l-26 39l522 470zM771 495h234l-66 -68q-44 -47 -68 -57t-73 -10h-143q-64 0 -93 16t-65 86l-70 -75q-30 -39 -30 -53t24 -34.5t52 -20.5h1468l-41 81h-723q-35 0 -65 26t-30 75q0 17 91 105l398 384q82 79 82 142q0 152 -144 152q-47 0 -105 -24
t-107 -46l296 294l100 -198q51 -101 51 -174q0 -100 -99 -194l-168 -160q-64 -61 -64 -91t10 -45l15 -38q23 -58 91 -58h463q26 0 61 -75l68 -144q33 -69 55 -94t74 -25q-26 -24 -112 -43h-2098l560 549l44 -103q34 -80 127 -80z" />
    <glyph glyph-name="farsiyeh" unicode="&#x6cc;" horiz-adv-x="1280" 
d="M1350 129h-167q-111 0 -165 109l-122 244q-36 70 -58 70t-62 -38l-90 -86q-40 -38 -40 -67t11 -37t51 -28l162 -76q86 -40 86 -116q0 -52 -67 -116l-205 -197q-62 -60 -112 -60t-109 59l-329 329q-64 64 -64 88q0 42 50 90l188 182l-46 -82q-34 -63 -34 -89t57 -83
l271 -272q68 -68 86 -68t77 58l50 48q27 26 27 46q0 45 -49 69l-188 91q-45 22 -63 42t-18 63t100 140l431 418q-14 -46 -14 -80t43 -120l152 -304q39 -77 113 -77h47v-150z" />
    <glyph glyph-name="arabicae" unicode="&#x6d5;" horiz-adv-x="772" 
d="M296 424q0 -20 18 -55l47 -90q63 -1 100 0l-69 136q-33 65 -33 97q-7 -12 -35 -40t-28 -48zM100 200q0 20 -19.5 62t-19.5 80q0 72 53 125l166 167l-60 115l136 128l57 -109l67 67q-22 -61 -22 -109t70 -183l214 -414h-683q41 51 41 71z" />
    <glyph glyph-name="smallhighmadda" unicode="&#x6e4;" horiz-adv-x="530" 
d="M485 1399q0 -104 -125 -104h-149q-57 0 -90 -58l-76 -108v156q0 104 125 104h145q62 0 94 58l76 108v-156z" />
    <glyph glyph-name="extendedarabicindicdigitzero" unicode="&#x6f0;" horiz-adv-x="1079" 
d="M539 1155q-104 0 -177 -73t-73 -176v-472q0 -104 72.5 -177t176.5 -73t177 73t73 177v472q0 104 -72.5 176.5t-176.5 72.5zM105 434v472q0 181 125 308q129 127 309 127q180 -1 308 -129q127 -128 127 -306v-472q0 -179 -127 -307q-127 -127 -308 -127q-180 0 -309 127
q-125 129 -125 307z" />
    <glyph glyph-name="extendedarabicindicdigitone" unicode="&#x6f1;" horiz-adv-x="705" 
d="M400 1v1130h-295l82 212h255q115 0 136.5 -80t21.5 -122v-1140h-200z" />
    <glyph glyph-name="extendedarabicindicdigittwo" unicode="&#x6f2;" horiz-adv-x="1123" 
d="M122 920q0 186 138 305q138 118 324 118t310 -120q124 -124 124 -289t-86 -277q-59 -78 -216 -202l-352 -277h648v-178h-725q-80 0 -131 36t-51 98q0 61 27.5 94t92.5 81l462 360q62 53 100 118q39 63 39 125q0 118 -74 186t-184 69q-111 0 -181.5 -73.5t-70.5 -186.5
q0 -114 54 -159t79 -58l-158 -113q-169 117 -169 343z" />
    <glyph glyph-name="extendedarabicindicdigitthree" unicode="&#x6f3;" horiz-adv-x="1082" 
d="M793 440q0 165 -91.5 199.5t-125.5 44.5q-76 23 -104.5 42.5t-28.5 63.5q0 60 175 260q18 21 33.5 39t25.5 32l25 35h-465l-45 186h597q77 0 129 -35q51 -35 51 -105t-75.5 -159t-109.5 -128t-47 -55l-17 -19l24 -13q233 -127 233 -402q0 -74 -33.5 -154t-129.5 -176
t-270 -96t-294 108t-145 264h187q24 -82 92 -135t137 -53q123 0 197.5 74.5t74.5 181.5z" />
    <glyph glyph-name="extendedarabicindicdigitfour" unicode="&#x6f4;" horiz-adv-x="1245" 
d="M731 0v221h-477q-58 0 -103.5 39t-45.5 100q0 36 18 67l564 915h257l-576 -931h363v153h217v-153h192v-190h-192v-221h-217z" />
    <glyph glyph-name="extendedarabicindicdigitfive" unicode="&#x6f5;" horiz-adv-x="1032" 
d="M105 864v321q-1 77 51 115t137 39h570l-52 -185h-510v-307h212q170 0 292 -124t122 -298.5t-121 -298.5q-121 -125 -285 -125q-163 0 -273 97q-111 97 -141 232h179q25 -68 88 -111t127 -43q114 0 185 72.5t71 174.5q0 103 -71 176q-73 73 -173 73l-182 -6
q-112 0 -161 34q-65 44 -65 164z" />
    <glyph glyph-name="extendedarabicindicdigitsix" unicode="&#x6f6;" horiz-adv-x="1200" 
d="M318 458q0 -116 86 -195q86 -78 201 -78q116 0 202 79q87 80 87 194t-86 193q-86 80 -203 80t-202 -79q-85 -78 -85 -194zM105 457q0 111 57 213l395 674h250l-256 -428h37q204 0 353 -126q154 -135 154 -331t-148 -328q-149 -131 -347 -131q-199 0 -347 131t-148 326z
" />
    <glyph glyph-name="extendedarabicindicdigitseven" unicode="&#x6f7;" horiz-adv-x="1038" 
d="M933 1175q0 -94 -385 -1175h-241l406 1129h-559l-49 211h660q69 0 118.5 -48t49.5 -117z" />
    <glyph glyph-name="extendedarabicindicdigiteight" unicode="&#x6f8;" horiz-adv-x="1068" 
d="M534 1163q-75 0 -128 -53t-53 -127t52.5 -127.5t128.5 -53.5t128.5 54t52.5 127q0 74 -53 127t-128 53zM699 571q-71 67 -167 67t-165 -68t-69 -164t70 -163q70 -66 166 -66q97 0 166.5 66.5t69.5 163.5q0 96 -71 164zM105 400q0 94 43.5 176.5t121.5 139.5l20 15l-18 17
q-106 104 -106 248t109 243t259 99t259 -99t109 -243t-106 -248l-18 -17l21 -15q78 -57 121 -139.5t43 -170.5q0 -176 -128 -291t-302 -115q-173 0 -301 115q-127 115 -127 285z" />
    <glyph glyph-name="extendedarabicindicdigitnine" unicode="&#x6f9;" horiz-adv-x="1124" 
d="M826 887q0 113 -78 193t-189 79q-111 0 -190.5 -79.5t-79.5 -193.5t77 -194t191 -80q113 0 191 81t78 194zM576 430q-199 0 -335 131t-136 322t133.5 326t322.5 135q188 0 323 -134t135 -323q0 -117 -50 -213l-368 -674h-228l238 430h-35z" />
    <glyph glyph-name="zeronojoin" unicode="&#x200c;" horiz-adv-x="45" 
d="M45 0h-45v1628h45v-1628z" />
    <glyph glyph-name="zerojoin" unicode="&#x200d;" horiz-adv-x="45" 
d="M45 0h-45v1550l-84 -84l-30 30l107 107l-107 107l30 30l107 -107l107 107l30 -30l-107 -107l107 -107l-30 -30l-85 85v-1551z" />
    <glyph glyph-name="lefttoright" unicode="&#x200e;" horiz-adv-x="45" 
d="M45 1583v-1583h-45v1628h217l-82 82l31 31l137 -137l-137 -138l-31 31l86 86h-176z" />
    <glyph glyph-name="righttoleft" unicode="&#x200f;" horiz-adv-x="45" 
d="M45 0h-45v1583h-176l86 -86l-31 -31l-137 138l137 137l31 -31l-82 -82h217v-1628z" />
    <glyph glyph-name="endash.001" unicode="&#x2013;" horiz-adv-x="1139" 
d="M-4 426v210h1139v-210h-1139z" />
    <glyph glyph-name="emdash" unicode="&#x2014;" horiz-adv-x="2048" 
d="M0 426v210h2048v-210h-2048z" />
    <glyph glyph-name="quoteleft.001" unicode="&#x2018;" horiz-adv-x="435" 
d="M105 926v155q0 115 25 178q55 137 200 171v-97q-110 -37 -114 -194h114v-213h-225z" />
    <glyph glyph-name="quoteright.001" unicode="&#x2019;" horiz-adv-x="435" 
d="M330 1409v-155q0 -115 -25 -178q-55 -137 -200 -171v97q110 36 114 194h-114v213h225z" />
    <glyph glyph-name="guillemotleft" unicode="&#x201a;" horiz-adv-x="854" 
d="M497 129h-89l-338 400l340 393h87l-226 -393zM804 129h-93l-340 400l340 393h87l-226 -393z" />
    <glyph glyph-name="quotedblleft" unicode="&#x201c;" horiz-adv-x="783" 
d="M466 937v165q0 138 58 220t154 109v-97q-64 -32 -86 -80t-22 -114h108v-203h-212zM105 937v161q-1 132 55 218t159 113v-95q-108 -46 -108 -194h108v-203h-214z" />
    <glyph glyph-name="quotedblright.001" unicode="&#x201d;" horiz-adv-x="783" 
d="M319 1409v-166q-1 -136 -59 -218t-155 -110v97q65 32 87 80t22 114h-109v203h214zM678 1409v-161q0 -132 -56 -218t-156 -113v95q106 45 107 194h-107v203h212z" />
    <glyph glyph-name="quotedash" unicode="&#x201e;" horiz-adv-x="2048" 
d="M2060 618h-2072v61h2072v-61z" />
    <glyph glyph-name="guilsinglleft" unicode="&#x2020;" horiz-adv-x="512" 
d="M457 966l-228 -382l222 -380v-75l-383 455l389 457v-75z" />
    <glyph glyph-name="periodcentered" unicode="&#x2021;" horiz-adv-x="405" 
d="M326 768q0 -50 -35 -85t-85 -35t-85.5 35.5t-35.5 84.5t34.5 85t84.5 36t86 -35.5t36 -85.5z" />
    <glyph glyph-name="bullet.002" unicode="&#x2022;" horiz-adv-x="717" 
d="M657 724q0 -123 -86.5 -209.5t-208.5 -86.5t-209 87t-87 209t87 208.5t209 86.5t208.5 -86t86.5 -209z" />
    <glyph glyph-name="divide" unicode="&#x2026;" horiz-adv-x="2048" 
d="M201 0v281h281v-281h-281zM884 0v281h281v-281h-281zM1566 0v281h282v-281h-282z" />
    <glyph glyph-name="quotesinglbase" unicode="&#x2030;" horiz-adv-x="491" 
d="M458 164q0 -142 -100 -270t-239 -210v56q228 162 228 337q0 61 -33 100q-32 -48 -84 -48t-80.5 27.5t-28.5 77.5q1 50 47 84t119 33q73 0 122 -50.5t49 -136.5z" />
    <glyph glyph-name="quotedblbase" unicode="&#x2039;" horiz-adv-x="939" 
d="M414 167q0 -280 -336 -485v58q90 54 158 147t67 188q0 54 -29 102q-34 -48 -85 -48t-79.5 28t-28.5 79q0 50 46 82q45 32 117 32t121 -50.5t49 -132.5zM864 163q0 -144 -98 -270t-238 -211v56q226 160 226 343q0 50 -31 96q-33 -48 -83 -48t-79.5 28.5t-29.5 78.5t45 82
t119 32t121.5 -50.5t47.5 -136.5z" />
    <glyph glyph-name="dotlessi" unicode="&#x203a;" horiz-adv-x="555" 
d="M517 129h-458v48q84 2 118.5 37t34.5 119v547q0 63 -72 63q-26 0 -50 -10t-31 -12v51l256 101h49v-740q0 -84 34.5 -119t118.5 -37v-48z" />
    <glyph glyph-name="florin" unicode="&#x20ac;" horiz-adv-x="1139" 
d="M768 1238q-163 0 -264 -117q-57 -66 -81 -165h550l-32 -155h-538q-1 -23 -1 -59t2 -73h509l-32 -155h-456q25 -107 77 -168q100 -118 276 -118t290 118v-306q-130 -65 -303 -65q-292 0 -480 200q-128 136 -169 339h-148l32 155h98q-1 25 -1 61t2 71h-131l32 155h119
q42 199 167 333q189 202 497 202q168 0 292 -61l-59 -277q-85 85 -248 85z" />
    <glyph glyph-name="trademark.002" unicode="&#x2122;" horiz-adv-x="1844" 
d="M1739 1409v-803h-121v361q0 167 10 302q-29 -79 -59 -154l-203 -509h-106l-213 503q-23 54 -56 145q9 -163 9 -284v-364h-120v803h164l200 -485q48 -119 69 -181q23 66 67 179l192 487h167zM798 1409v-104h-283v-699h-125v699h-285v104h693z" />
    <glyph glyph-name="_E005h" unicode="&#xe005;" horiz-adv-x="1319" 
d="M1227 881l-427 -448l415 -431h-276l-275 290l-275 -290h-278l415 431l-424 448h275l287 -301l288 301h275z" />
    <glyph glyph-name="fathalow" unicode="&#xe820;" horiz-adv-x="583" 
d="M522 1286h-462v72h462v-72z" />
    <glyph glyph-name="dammalow" unicode="&#xe821;" horiz-adv-x="511" 
d="M227 1494q-13 -34 14 -51.5t30 -17.5h29q26 64 7 83.5t-43 19.5t-37 -34zM378 1433l35 8l17 -70q-52 -13 -86 -16q-46 -73 -107.5 -99t-108.5 -37l-17 69q98 26 144 69q-45 11 -77 51t-25 81q18 109 80.5 110t86.5 -11q53 -28 62 -85q6 -33 -4 -70z" />
    <glyph glyph-name="sukunlow" unicode="&#xe822;" horiz-adv-x="326" 
d="M158 1531q-28 0 -53 -25.5t-25 -61.5t25 -61.5t53 -25.5t43.5 7t27 18.5t18.5 27.5t7 34t-7 34t-18.5 27.5t-27 18.5t-43.5 7zM168 1285q-33 0 -62 12.5t-50.5 34.5t-34 50.5t-12.5 61.5t12.5 62t34 50.5t50.5 34t62 12.5t61.5 -12.5t50 -34t34 -50.5t12.5 -62
t-12.5 -61.5t-34 -50.5t-50 -34.5t-61.5 -12.5z" />
    <glyph glyph-name="fathatanlow" unicode="&#xe823;" horiz-adv-x="583" 
d="M518 1439h-462v72h462v-72zM518 1295h-462v72h462v-72z" />
    <glyph glyph-name="dammatanlow" unicode="&#xe824;" horiz-adv-x="576" 
d="M403 1518q-8 36 -40 36t-43 -29t9 -51q19 -23 62 -23q16 34 12 67zM232 1246q-25 0 -45 40l-27 73l-49 -69l-58 43l68 94q21 31 49 28q28 -4 44 -38v-1l36 -92q54 19 97 59q-46 11 -77 51t-25 81q10 71 63 98t105 0q51 -27 60 -84q6 -33 -4 -70q27 6 35 8l18 -70
q-56 -13 -86 -16q-11 -17 -28 -37q-71 -76 -119.5 -87t-56.5 -11z" />
    <glyph glyph-name="shaddalow" unicode="&#xe825;" horiz-adv-x="551" 
d="M142 1234q-42 0 -72 30t-30 73v126h72v-116q0 -17 12 -29t29 -12h84v157h72v-157h80q17 0 29 12t12 29v116h71v-126q0 -42 -29 -72.5t-73 -30.5h-257z" />
    <glyph glyph-name="kasralow" unicode="&#xe826;" horiz-adv-x="583" 
d="M525 -306h-462v72h462v-72z" />
    <glyph glyph-name="kasratanlow" unicode="&#xe827;" horiz-adv-x="583" 
d="M518 -307h-462v72h462v-72zM518 -451h-462v72h462v-72z" />
    <glyph glyph-name="shaddawithfathaisolatedlow" unicode="&#xe828;" 
d="M539 1356q0 -69 -40.5 -86t-61.5 -17h-257q-42 0 -72 30t-30 73v126h72v-116q0 -17 12 -29t29 -12h84v157h72v-157h80q17 0 29 12t12 29v116h71v-126zM78 1571v71h461v-71h-461z" />
    <glyph glyph-name="shaddawithdammaisolatedlow" unicode="&#xe829;" 
d="M450 1700q36 28 47 58q11 29 -10 41q-34 20 -62 -1t-15.5 -51t40.5 -47zM531 1585q-58 20 -81 33q-106 -55 -255 -1l22 68q97 -31 159 -18q-55 55 -35 120.5t71.5 87t89 -1t51.5 -45.5q50 -85 -33 -162q4 -2 34 -12zM616 1524v-126q0 -43 -30 -73t-72 -30h-257
q-67 0 -84.5 41t-17.5 62v126h71v-116q0 -17 12 -29t29 -12h85v157h72v-157h79q17 0 29 12t12 29v116h72z" />
    <glyph glyph-name="shaddawithfathatanisolatedlow" unicode="&#xe82a;" 
d="M371 1640q36 28 47 58q11 29 -10 41q-34 20 -62 -1t-15.5 -51t40.5 -47zM452 1525q-58 20 -81 33q-106 -55 -255 -1l22 68q97 -31 159 -18q-55 55 -35 120.5t71.5 87t89 -1t51.5 -45.5q50 -85 -33 -162q4 -2 34 -12zM537 1464v-126q0 -43 -30 -73t-72 -30h-257
q-67 0 -84.5 41t-17.5 62v126h71v-116q0 -17 12 -29t29 -12h85v157h72v-157h79q17 0 29 12t12 29v116h72z" />
    <glyph glyph-name="shaddawithdammatanisolatedlow" unicode="&#xe82b;" 
d="M542 1351q0 -69 -40.5 -86t-61.5 -17h-257q-42 0 -72 30t-30 73v126h72v-116q0 -17 12 -29t29 -12h84v157h72v-157h80q17 0 29 12t12 29v116h71v-126zM81 1566v71h461v-71h-461zM81 1710v71h461v-71h-461z" />
    <glyph glyph-name="shaddawithkasraisolatedlow" unicode="&#xe82c;" 
d="M370 1640q36 28 47 58q11 29 -10 41q-34 20 -62 -1t-15.5 -51t40.5 -47zM451 1525q-58 20 -81 33q-106 -55 -255 -1l22 68q97 -31 159 -18q-55 55 -35 120.5t71.5 87t89 -1t51.5 -45.5q50 -85 -33 -162q4 -2 34 -12zM536 1464v-126q0 -43 -30 -73t-72 -30h-257
q-67 0 -84.5 41t-17.5 62v126h71v-116q0 -17 12 -29t29 -12h85v157h72v-157h79q17 0 29 12t12 29v116h72z" />
    <glyph glyph-name="shaddawithkasratanisolatedlow" unicode="&#xe82d;" horiz-adv-x="640" 
d="M93 1289v72h462v-72h-462zM555 1539q0 -43 -30 -73t-72 -30h-257q-43 0 -73 30t-30 73v127h72v-117q0 -17 12 -29t29 -12h85v158h71v-158h80q17 0 29 12t12 29v117h72v-127z" />
    <glyph glyph-name="ornateleftparenthesis" unicode="&#xfd3e;" horiz-adv-x="1292" 
d="M628 188q-31 0 -68 123q-39 -72 -121 -144q8 -12 97 -17h39q22 0 34 4q147 -396 490 -596q-285 230 -355 592q85 7 85 21q-85 68 -131 140q-12 -27 -38 -75t-32 -48zM454 408q-36 12 -110 42t-74 33q16 7 72 23t109 35q-60 20 -175 104q-10 0 -15 -107q-49 -24 -99 -69
q0 -24 99 -54q0 -108 24 -118l77 63q44 38 92 48zM763 473q-1 121 -137 121t-136 -121q0 -46 43.5 -80.5t91.5 -34.5q138 0 138 115zM1092 483q0 20 -100 55q0 107 -24 117q-104 -87 -169 -111q9 -6 93 -32t84 -39q-25 -12 -174 -58q76 -24 171 -108q19 0 19 108
q100 48 100 68zM817 782q0 13 -80 22q46 167 65 220q62 174 251 377q-285 -172 -447 -601q-173 0 -178 -25q84 -65 123 -133q24 44 43 58q15 34 39 68q2 0 9 -27.5t14.5 -34t41.5 -64.5q15 41 119 140zM1181 -483q0 -7 -24 -10q-138 0 -358 254q-135 157 -217 350
q-217 0 -220 46q143 126 143 207q-70 0 -229 -135q-30 0 -58 152q-114 51 -114 88q0 53 111 99q0 145 51 145q70 -61 126 -95t113 -38q-3 58 -58 116q-49 45 -101 92q0 50 229 57q145 372 420 560q94 63 122 63t28 -19q-95 -109 -227 -275q-97 -157 -131 -343
q107 -10 107 -39q-141 -113 -150 -208q68 0 114 40l115 100q61 0 61 -152q111 -45 111 -96q0 -34 -104 -89q0 -141 -58 -145q-114 116 -235 128q0 -63 158 -210q0 -18 -116 -39q70 -343 371 -570q20 -14 20 -34z" />
    <glyph glyph-name="ornaterightparenthesis" unicode="&#xfd3f;" horiz-adv-x="1292" 
d="M655 188q-3 0 -31 48t-39 75q-46 -72 -131 -140q0 -14 85 -21q-68 -362 -355 -592q343 200 490 596q12 -4 58 -4t113 17q-82 72 -120 144q-39 -123 -70 -123zM193 483q0 -20 99 -68q0 -108 20 -108q52 45 84 68t85 40q-165 51 -172 58q1 13 83 39t94 32q-66 24 -170 111
q-24 -10 -24 -117q-99 -35 -99 -55zM795 473q0 121 -137 121t-137 -121q0 -115 138 -115q49 0 92.5 34.5t43.5 80.5zM1123 469q-51 45 -101 69q-3 107 -15 107q-41 -31 -80.5 -58t-93.5 -46q54 -20 73 -27q104 -26 109 -31q0 -3 -75 -33t-111 -42q48 -10 93 -48l76 -63
q24 10 24 118q101 30 101 54zM857 775q-7 25 -178 25q-162 429 -449 601q190 -203 251 -377q21 -53 67 -220q-82 -9 -82 -22q104 -99 119 -140q26 32 57 99q5 25 10 27q22 -34 37 -68q21 -14 43 -58q39 68 125 133zM1181 469q0 -37 -116 -88q-27 -152 -58 -152
q-159 135 -227 135q0 -81 142 -207q-4 -46 -221 -46q-80 -193 -215 -350q-220 -254 -360 -254q-22 3 -22 10q0 20 19 34q300 227 370 570q-116 21 -116 39q159 147 159 210q-120 -12 -236 -128q-58 4 -58 145q-104 55 -104 89q0 51 113 96q0 152 61 152q33 -32 97 -86
t130 -54q-7 95 -150 208q0 29 108 39q-34 186 -132 343q-129 166 -227 275q0 19 28 19t122 -63q275 -188 422 -560q227 -7 227 -57q-50 -47 -101 -92q-53 -58 -56 -116q58 4 114 38t125 95q49 0 49 -145q113 -46 113 -99z" />
    <glyph glyph-name="zerowidthnobreakspace" unicode="&#xfeff;" horiz-adv-x="0" 
 />
    <glyph glyph-name="NULL" horiz-adv-x="0" 
 />
    <glyph glyph-name="_32" horiz-adv-x="1461" 
d="M1248 266h-1050v220h1050v-220zM1248 712h-1050v218h1050v-218z" />
    <glyph glyph-name="currency.001" horiz-adv-x="1024" 
d="M874 808q0 95 -51 182t-135 133t-176 46q-151 0 -256.5 -105.5t-105.5 -255.5t106 -255.5t255 -105.5t256 106t107 255zM524 367q-77 -1 -163 27t-132 76l-146 -143l-56 55l144 145q-102 117 -102 278t102 287l-144 141l56 57l146 -142q119 102 283 102t282 -102l143 142
l58 -57l-144 -141q103 -132 103 -284t-103 -281l144 -145l-58 -55l-143 143q-134 -103 -270 -103z" />
    <glyph glyph-name="brokenbar.001" horiz-adv-x="410" 
d="M244 -313h-83v742h83v-742zM244 809h-83v742h83v-742z" />
    <glyph glyph-name="section.001" horiz-adv-x="853" 
d="M659 564q0 90 -85 169q-48 44 -163 111q-201 -50 -201 -215q0 -86 99 -171q48 -42 171 -116q179 89 179 222zM763 622q0 -206 -233 -314q117 -81 157 -125q73 -79 73 -178q0 -150 -130 -239t-266 -89t-258 57v273h74q2 -111 59 -189t155 -78t167.5 62t69.5 151t-84 163
q-33 28 -167 109t-189 137q-96 95 -96 212q0 215 255 317q-112 72 -157 120q-72 79 -72 177q0 149 113 230q99 73 232 73t244 -44v-253h-70q-14 103 -70 173t-142 70t-140 -50.5t-54 -129.5t76 -150q36 -32 168 -116t187 -140q98 -100 98 -229z" />
    <glyph glyph-name="sfthyphen" horiz-adv-x="1483" 
d="M1290 457h-1116v210h1116v-210z" />
    <glyph glyph-name="twosuperior.001" horiz-adv-x="725" 
d="M541 777h-476v37q178 198 239 277q161 209 161 309t-89 100q-131 0 -188 -222h-49v175q168 88 303 88q173 0 173 -151q0 -68 -60 -143q-28 -35 -113 -113l-254 -234h313q85 0 104 89h35l-48 -239h-33q-1 27 -18 27z" />
    <glyph glyph-name="threesuperior" horiz-adv-x="725" 
d="M637 1032q0 -116 -108 -196q-107 -80 -215 -79q-108 0 -207 36v228h49q7 -85 59 -153q51 -68 127 -69q76 0 116 46t40 118q0 192 -267 200v37q86 14 152 68t66 136q0 92 -87 92q-75 0 -122 -71t-50 -151h-49v176q177 90 290 90q153 0 153 -121q0 -84 -97 -148
q-51 -34 -170 -80q153 0 205 -14q115 -29 115 -145z" />
    <glyph glyph-name="onesuperior.001" horiz-adv-x="725" 
d="M551 766h-348v36h31q77 0 77 69v467q0 77 -54 77q-32 0 -89 -20v35l309 110v-30q-33 -6 -33 -51v-588q0 -69 70 -69h37v-36z" />
    <glyph glyph-name="onequarter.001" horiz-adv-x="1749" 
d="M1418 397v276q-109 -96 -257 -276h257zM558 766h-348v36h31q77 0 77 69v467q0 77 -54 77q-32 0 -89 -20v35l309 112v-32q-33 -6 -33 -51v-588q0 -69 70 -69h37v-36zM1377 1542l-926 -1445h-88l928 1445h86zM1664 329h-113v-104q0 -76 66 -76h23v-35h-331v35h30
q79 0 79 76v104h-340v36l228 265q77 98 193 256h52v-489h113v-68z" />
    <glyph glyph-name="onehalf" horiz-adv-x="1749" 
d="M558 766h-348v36h31q77 0 77 70v466q0 77 -54 77q-31 0 -89 -20v35l309 112v-32q-33 -6 -33 -51v-587q0 -70 70 -70h37v-36zM1377 1542l-926 -1448h-88l928 1448h86zM1565 122h-477v36q179 199 239 276q162 209 162 310t-90 101q-130 0 -188 -223h-49v180q168 84 304 84
q173 0 173 -152q0 -77 -81 -168q-26 -30 -121 -114t-226 -208h313q88 0 104 89h35l-48 -239h-33q-1 28 -17 28z" />
    <glyph glyph-name="threequarters" horiz-adv-x="1749" 
d="M1418 397v276q-111 -98 -257 -276h257zM644 1031q0 -115 -108 -195t-216 -79q-108 0 -206 36v228h49q7 -85 59 -153t128 -69q76 0 115.5 46t39.5 118q0 192 -267 200v37q86 14 152 68t66 136q0 92 -87 92q-75 0 -122 -71t-50 -151h-49v176q177 90 290 90q153 0 153 -121
q0 -129 -267 -228q152 0 205 -14q115 -31 115 -146zM1400 1542l-924 -1445h-90l928 1445h86zM1665 329h-114v-104q0 -76 66 -76h23v-35h-326v35h26q78 0 78 76v104h-340v36l219 253q113 130 202 268h52v-489h114v-68z" />
    <glyph glyph-name="ccedilla" horiz-adv-x="917" 
d="M519 18q146 0 146 -111q0 -67 -59 -105q-58 -38 -124 -37q-66 0 -134 30v56q62 -31 118 -31q98 0 98 74t-111 75q-16 0 -41 -2v135q-160 0 -260 134t-100 298q0 289 254 464q104 72 234 72t280 -66v-259h-72q-4 113 -76 191t-184 77q-141 0 -222 -130q-70 -111 -70 -261
t80 -271q80 -120 225 -120q146 0 345 209v-70q-199 -247 -385 -268v-88q36 4 58 4z" />
    <glyph glyph-name="egrave" horiz-adv-x="896" 
d="M567 911q-158 0 -237 -117q-49 -72 -64 -188h593q-8 105 -52 175q-82 130 -240 130zM574 -30q-247 0 -375 168q-108 144 -108 374q-1 230 133 386q134 154 345 154q172 0 299 -108q168 -143 164 -468h-768q12 -365 322 -365q151 0 222 108q27 43 48 108h165
q-80 -357 -447 -357zM408 1444h208l146 -282h-117z" />
    <glyph glyph-name="eacute" horiz-adv-x="896" 
d="M567 911q-158 0 -237 -117q-49 -72 -64 -188h593q-8 105 -52 175q-82 130 -240 130zM574 -30q-247 0 -375 168q-108 144 -108 374q-1 230 133 386q134 154 345 154q172 0 299 -108q168 -143 164 -468h-768q12 -365 322 -365q151 0 222 108q27 43 48 108h165
q-80 -357 -447 -357zM332 1162h-117l146 282h208z" />
    <glyph glyph-name="ecircumflex" horiz-adv-x="896" 
d="M567 911q-158 0 -237 -117q-49 -72 -64 -188h593q-8 105 -52 175q-82 130 -240 130zM574 -30q-247 0 -375 168q-108 144 -108 374q-1 230 133 386q134 154 345 154q172 0 299 -108q168 -143 164 -468h-768q12 -365 322 -365q151 0 222 108q27 43 48 108h165
q-80 -357 -447 -357zM746 1234h-66l-214 126l-211 -126h-68l279 242z" />
    <glyph glyph-name="ugrave" horiz-adv-x="1131" 
d="M984 1022v-1022h-156v160q-127 -190 -346 -190q-178 0 -267 112q-66 83 -66 277v663h168v-602q0 -170 32 -223q52 -86 181 -86q168 0 247 152q39 74 39 265v494h168zM469 1444h208l146 -282h-117z" />
    <glyph glyph-name="ucircumflex" horiz-adv-x="1131" 
d="M984 1022v-1022h-156v160q-127 -190 -346 -190q-178 0 -267 112q-66 83 -66 277v663h168v-602q0 -170 32 -223q52 -86 181 -86q168 0 247 152q39 74 39 265v494h168zM811 1234h-66l-214 126l-211 -126h-68l279 242z" />
    <glyph glyph-name="Scaron" horiz-adv-x="917" 
d="M599 1283q-133 0 -212 -47q-105 -64 -105 -176t75 -156t271 -85q196 -42 263 -65q151 -52 223 -146t72 -212q0 -199 -158 -321q-137 -107 -368 -107t-379 82q-223 123 -226 415h180q3 -136 71 -213q110 -126 345 -126q173 0 261 72t87 172q1 100 -55 152t-185 90
q-35 10 -199 48t-203 52q-127 43 -191 121t-63 204q1 189 137 297t361 107q334 0 466 -209q59 -94 64 -236h-179q-16 130 -80 196q-89 91 -273 91zM808 1800l-280 -242l-281 242h68l213 -132l214 132h66z" />
    <glyph glyph-name="scaron" horiz-adv-x="747" 
d="M458 911q-95 0 -152 -36q-57 -37 -57 -95t29 -87q30 -29 88 -47t155 -39q213 -47 304 -113t91 -189q0 -122 -76 -208q-112 -127 -350 -127t-351 123q-79 86 -85 230h165q10 -85 46 -129q70 -83 221 -83t218 72q39 42 39 98q0 97 -136 138q-55 17 -179 47t-159 42
q-192 66 -192 236t143 252q97 56 246 56q384 0 409 -328h-169q-9 69 -36 105q-60 82 -212 82zM671 1473l-280 -242l-281 242h68l213 -132l214 132h66z" />
    <glyph glyph-name="_383" horiz-adv-x="1471" 
d="M933 969v-780h120q50 0 86.5 34.5t36.5 83.5v662h190v-662q0 -128 -91.5 -217.5t-221.5 -89.5h-1095v189h354v780h189v-780h243v780h189z" />
    <glyph glyph-name="_387" horiz-adv-x="1471" 
d="M599 1248q0 20 7.5 37.5t21 31t31 21t37.5 7.5t37.5 -7.5t31 -21t21 -31t7.5 -37.5t-7.5 -37.5t-21 -30.5t-31 -20.5t-37.5 -7.5t-37.5 7.5t-31 20.5t-21 30.5t-7.5 37.5zM882 1248q0 20 7.5 37.5t21 31t31 21t48 7.5t58 -29t27.5 -68q0 -40 -28 -68t-58 -28t-47.5 7.5
t-31 20.5t-21 30.5t-7.5 37.5zM741 1453q0 20 7.5 37.5t20.5 31t30.5 21t37.5 7.5t37.5 -7.5t31 -21t21 -31t7.5 -37.5t-7.5 -37.5t-21 -31t-31 -21t-37.5 -7.5t-37.5 7.5t-30.5 21t-20.5 31t-7.5 37.5zM933 969v-780h120q50 0 86.5 34.5t36.5 83.5v662h190v-662
q0 -128 -91.5 -217.5t-221.5 -89.5h-1095v189h354v780h189v-780h243v780h189z" />
  </font>
</defs>
</svg>
